<svg xmlns="http://www.w3.org/2000/svg" width="25" height="15" viewBox="0 0 25 15"><defs><style>.a{fill:#1451a1;}</style></defs><path class="a" d="M20.02,69a4.988,4.988,0,0,0-1.814.332l-3.034-4.889a.937.937,0,0,0-.8-.443h-2.5a.625.625,0,0,0-.625.625v.625a.625.625,0,0,0,.625.625h1.978l.582.938H10v-.625a.625.625,0,0,0-.625-.625H5.958A.955.955,0,0,0,5,66.517a.937.937,0,0,0,.937.92h1.9L6.692,69.294A5,5,0,1,0,9.842,75.25h2.033a.937.937,0,0,0,.8-.444l3.358-5.424.584.94A4.987,4.987,0,0,0,15,74.011,5.065,5.065,0,0,0,19.95,79a5,5,0,1,0,.069-10ZM7.295,71.882a3.119,3.119,0,0,1,.767,1.493H6.37ZM5,77.125a3.125,3.125,0,1,1,.668-6.177L3.89,73.819a.938.938,0,0,0,.8,1.431H7.863A3.129,3.129,0,0,1,5,77.125Zm6.353-3.75H9.961a4.99,4.99,0,0,0-1.656-3.126l.967-1.561h4.982l-2.9,4.687Zm8.479,3.746a3.122,3.122,0,0,1-2.2-5.157l1.736,2.8a.625.625,0,0,0,.861.2l.531-.33a.625.625,0,0,0,.2-.861l-1.737-2.8a3.125,3.125,0,1,1,.607,6.148Z" transform="translate(0 -64)"/></svg>