<svg xmlns="http://www.w3.org/2000/svg" xmlns:xlink="http://www.w3.org/1999/xlink" width="87" height="101.68" viewBox="0 0 87 101.68"><defs><style>.a{fill:#d24444;}.b,.d{fill:#fff;}.b{stroke:#fff;}.b,.c{stroke-linejoin:round;stroke-width:3px;}.c{fill:none;stroke:#d24444;}.d{stroke-miterlimit:10;}.e,.f{stroke:none;}.f{fill:#d24444;}.g{filter:url(#a);}</style><filter id="a" x="0" y="0" width="87" height="101.68" filterUnits="userSpaceOnUse"><feOffset dy="3" input="SourceAlpha"/><feGaussianBlur stdDeviation="3" result="b"/><feFlood flood-opacity="0.161"/><feComposite operator="in" in2="b"/><feComposite in="SourceGraphic"/></filter></defs><g transform="translate(-112.555 -18.992)"><g transform="translate(-61.807 -73.761)"><ellipse class="a" cx="10.5" cy="4.5" rx="10.5" ry="4.5" transform="translate(207.362 178.933)"/><g class="g" transform="matrix(1, 0, 0, 1, 174.36, 92.75)"><path class="b" d="M250.862,100.253h-66v66h27.175l5.872,14.68,5.872-14.68h27.082Z" transform="translate(-174.36 -92.75)"/></g><path class="c" d="M248.383,163.72h-26.64l-3.834,12.292-4.268-12.292h-26.3V102.16h61.043Z"/></g><g transform="translate(133.152 39)"><g transform="translate(25.012 19.487)"><path class="a" d="M377.23,12.4a11.4,11.4,0,1,0,11.4,11.4,11.4,11.4,0,0,0-11.4-11.4Z" transform="translate(-365.833 -12.399)"/><g class="d" transform="translate(-360.393 -9.679)"><path class="e" d="M 376.1029052734375 23.34113502502441 L 376.0951232910156 23.34113502502441 L 371.2823486328125 23.34113502502441 L 371.2745971679688 23.34113502502441 L 371.2668151855469 23.34101486206055 C 370.3085021972656 23.32611465454102 369.5421752929688 22.56206512451172 369.5221862792969 21.60156440734863 L 369.52197265625 21.5911750793457 L 369.52197265625 21.58077430725098 L 369.52197265625 15.50220394134521 L 369.52197265625 15.49175453186035 L 369.5221862792969 15.48130416870117 C 369.542236328125 14.52207469940186 370.3085632324219 13.75901412963867 371.2668151855469 13.74411392211914 L 371.2745971679688 13.74399471282959 L 371.2823486328125 13.74399471282959 L 372.29541015625 13.74399471282959 L 372.3031921386719 13.74399471282959 L 372.3109436035156 13.74411392211914 C 373.2742004394531 13.75908470153809 374.0405883789062 14.52444458007812 374.0556640625 15.48653411865234 L 374.0557861328125 15.49436473846436 L 374.0557861328125 15.50220394134521 L 374.0557861328125 18.80947494506836 L 376.0951232910156 18.80947494506836 L 376.1029052734375 18.80947494506836 L 376.1106567382812 18.80959510803223 C 377.0729064941406 18.82455444335938 377.8383178710938 19.59000396728516 377.8531799316406 20.55222511291504 L 377.8533020019531 20.5599536895752 L 377.8533020019531 20.56767463684082 L 377.8533020019531 21.58077430725098 L 377.8533020019531 21.5884952545166 L 377.8531799316406 21.59622383117676 C 377.8382873535156 22.55965423583984 377.0729064941406 23.32605361938477 376.1106567382812 23.34101486206055 L 376.1029052734375 23.34113502502441 Z"/><path class="f" d="M 376.0951232910156 22.34113502502441 C 376.5120544433594 22.33465385437012 376.8468627929688 21.9976749420166 376.8533020019531 21.58077430725098 L 376.8533020019531 20.56767463684082 C 376.8468627929688 20.1507740020752 376.5120544433594 19.81595420837402 376.0951232910156 19.80947494506836 L 373.0557861328125 19.80947494506836 L 373.0557861328125 15.50220394134521 C 373.0492858886719 15.0874547958374 372.71240234375 14.75047397613525 372.29541015625 14.74399471282959 L 371.2823486328125 14.74399471282959 C 370.8655090332031 14.75047397613525 370.5306396484375 15.0874547958374 370.52197265625 15.50220394134521 L 370.52197265625 21.58077430725098 C 370.5306396484375 21.9976749420166 370.8655090332031 22.33465385437012 371.2823486328125 22.34113502502441 L 376.0951232910156 22.34113502502441 M 376.1106567382812 24.34113502502441 L 371.2512512207031 24.34089469909668 C 369.7522888183594 24.31759452819824 368.5536193847656 23.12346458435059 368.5223999023438 21.62235450744629 L 368.52197265625 21.58077430725098 L 368.5223999023438 15.46040439605713 C 368.5537719726562 13.96062469482422 369.7524108886719 12.76753425598145 371.2512512207031 12.74423408508301 L 371.2823486328125 12.74399471282959 L 372.3264770507812 12.74423408508301 C 373.0498046875 12.75547409057617 373.730224609375 13.04321479797363 374.2424011230469 13.5544548034668 C 374.7554321289062 14.06650447845459 375.044189453125 14.74709415435791 375.0555419921875 15.47086429595947 L 375.0557861328125 15.50220394134521 L 375.0557861328125 17.80947494506836 L 376.1261901855469 17.80971527099609 C 377.6320190429688 17.8331241607666 378.8298034667969 19.0309944152832 378.8530578613281 20.53678512573242 L 378.8533020019531 20.56767463684082 L 378.8530578613281 21.61166381835938 C 378.8297729492188 23.11867523193359 377.6319885253906 24.3174934387207 376.1261901855469 24.34089469909668 L 376.1106567382812 24.34113502502441 Z"/></g></g><path class="a" d="M369.755,26.12h0a11.4,11.4,0,1,0-11.405-11.4A11.4,11.4,0,0,0,369.759,26.12Z" transform="translate(-349.497 -3.326)"/><path class="a" d="M377.106,20.72a13.47,13.47,0,0,1,.922-4.88,13.77,13.77,0,0,1-9.282-.791h-4.361a10.127,10.127,0,0,0-10.131,10.127v1.27a3.8,3.8,0,0,0,3.8,3.8h22.977A13.512,13.512,0,0,1,377.106,20.72Z" transform="translate(-354.254 10.163)"/></g></g></svg>