<svg xmlns="http://www.w3.org/2000/svg" xmlns:xlink="http://www.w3.org/1999/xlink" width="87" height="101.68" viewBox="0 0 87 101.68"><defs><style>.a,.b{fill:#d24444;}.b{stroke:#fff;}.b,.c{stroke-linejoin:round;stroke-width:3px;}.c{fill:none;stroke:#d24444;}.d{fill:#fff;}.e{filter:url(#a);}</style><filter id="a" x="0" y="0" width="87" height="101.68" filterUnits="userSpaceOnUse"><feOffset dy="3" input="SourceAlpha"/><feGaussianBlur stdDeviation="3" result="b"/><feFlood flood-opacity="0.161"/><feComposite operator="in" in2="b"/><feComposite in="SourceGraphic"/></filter></defs><g transform="translate(-112.555 -123.992)"><g transform="translate(-61.807 31.239)"><ellipse class="a" cx="10.5" cy="4.5" rx="10.5" ry="4.5" transform="translate(207.362 178.933)"/><g class="e" transform="matrix(1, 0, 0, 1, 174.36, 92.75)"><path class="b" d="M250.862,100.253h-66v66h27.175l5.872,14.68,5.872-14.68h27.082Z" transform="translate(-174.36 -92.75)"/></g><path class="c" d="M248.383,163.72h-26.64l-3.834,12.292-4.268-12.292h-26.3V102.16h61.043Z"/></g><g transform="translate(133.152 144)"><g transform="translate(25.012 19.487)"><path class="d" d="M377.23,12.4a11.4,11.4,0,1,0,11.4,11.4,11.4,11.4,0,0,0-11.4-11.4Z" transform="translate(-365.833 -12.399)"/><path class="a" d="M376.853,21.581a.771.771,0,0,1-.758.76h-4.813a.774.774,0,0,1-.76-.76V15.5a.774.774,0,0,1,.76-.758H372.3a.772.772,0,0,1,.76.758v4.307H376.1a.769.769,0,0,1,.758.758Z" transform="translate(-360.393 -9.679)"/></g><path class="d" d="M369.755,26.12h0a11.4,11.4,0,1,0-11.405-11.4A11.4,11.4,0,0,0,369.759,26.12Z" transform="translate(-349.497 -3.326)"/><path class="d" d="M377.106,20.72a13.47,13.47,0,0,1,.922-4.88,13.77,13.77,0,0,1-9.282-.791h-4.361a10.127,10.127,0,0,0-10.131,10.127v1.27a3.8,3.8,0,0,0,3.8,3.8h22.977A13.512,13.512,0,0,1,377.106,20.72Z" transform="translate(-354.254 10.163)"/></g></g></svg>