<svg xmlns="http://www.w3.org/2000/svg" xmlns:xlink="http://www.w3.org/1999/xlink" width="87" height="101.68" viewBox="0 0 87 101.68"><defs><style>.a{fill:#09c;}.b,.d{fill:#fff;}.b{stroke:#fff;}.b,.c{stroke-linejoin:round;stroke-width:3px;}.c{fill:none;stroke:#09c;}.e{filter:url(#a);}</style><filter id="a" x="0" y="0" width="87" height="101.68" filterUnits="userSpaceOnUse"><feOffset dy="3" input="SourceAlpha"/><feGaussianBlur stdDeviation="3" result="b"/><feFlood flood-opacity="0.161"/><feComposite operator="in" in2="b"/><feComposite in="SourceGraphic"/></filter></defs><g transform="translate(-26.61 -18.992)"><g transform="translate(-147.752 -73.761)"><ellipse class="a" cx="10.5" cy="4.5" rx="10.5" ry="4.5" transform="translate(207.362 178.933)"/><g class="e" transform="matrix(1, 0, 0, 1, 174.36, 92.75)"><path class="b" d="M250.862,100.253h-66v66h27.175l5.872,14.68,5.872-14.68h27.082Z" transform="translate(-174.36 -92.75)"/></g><path class="c" d="M248.383,163.72h-26.64l-3.834,12.292-4.268-12.292h-26.3V102.16h61.043Z"/></g><g transform="translate(47.154 39)"><path class="a" d="M290.87,12.4a11.4,11.4,0,1,0,11.4,11.4,11.4,11.4,0,0,0-11.4-11.4Z" transform="translate(-254.463 7.088)"/><path class="a" d="M283.4,26.12h0a11.4,11.4,0,1,0-11.405-11.4A11.4,11.4,0,0,0,283.4,26.12Z" transform="translate(-263.139 -3.326)"/><path class="a" d="M290.747,20.72a13.471,13.471,0,0,1,.922-4.88,13.771,13.771,0,0,1-9.282-.791h-4.361A10.126,10.126,0,0,0,267.9,25.177v1.27a3.8,3.8,0,0,0,3.8,3.8h22.977A13.512,13.512,0,0,1,290.747,20.72Z" transform="translate(-267.895 10.163)"/><g transform="translate(30.14 27.348)"><path class="d" d="M293.921,16.5a1.563,1.563,0,0,0-2.218,0l-4.953,4.882-2.223-2.227a1.573,1.573,0,0,0-2.221,2.227l3.331,3.331a1.579,1.579,0,0,0,2.225,0l6.059-5.994A1.559,1.559,0,0,0,293.921,16.5Z" transform="translate(-281.848 -16.038)"/></g></g></g></svg>