<svg xmlns="http://www.w3.org/2000/svg" width="42.729" height="42.735" viewBox="0 0 42.729 42.735"><defs><style>.a{fill:#0a7b24;}.b{fill:#fff;}</style></defs><g transform="translate(-220.358 -807.635)"><path class="a" d="M21.366,42.735A21.367,21.367,0,1,1,42.729,21.369,21.39,21.39,0,0,1,21.366,42.735Z" transform="translate(220.358 807.635)"/><path class="b" d="M219.621,17.121a3.207,3.207,0,0,0-4.554,0L204.884,27.153l-4.568-4.577a3.231,3.231,0,1,0-4.563,4.577L202.6,34a3.253,3.253,0,0,0,4.572,0L219.621,21.68A3.2,3.2,0,0,0,219.621,17.121Z" transform="translate(34.028 805.569)"/></g></svg>