<svg id="Layer_1" data-name="Layer 1" xmlns="http://www.w3.org/2000/svg" viewBox="0 0 20 20" width="20" height="20">
<path d="M15,12.5a2.38,2.38,0,0,1-.93-.2,2.14,2.14,0,0,0-1-.22,2.21,2.21,0,0,0-.95.22,2.33,2.33,0,0,1-.92.2,2.38,2.38,0,0,1-.93-.2,2.14,2.14,0,0,0-1-.22,2.21,2.21,0,0,0-.95.22,2.22,2.22,0,0,1-1.84,0,2.22,2.22,0,0,0-1-.22,2.17,2.17,0,0,0-1,.22,2.33,2.33,0,0,1-.92.2,2.33,2.33,0,0,1-.92-.2,2.25,2.25,0,0,0-1-.22,2.17,2.17,0,0,0-.95.22,2.33,2.33,0,0,1-.92.2V11.11a2.17,2.17,0,0,0,.92-.2,2.32,2.32,0,0,1,1-.21,2.4,2.4,0,0,1,1,.21,2.22,2.22,0,0,0,1.84,0,2.32,2.32,0,0,1,1-.21,2.36,2.36,0,0,1,1,.21,2.22,2.22,0,0,0,1.84,0,2.35,2.35,0,0,1,.95-.21,2.28,2.28,0,0,1,1,.21,2.24,2.24,0,0,0,1.85,0,2.35,2.35,0,0,1,.95-.21,2.28,2.28,0,0,1,1,.21,2.22,2.22,0,0,0,.93.2Z"/><path d="M13.17,7.19a.46.46,0,0,0,.26-.42V6.31h.47V4.8a.71.71,0,0,0-.52-.69l-.54-1.29a.53.53,0,0,0-.48-.32H9.59a.53.53,0,0,0-.48.32L8.57,4.11a.71.71,0,0,0-.52.69V6.31h.47v.46a.46.46,0,0,0,.26.42H6.24a.45.45,0,0,0,.27-.42V6.31H7V4.8a.72.72,0,0,0-.53-.69L5.91,2.82a.51.51,0,0,0-.48-.32H2.67a.53.53,0,0,0-.49.32L1.65,4.11a.71.71,0,0,0-.53.69V6.31h.47v.46a.45.45,0,0,0,.27.42H0V8.36H1.27l1,1.21a3,3,0,0,1,.53.17,2.22,2.22,0,0,0,1.84,0,2.32,2.32,0,0,1,1-.21,2.36,2.36,0,0,1,1,.21,2.22,2.22,0,0,0,1.84,0,2.35,2.35,0,0,1,.95-.21,2.28,2.28,0,0,1,1,.21,2.24,2.24,0,0,0,1.85,0,2.33,2.33,0,0,1,.65-.19l1-1.2H15V7.19Zm-10.93,0a.45.45,0,0,0,.27-.42V6.31H5.59v.46a.45.45,0,0,0,.26.42Zm6.93,0a.45.45,0,0,0,.27-.42V6.31h3.07v.46a.45.45,0,0,0,.27.42ZM1.67,5.07a.47.47,0,1,1,.46.46A.47.47,0,0,1,1.67,5.07ZM6,5.53A.47.47,0,0,1,6,4.6a.47.47,0,1,1,0,.93ZM2.11,4.08,2.57,3a.15.15,0,0,1,.14-.09H5.39A.17.17,0,0,1,5.53,3L6,4.08Zm6.49,1a.47.47,0,1,1,.46.46A.47.47,0,0,1,8.6,5.07Zm4.29.46a.47.47,0,1,1,0-.93.47.47,0,1,1,0,.93ZM9,4.08,9.5,3a.14.14,0,0,1,.13-.09h2.69a.14.14,0,0,1,.13.09l.46,1.11Z"/>
</svg>