<svg xmlns="http://www.w3.org/2000/svg" width="80" height="80" viewBox="0 0 80 80"><defs><style>.a{fill:none;}.b{fill:#1451a1;}</style></defs><g transform="translate(-108 -741.822)"><rect class="a" width="80" height="80" transform="translate(108 741.822)"/><path class="b" d="M25.6,15.543V0H2.743A2.736,2.736,0,0,0,0,2.743V55.772a2.736,2.736,0,0,0,2.743,2.743h38.4a2.736,2.736,0,0,0,2.743-2.743V18.286H28.343A2.751,2.751,0,0,1,25.6,15.543ZM33.049,40.23H25.6v9.143A1.828,1.828,0,0,1,23.772,51.2H20.114a1.828,1.828,0,0,1-1.829-1.829V40.23H10.837A1.829,1.829,0,0,1,9.549,37.1l11.02-10.937a1.949,1.949,0,0,1,2.747,0L34.335,37.1A1.828,1.828,0,0,1,33.049,40.23ZM43.086,12,31.9.8A2.741,2.741,0,0,0,29.955,0h-.7V14.629H43.886v-.7A2.734,2.734,0,0,0,43.086,12Z" transform="translate(126.057 750.777)"/></g></svg>