<svg xmlns="http://www.w3.org/2000/svg" width="80" height="80" viewBox="0 0 80 80"><defs><style>.a{fill:none;}.b{fill:#1451a1;}</style></defs><g transform="translate(-254 -78)"><rect class="a" width="80" height="80" rx="4" transform="translate(254 78)"/><path class="b" d="M51.386,45.047,41.241,34.9a2.44,2.44,0,0,0-1.73-.712H37.853a21.155,21.155,0,1,0-3.663,3.663v1.659a2.44,2.44,0,0,0,.712,1.73L45.047,51.386a2.432,2.432,0,0,0,3.449,0l2.88-2.88A2.454,2.454,0,0,0,51.386,45.047ZM21.165,34.19A13.025,13.025,0,1,1,34.19,21.165,13.017,13.017,0,0,1,21.165,34.19Z" transform="translate(267.557 92.864)"/></g></svg>