<svg xmlns="http://www.w3.org/2000/svg" width="38.059" height="35.323" viewBox="0 0 38.059 35.323"><defs><style>.a{fill:#fff;fill-rule:evenodd;}</style></defs><g transform="translate(-288.281 -207.229)"><path class="a" d="M300,225.7l6.754-6.754c.033-.377.1-1.214.128-1.563a9.319,9.319,0,0,0-12.2-9.687c2.469,2.469,8.16,6.2,4.212,10.143a4.058,4.058,0,0,1-5.93,0l-4.213-4.213a9.318,9.318,0,0,0,2.262,9.51c3.775,3.775,8.783,2.359,8.988,2.564Zm8.6,8.6,7.543,7.543a2.446,2.446,0,0,0,3.45,0l3.3-3.3a2.446,2.446,0,0,0,0-3.45l-7.543-7.543L308.6,234.3Zm7.924,2.716a1.747,1.747,0,1,0,1.747-1.747,1.747,1.747,0,0,0-1.747,1.747Z" transform="translate(0 0)"/><path class="a" d="M309.163,223.773l6.712,6.713-15.021,15.021a2.432,2.432,0,0,1-3.428,0l-3.285-3.284a2.432,2.432,0,0,1,0-3.428l15.022-15.022Zm2.381,5.08,1.294,1.294L299.183,243.8a.468.468,0,0,1-.661,0l-.633-.633a.469.469,0,0,1,0-.661l13.654-13.653Zm-2.316-2.427,1.294,1.294-13.654,13.654a.469.469,0,0,1-.661,0l-.633-.633a.469.469,0,0,1,0-.661l13.654-13.654Z" transform="translate(-1.257 -4.037)"/><path class="a" d="M321.741,215.078l10.532-6.987,1.546,1.546L326.362,219.7l-3.284,1.14-2.142,2.545-2.009-2.009,2.142-2.544.671-3.753Z" transform="translate(-7.478 -0.21)"/></g></svg>