<svg xmlns="http://www.w3.org/2000/svg" width="48.304" height="42.781" viewBox="0 0 48.304 42.781"><defs><style>.a,.b{fill:#09c;}.a{stroke:rgba(0,0,0,0);stroke-miterlimit:10;}</style></defs><path class="a" d="M-1338.756-8225.739a11.411,11.411,0,0,1-11.4-11.4,11.41,11.41,0,0,1,11.4-11.4,11.323,11.323,0,0,1,8.058,3.338,11.323,11.323,0,0,1,3.338,8.058,11.33,11.33,0,0,1-3.338,8.061A11.323,11.323,0,0,1-1338.756-8225.739Zm-4.7-12.276a1.557,1.557,0,0,0-1.11.46,1.586,1.586,0,0,0,0,2.228l3.331,3.33a1.566,1.566,0,0,0,1.112.458,1.572,1.572,0,0,0,1.112-.458l6.059-5.994a1.554,1.554,0,0,0,.464-1.112,1.551,1.551,0,0,0-.464-1.107,1.563,1.563,0,0,0-1.11-.461,1.553,1.553,0,0,0-1.107.461l-4.954,4.884-2.223-2.228A1.552,1.552,0,0,0-1343.454-8238.016Z" transform="translate(1375.164 8268.021)"/><path class="b" d="M283.4,26.12h0a11.4,11.4,0,1,0-11.405-11.4A11.4,11.4,0,0,0,283.4,26.12Z" transform="translate(-263.139 -3.326)"/><path class="b" d="M290.747,20.72a13.471,13.471,0,0,1,.922-4.88,13.771,13.771,0,0,1-9.282-.791h-4.361A10.126,10.126,0,0,0,267.9,25.177v1.27a3.8,3.8,0,0,0,3.8,3.8h22.977A13.512,13.512,0,0,1,290.747,20.72Z" transform="translate(-267.895 10.163)"/></svg>