<svg xmlns="http://www.w3.org/2000/svg" width="45.058" height="39.289" viewBox="0 0 45.058 39.289"><defs><style>.a{fill:#09c;}</style></defs><g transform="translate(-0.001 -21.328)"><path class="a" d="M-1329.592-8507.535h-18.226a4.086,4.086,0,0,1-4.082-4.082v-7.483h13.267v3.23h6.124v-3.23h8.7a12.482,12.482,0,0,0-2.2,1.752,12.319,12.319,0,0,0-3.632,8.768c0,.349.015.7.043,1.045Zm-3.937-9.354h-4.082v-6.126h4.082v6.125Zm-5.1-4.252H-1351.9v-3.743a4.086,4.086,0,0,1,4.082-4.082h5.316v-2.211a1.023,1.023,0,0,1,1.02-1.022h.086a1.023,1.023,0,0,1,1.02,1.022v2.211h9.612v-2.211a1.023,1.023,0,0,1,1.02-1.022h.086a1.023,1.023,0,0,1,1.02,1.022v2.211h5.316a4.087,4.087,0,0,1,4.084,4.082v3.742h-13.269v-2.893h-6.124v2.893Zm9.406-12.251h-12.687a1.039,1.039,0,0,1-1.056-1.02v-2.042a1.039,1.039,0,0,1,1.056-1.02h12.687a1.039,1.039,0,0,1,1.056,1.02v2.042A1.039,1.039,0,0,1-1329.226-8533.393Z" transform="translate(1351.9 8558.802)"/><path class="a" d="M-1341.5-8516.682a10.408,10.408,0,0,1-10.4-10.4,10.407,10.407,0,0,1,10.4-10.4,10.408,10.408,0,0,1,10.4,10.4A10.409,10.409,0,0,1-1341.5-8516.682Zm-4.7-11.274a1.564,1.564,0,0,0-1.111.458,1.59,1.59,0,0,0,0,2.229l3.332,3.33a1.57,1.57,0,0,0,1.112.458,1.563,1.563,0,0,0,1.112-.458l6.059-5.993a1.561,1.561,0,0,0,.463-1.115,1.547,1.547,0,0,0-.463-1.1,1.559,1.559,0,0,0-1.11-.462,1.549,1.549,0,0,0-1.107.462l-4.954,4.883-2.224-2.229A1.559,1.559,0,0,0-1346.2-8527.956Z" transform="translate(1376.164 8577.299)"/></g></svg>