<svg xmlns="http://www.w3.org/2000/svg" width="48.178" height="43.334" viewBox="0 0 48.178 43.334"><defs><style>.a,.b{fill:#fff;}.a{stroke:rgba(0,0,0,0);stroke-miterlimit:10;}</style></defs><g transform="translate(-370.255 -299.905)"><path class="a" d="M-1277.113-7919.313h-21.031a.962.962,0,0,1-.952-.946l.024-14.072-2.924-.016,0-4.738,17.63-12.555a1.976,1.976,0,0,1,1.171-.361,1.947,1.947,0,0,1,1.151.361l6.169,4.391v-1.648a.917.917,0,0,1,.91-.922l4.61-.016a.922.922,0,0,1,.92.922v6.195l5.029,3.634v4.738l-2.92.016,0,2.644a12.275,12.275,0,0,0-2.447.8l0-6.236-13.419-9.436-13.435,9.529-.016,15.273h4.185v-12.587h7.675v12.587h7.863a12.581,12.581,0,0,0-.193,2.2c0,.083,0,.166,0,.249Zm2.236-7.362h-6.4v-7.671h7.661v6.153a12.555,12.555,0,0,0-1.257,1.518Z" transform="translate(1672.755 8252.405)"/><path class="b" d="M-1291.6-7931.206a10.409,10.409,0,0,1-10.4-10.4,10.409,10.409,0,0,1,10.4-10.4,10.408,10.408,0,0,1,10.4,10.4A10.408,10.408,0,0,1-1291.6-7931.206Zm-4.7-11.272a1.566,1.566,0,0,0-1.111.458,1.584,1.584,0,0,0,0,2.227l3.331,3.333a1.575,1.575,0,0,0,1.112.457,1.575,1.575,0,0,0,1.112-.457l6.061-6a1.561,1.561,0,0,0,.463-1.114,1.553,1.553,0,0,0-.463-1.105,1.56,1.56,0,0,0-1.111-.461,1.544,1.544,0,0,0-1.106.461l-4.955,4.881-2.223-2.227A1.555,1.555,0,0,0-1296.3-7942.478Z" transform="translate(1699.64 8274.444)"/></g></svg>