<svg xmlns="http://www.w3.org/2000/svg" width="80" height="80" viewBox="0 0 80 80"><defs><style>.a{fill:none;}.b{fill:#1451a1;}</style></defs><g transform="translate(-27 -78)"><rect class="a" width="80" height="80" rx="4" transform="translate(27 78)"/><path class="b" d="M10.1,52.192a6.731,6.731,0,1,0-6.731-6.731A6.737,6.737,0,0,0,10.1,52.192Zm47.116,0a6.731,6.731,0,1,0-6.731-6.731A6.737,6.737,0,0,0,57.212,52.192Zm3.365,3.365H53.847A6.711,6.711,0,0,0,49.1,57.514,15.383,15.383,0,0,1,57,69.02h6.941a3.362,3.362,0,0,0,3.365-3.365V62.289A6.737,6.737,0,0,0,60.577,55.558Zm-26.923,0A11.779,11.779,0,1,0,21.875,43.779,11.773,11.773,0,0,0,33.654,55.558Zm8.077,3.365h-.873a16.263,16.263,0,0,1-14.408,0h-.873A12.119,12.119,0,0,0,13.462,71.039v3.029a5.049,5.049,0,0,0,5.048,5.048H48.8a5.049,5.049,0,0,0,5.048-5.048V71.039A12.119,12.119,0,0,0,41.731,58.923ZM18.2,57.514a6.711,6.711,0,0,0-4.743-1.956H6.731A6.737,6.737,0,0,0,0,62.289v3.365A3.362,3.362,0,0,0,3.365,69.02H10.3A15.422,15.422,0,0,1,18.2,57.514Z" transform="translate(33.222 65.551)"/></g></svg>