<svg xmlns="http://www.w3.org/2000/svg" width="37.007" height="41.763" viewBox="0 0 37.007 41.763"><defs><style>.a,.b{fill:#fff;}.a{stroke:rgba(0,0,0,0);stroke-miterlimit:10;}</style></defs><g transform="translate(-217.859 -139.539)"><path class="a" d="M-1286.664-8071.444h-14.474a.863.863,0,0,1-.863-.861v-35.327a.864.864,0,0,1,.863-.863h19.817l8.1,8.1v10.656a12.511,12.511,0,0,0-2.068-.272v-8.231h-6.335a1.682,1.682,0,0,1-1.186-.49,1.7,1.7,0,0,1-.492-1.188v-6.508h-16.628v32.916h12.326a12.063,12.063,0,0,0,.94,2.066Zm5.084-34.385v5.863h5.863Zm-6.161,24.562h-7.882v-1.724h8.1v1.079c-.079.215-.152.432-.217.644Zm4.1-6.031h-11.979v-1.724h14.844a12.321,12.321,0,0,0-2.865,1.724Zm3.186-6.032h-15.165v-1.724h15.165v1.723Z" transform="translate(1520.359 8248.533)"/><g transform="translate(233.075 159.511)"><path class="b" d="M-1524.684-8247.214a10.785,10.785,0,0,1-2.247-.236,10.343,10.343,0,0,1-7.914-7.912,10.489,10.489,0,0,1,2.092-8.8,10.359,10.359,0,0,1,8.07-3.843,10.407,10.407,0,0,1,10.4,10.4A10.407,10.407,0,0,1-1524.684-8247.214Zm-5.661-7.055h0l-.793,3.11,3.112-.79Zm8.216-8.218h0l-7.7,7.7,2.32,2.319,7.7-7.7-2.32-2.321Zm1.839-1.574a.635.635,0,0,0-.45.185l-.923.926,2.322,2.317.921-.923a.622.622,0,0,0,.187-.444.631.631,0,0,0-.187-.452l-1.423-1.424A.624.624,0,0,0-1520.29-8264.061Zm-7.65,10.236h0l-.526-.529,6.706-6.709.529.529-6.708,6.709Z" transform="translate(1536.079 8269.005)"/></g></g></svg>