<svg xmlns="http://www.w3.org/2000/svg" width="48.306" height="42.78" viewBox="0 0 48.306 42.78"><defs><style>.a,.b{fill:#fff;}.a{stroke:rgba(0,0,0,0);stroke-miterlimit:10;}</style></defs><g transform="translate(0 -62.533)"><g transform="translate(25.012 82.02)"><path class="a" d="M-1447.767-8245.227a11.325,11.325,0,0,1-8.06-3.338,11.321,11.321,0,0,1-3.338-8.058,11.325,11.325,0,0,1,3.338-8.061,11.325,11.325,0,0,1,8.06-3.338,11.41,11.41,0,0,1,11.4,11.4A11.409,11.409,0,0,1-1447.767-8245.227Zm-.508-17.729a.774.774,0,0,0-.762.76v6.077a.775.775,0,0,0,.762.762h4.812a.768.768,0,0,0,.759-.762v-1.013a.765.765,0,0,0-.759-.757h-3.038v-4.308a.771.771,0,0,0-.761-.76Z" transform="translate(1459.164 8268.021)"/></g><g transform="translate(0 62.533)"><path class="b" d="M369.755,26.12h0a11.4,11.4,0,1,0-11.405-11.4A11.4,11.4,0,0,0,369.759,26.12Z" transform="translate(-349.497 -3.326)"/><path class="b" d="M377.106,20.72a13.47,13.47,0,0,1,.922-4.88,13.77,13.77,0,0,1-9.282-.791h-4.361a10.127,10.127,0,0,0-10.131,10.127v1.27a3.8,3.8,0,0,0,3.8,3.8h22.977A13.512,13.512,0,0,1,377.106,20.72Z" transform="translate(-354.254 10.163)"/></g></g></svg>