<svg xmlns="http://www.w3.org/2000/svg" width="80" height="80" viewBox="0 0 80 80"><defs><style>.a{fill:none;}.b{fill:#1451a1;}</style></defs><g transform="translate(-147 -77.688)"><rect class="a" width="80" height="80" rx="4" transform="translate(147 77.688)"/><path class="b" d="M22.315,25.9A12.851,12.851,0,0,0,35.066,12.951a12.753,12.753,0,1,0-25.5,0A12.851,12.851,0,0,0,22.315,25.9Zm8.926,3.238H29.577a17.1,17.1,0,0,1-14.524,0H13.389A13.5,13.5,0,0,0,0,42.739v4.209a4.821,4.821,0,0,0,4.782,4.857H32.167a4.93,4.93,0,0,1-.259-2.155l.677-6.162.12-1.123.787-.8,7.7-7.821A13.168,13.168,0,0,0,31.241,29.14Zm4.513,14.7-.677,6.172a1.6,1.6,0,0,0,1.753,1.781l6.067-.688L56.633,37.154,49.491,29.9ZM63.059,27.208l-3.776-3.835a2.361,2.361,0,0,0-3.367,0L52.151,27.2l-.408.415,7.153,7.255,4.164-4.229A2.464,2.464,0,0,0,63.059,27.208Z" transform="translate(158.123 92.894)"/></g></svg>