<svg xmlns="http://www.w3.org/2000/svg" xmlns:xlink="http://www.w3.org/1999/xlink" width="87" height="101.68" viewBox="0 0 87 101.68"><defs><style>.a,.d{fill:#09c;}.b,.e{fill:#fff;}.b,.d{stroke:#fff;}.b,.c{stroke-linejoin:round;stroke-width:3px;}.c{fill:none;stroke:#09c;}.d{stroke-width:2px;}.f{filter:url(#a);}</style><filter id="a" x="0" y="0" width="87" height="101.68" filterUnits="userSpaceOnUse"><feOffset dy="3" input="SourceAlpha"/><feGaussianBlur stdDeviation="3" result="b"/><feFlood flood-opacity="0.161"/><feComposite operator="in" in2="b"/><feComposite in="SourceGraphic"/></filter></defs><g transform="translate(-26.61 -304.82)"><g transform="translate(-147.752 212.067)"><ellipse class="a" cx="10.5" cy="4.5" rx="10.5" ry="4.5" transform="translate(207.362 178.933)"/><g class="f" transform="matrix(1, 0, 0, 1, 174.36, 92.75)"><path class="b" d="M250.862,100.253h-66v66h27.175l5.872,14.68,5.872-14.68h27.082Z" transform="translate(-174.36 -92.75)"/></g><path class="c" d="M248.383,163.72h-26.64l-3.834,12.292-4.268-12.292h-26.3V102.16h61.043Z"/></g><g transform="translate(49.9 304.99)"><path class="a" d="M19.392,309.328v3.232H13.268v-3.232H0v7.485A4.083,4.083,0,0,0,4.083,320.9h24.5a4.083,4.083,0,0,0,4.083-4.083v-7.485Z" transform="translate(0 -269.628)"/><path class="a" d="M154.8,24.39a1.038,1.038,0,0,1-1.057,1.021H141.058A1.039,1.039,0,0,1,140,24.39V22.349a1.04,1.04,0,0,1,1.058-1.021h12.685a1.039,1.039,0,0,1,1.057,1.021Z" transform="translate(-131.069)"/><path class="a" d="M149.454,109.188a1.02,1.02,0,0,1-1.021,1.021h-.085a1.021,1.021,0,0,1-1.021-1.021v-4.167A1.021,1.021,0,0,1,148.349,104h.085a1.02,1.02,0,0,1,1.021,1.021Z" transform="translate(-137.93 -77.398)"/><path class="a" d="M333.454,109.188a1.02,1.02,0,0,1-1.021,1.021h-.085a1.021,1.021,0,0,1-1.021-1.021v-4.167A1.021,1.021,0,0,1,332.349,104h.085a1.02,1.02,0,0,1,1.021,1.021Z" transform="translate(-310.193 -77.398)"/><path class="a" d="M28.578,154.672H4.083A4.083,4.083,0,0,0,0,158.755V162.5H13.268V159.6h6.124V162.5H32.661v-3.742A4.083,4.083,0,0,0,28.578,154.672Z" transform="translate(0 -124.838)"/><rect class="a" width="4.083" height="6.124" transform="translate(14.289 35.787)"/><g transform="translate(-80.165 -263.829)"><path class="d" d="M290.87,12.4a11.4,11.4,0,1,0,11.4,11.4,11.4,11.4,0,0,0-11.4-11.4Z" transform="translate(-176.044 290.254)"/><path class="e" d="M293.921,16.5a1.563,1.563,0,0,0-2.218,0l-4.953,4.882-2.223-2.227a1.573,1.573,0,0,0-2.221,2.227l3.331,3.331a1.579,1.579,0,0,0,2.225,0l6.059-5.994A1.559,1.559,0,0,0,293.921,16.5Z" transform="translate(-173.289 294.476)"/></g></g></g></svg>