<svg xmlns="http://www.w3.org/2000/svg" xmlns:xlink="http://www.w3.org/1999/xlink" width="87" height="101.68" viewBox="0 0 87 101.68"><defs><style>.a,.d{fill:#d24444;}.b{fill:#fff;stroke:#fff;}.b,.c{stroke-linejoin:round;stroke-width:3px;}.c{fill:none;stroke:#d24444;}.d{fill-rule:evenodd;}.e{filter:url(#a);}</style><filter id="a" x="0" y="0" width="87" height="101.68" filterUnits="userSpaceOnUse"><feOffset dy="3" input="SourceAlpha"/><feGaussianBlur stdDeviation="3" result="b"/><feFlood flood-opacity="0.161"/><feComposite operator="in" in2="b"/><feComposite in="SourceGraphic"/></filter></defs><g transform="translate(-112.555 -304.82)"><g transform="translate(-61.807 212.067)"><ellipse class="a" cx="10.5" cy="4.5" rx="10.5" ry="4.5" transform="translate(207.362 178.933)"/><g class="e" transform="matrix(1, 0, 0, 1, 174.36, 92.75)"><path class="b" d="M250.862,100.253h-66v66h27.175l5.872,14.68,5.872-14.68h27.082Z" transform="translate(-174.36 -92.75)"/></g><path class="c" d="M248.383,163.72h-26.64l-3.834,12.292-4.268-12.292h-26.3V102.16h61.043Z"/></g><g transform="translate(-151.255 119.573)"><path class="d" d="M300,225.7l6.754-6.754c.033-.377.1-1.214.128-1.563a9.319,9.319,0,0,0-12.2-9.687c2.469,2.469,8.16,6.2,4.212,10.143a4.058,4.058,0,0,1-5.93,0l-4.213-4.213a9.318,9.318,0,0,0,2.262,9.51c3.775,3.775,8.783,2.359,8.988,2.564Zm8.6,8.6,7.543,7.543a2.446,2.446,0,0,0,3.45,0l3.3-3.3a2.446,2.446,0,0,0,0-3.45l-7.543-7.543L308.6,234.3Zm7.924,2.716a1.747,1.747,0,1,0,1.747-1.747,1.747,1.747,0,0,0-1.747,1.747Z" transform="translate(0 0)"/><path class="d" d="M309.163,223.773l6.712,6.713-15.021,15.021a2.432,2.432,0,0,1-3.428,0l-3.285-3.284a2.432,2.432,0,0,1,0-3.428l15.022-15.022Zm2.381,5.08,1.294,1.294L299.183,243.8a.468.468,0,0,1-.661,0l-.633-.633a.469.469,0,0,1,0-.661l13.654-13.653Zm-2.316-2.427,1.294,1.294-13.654,13.654a.469.469,0,0,1-.661,0l-.633-.633a.469.469,0,0,1,0-.661l13.654-13.654Z" transform="translate(-1.257 -4.037)"/><path class="d" d="M321.741,215.078l10.532-6.987,1.546,1.546L326.362,219.7l-3.284,1.14-2.142,2.545-2.009-2.009,2.142-2.544.671-3.753Z" transform="translate(-7.478 -0.21)"/></g></g></svg>