<svg id="icon_bounding_boxes" data-name="icon bounding boxes" xmlns="http://www.w3.org/2000/svg" viewBox="0 0 20 20" width="20" height="20"><path d="M14.91,8.34,10,2,5.11,8.34a.39.39,0,0,0,.4.63l3-1.35A.36.36,0,0,1,9,7.73.37.37,0,0,1,9,8v2a4.64,4.64,0,0,1-2.45,4l-4.3,2.68a.5.5,0,0,0-.16.7h0l.52.84a.49.49,0,0,0,.69.16h0l4.32-2.68A6.63,6.63,0,0,0,11,10V8h0a.36.36,0,0,1,.54-.38L14.5,9A.4.4,0,0,0,15,8.72.41.41,0,0,0,14.91,8.34Z"/><path d="M5.51,9l3-1.35A.36.36,0,0,1,9,7.73.37.37,0,0,1,9,8H9v2a6.63,6.63,0,0,0,3.38,5.72l4.31,2.68a.5.5,0,0,0,.7-.16h0l.52-.84a.5.5,0,0,0-.16-.7h0L13.46,14A4.64,4.64,0,0,1,11,10V8a.37.37,0,0,1,.27-.43.36.36,0,0,1,.27,0L14.5,9A.4.4,0,0,0,15,8.72a.41.41,0,0,0-.08-.38L10,2,5.11,8.34a.39.39,0,0,0,.4.63Z"/></svg>