<svg xmlns="http://www.w3.org/2000/svg" width="50" height="50" viewBox="0 0 50 50"><defs><style>.a{fill:#09c;}.b,.c{fill:#fff;}.b{stroke:rgba(0,0,0,0);stroke-miterlimit:10;}</style></defs><g transform="translate(-37 -863)"><rect class="a" width="50" height="50" transform="translate(37 863)"/><g transform="translate(46.606 870.792)"><path class="b" d="M12.736,30.768H.717A.717.717,0,0,1,0,30.053V.716A.717.717,0,0,1,.717,0H17.173L23.9,6.728v8.849a10.383,10.383,0,0,0-1.717-.226V8.515H16.921a1.4,1.4,0,0,1-.985-.407,1.412,1.412,0,0,1-.409-.987v-5.4H1.719V29.051H11.954a10.007,10.007,0,0,0,.781,1.716ZM16.958,2.213V7.082h4.869Zm-5.116,20.4H5.3V21.18h6.726v.9c-.066.179-.126.358-.18.535Zm3.4-5.009H5.3V16.171H17.623A10.223,10.223,0,0,0,15.244,17.6Zm2.646-5.009H5.3V11.162H17.889v1.431Z" transform="translate(0 0)"/></g><path class="c" d="M8.634,17.269a8.635,8.635,0,1,1,8.633-8.635A8.644,8.644,0,0,1,8.634,17.269Zm-3.9-9.361a1.3,1.3,0,0,0-.923.38,1.315,1.315,0,0,0,0,1.849l2.766,2.768a1.312,1.312,0,0,0,1.846,0l5.033-4.979A1.3,1.3,0,0,0,12.531,5.7a1.282,1.282,0,0,0-.919.383L7.5,10.137,5.651,8.288A1.29,1.29,0,0,0,4.731,7.908Z" transform="translate(60.127 887.938)"/></g></svg>