<svg id="レイヤー_1" data-name="レイヤー 1" xmlns="http://www.w3.org/2000/svg" xmlns:xlink="http://www.w3.org/1999/xlink" width="595.22" height="842" viewBox="0 0 595.22 842">
  <rect x="36.22" y="237.435" width="522" height="35.52" style="fill: #ddd"/>
  <line x1="36.7" y1="169.575" x2="316.72" y2="169.575" style="fill: none;stroke: #000;stroke-linecap: round;stroke-linejoin: round;stroke-width: 0.059999998658895px"/>
  <line x1="36.7" y1="124.875" x2="316.72" y2="124.875" style="fill: none;stroke: #000;stroke-linecap: round;stroke-linejoin: round;stroke-width: 0.059999998658895px"/>
  <path d="M345.16,67.035H332.92v2.82h12.24Zm-12.24-.6h12.24v-2.58H332.92Zm-2.82-4.68,3.3,1.44h11.52l1.38-1.5,2.16,1.5a.875.875,0,0,1,.3.48c0,.12-.12.24-.3.36-.06.06-.3.18-.6.36,0,2.7.06,4.92.12,6.78,0,.24-.06.42-.18.48a4.07,4.07,0,0,1-1.98.3l-.42-.06a.551.551,0,0,1-.24-.36v-1.08H332.92v.78c-.06.24-.12.36-.24.42a3.9,3.9,0,0,1-1.86.24c-.36,0-.6-.06-.66-.24-.06-.06-.06-.18-.06-.36.06-1.68.12-3.66.12-5.94C330.22,64.1,330.16,62.9,330.1,61.755Zm15.36-9.78H340V54.5h5.46Zm-5.46-.66h5.46v-2.34H340Zm6.9,4.5h-.78a1.17,1.17,0,0,1-.48-.06.641.641,0,0,1-.18-.3V55.1H340v2.28h5.4c.48-.54.9-.96,1.2-1.26Zm1.14-4.5h.84l1.5-1.62c.72.6,1.44,1.26,2.1,1.92.06.06.12.12.12.18,0,.12-.12.18-.3.18h-4.26c0,.84,0,1.92.06,3.18a.4.4,0,0,1-.24.42,1.312,1.312,0,0,1-.54.18l2.4,1.92a.22.22,0,0,1,.06.18c0,.12-.06.18-.24.18H340v2.4h7.32l1.74-1.98,2.82,2.22.06.24q0,.18-.36.18H329.74a22.171,22.171,0,0,0-3.18.18l-.18-1.08a17.153,17.153,0,0,0,3.36.24h7.68v-2.4h-6.54a19.925,19.925,0,0,0-2.28.12l-.18-.96a14.24,14.24,0,0,0,2.46.18h6.54V55.1h-6.06a11.415,11.415,0,0,0-2.1.18l-.24-1.02a9.249,9.249,0,0,0,2.4.24h6v-2.52H328.9c-1.02,0-1.92.06-2.64.12l-.18-1.02a13.237,13.237,0,0,0,2.88.24h8.46v-2.34h-5.64a8.767,8.767,0,0,0-2.04.18l-.24-1.08a9.5,9.5,0,0,0,2.28.3h5.64c0-.84-.06-1.68-.12-2.58,1.5.12,2.58.24,3.24.3.36.06.54.24.54.42,0,.06-.12.18-.3.3-.12.06-.36.12-.78.3v1.26h5.22l1.44-1.44,1.92,1.38c.18.18.3.3.3.42s-.06.24-.24.42a5.274,5.274,0,0,0-.6.3Zm-46.5,3.06.18-.18a14.923,14.923,0,0,1,3.66,2.04,3.706,3.706,0,0,1,1.08,1.14,1.859,1.859,0,0,1,.3,1.02,2.59,2.59,0,0,1-.6,1.62c-.36.48-.72.72-1.02.72-.24,0-.42-.18-.6-.54a5.026,5.026,0,0,1-.36-1.02,15.915,15.915,0,0,0-1.32-3A13.486,13.486,0,0,0,301.54,54.375Zm12.3-6.96.06-.24a13.516,13.516,0,0,1,3.54,1.14,1.962,1.962,0,0,1,.84.66,1.916,1.916,0,0,1,.18.84,2.52,2.52,0,0,1-.36,1.26,1.044,1.044,0,0,1-.84.54c-.18,0-.36-.18-.54-.48-.12-.12-.42-.66-.96-1.56q-.63-.9-1.08-1.44C314.56,48.015,314.26,47.775,313.84,47.415Zm-4.26,14.22-.36.24c-.78.66-2.1,1.56-3.9,2.82-1.68,1.2-3.06,2.1-4.08,2.76a3.227,3.227,0,0,1-.06.96c-.06.24-.12.36-.3.36s-.3-.18-.48-.54c-.42-.9-.96-1.98-1.56-3.24a13.729,13.729,0,0,0,1.68-.48,72.784,72.784,0,0,0,8.58-3.48l.48-.24v-7.92h-8.04a14.256,14.256,0,0,0-2.34.18l-.24-1.08a11.783,11.783,0,0,0,2.58.24h8.04v-2.1c-.06-1.44-.12-2.7-.18-3.84.96.06,2.04.18,3.3.36.42.06.66.18.66.42,0,.18-.12.3-.42.42a3.85,3.85,0,0,1-.84.24v4.5h6.66l1.92-2.28,2.88,2.46a.548.548,0,0,1,.18.3c0,.12-.06.18-.24.18H312.22a18.57,18.57,0,0,0,2.58,6.48l.12-.18a24.535,24.535,0,0,0,2.22-2.64c.42-.6.78-1.14,1.08-1.56.06-.18.18-.42.36-.84,1.5.96,2.52,1.62,3,1.92.3.24.48.42.48.54s-.06.18-.18.24a.45.45,0,0,1-.3.06c-.18,0-.48-.06-1.02-.12a44.511,44.511,0,0,1-5.4,3.18,13.874,13.874,0,0,0,2.88,3.06,17.006,17.006,0,0,0,3.72,2.4,21.962,21.962,0,0,0,2.22.78l-.06.3a3.727,3.727,0,0,0-2.64,2.82,18.6,18.6,0,0,1-3.84-3.24,20.116,20.116,0,0,1-4.02-6.9,41.136,41.136,0,0,1-1.32-5.16v6.96l.18,7.98a3.76,3.76,0,0,1-.12.96,1.906,1.906,0,0,1-1.2,1.26l-1.2.36c-.42.06-.84.18-1.38.24a2.737,2.737,0,0,0-.3-1.26,1.309,1.309,0,0,0-.72-.66,16.525,16.525,0,0,0-3.42-1.08v-.3c1.92.06,3.66.12,5.16.18a.45.45,0,0,0,.3-.06c.12-.06.18-.18.18-.48Zm-32.82,1.62h-2.88v6.12h2.88Zm-5.34-2.04,2.7,1.44h2.46l1.26-1.44,1.92,1.44c.18.18.24.3.24.42s-.12.24-.3.42a3.827,3.827,0,0,1-.54.36c0,2.7.06,5.04.12,6.9,0,.24-.06.42-.18.48a3.612,3.612,0,0,1-1.74.24c-.18,0-.36,0-.42-.06a.467.467,0,0,1-.18-.42v-1.02h-2.88v1.26a.551.551,0,0,1-.24.36,4.426,4.426,0,0,1-1.68.18c-.18,0-.3,0-.36-.06a1.434,1.434,0,0,1-.18-.42c.06-1.8.12-3.72.12-5.82C271.54,64.1,271.48,62.655,271.42,61.215Zm-.18-1.68-.18-.9c.48.06,1.14.12,1.92.18h2.88l1.56-1.86c.78.6,1.56,1.26,2.34,1.92a1.014,1.014,0,0,1,.12.3l-.06.18a.22.22,0,0,1-.18.06h-6.66A14.863,14.863,0,0,0,271.24,59.535Zm.06-3.66-.24-.9a10.114,10.114,0,0,0,1.98.18h2.94l1.56-1.8,2.4,1.98.12.24c0,.12-.12.18-.3.18h-6.72C272.5,55.755,271.9,55.815,271.3,55.875Zm-.96-3.66-.18-.96a9.66,9.66,0,0,0,2.22.24h4.26l1.74-1.98,2.52,2.1a1.014,1.014,0,0,1,.12.3.159.159,0,0,1-.18.18h-8.58Zm1.08-3.78-.24-.9a8.329,8.329,0,0,0,1.92.18h2.82l1.74-1.86,2.4,2.1.12.24a.159.159,0,0,1-.18.18h-6.9Zm12.72,13.44h7.14V59.3h-7.14Zm0,3.3h7.14v-2.64h-7.14Zm7.14.6h-7.14v1.38c0,.6,0,1.92.06,3.96-.06.24-.12.42-.24.48a2.722,2.722,0,0,1-1.26.18h-.48l-.42-.06c-.12-.06-.18-.18-.18-.42.06-1.86.12-4.62.12-8.16,0-2.16-.06-4.14-.12-5.94a13.835,13.835,0,0,1,1.38.6c.24.12.72.42,1.38.84h6.6l1.32-1.38q1.08.72,1.98,1.44c.24.18.36.3.36.42s-.12.24-.3.42a4.22,4.22,0,0,1-.6.42v5.88c0,.48.06,1.62.12,3.42a2.114,2.114,0,0,1-.24,1.2c-.48.72-1.62,1.14-3.42,1.32a4.213,4.213,0,0,0-.36-1.14,1.95,1.95,0,0,0-.78-.78,16.147,16.147,0,0,0-2.28-.6V68.9c1.5.12,2.94.18,4.2.18.18,0,.3-.12.3-.36Zm-2.4-16.62h2.88l1.68-1.92,2.52,2.04a1.014,1.014,0,0,1,.12.3l-.06.12-.18.12h-6.96v2.64h2.46l1.56-1.74a24.5,24.5,0,0,1,2.34,1.86.652.652,0,0,1,.06.3l-.06.12a.22.22,0,0,1-.18.06h-6.18v2.82h3.42l1.74-1.92,1.32,1.08,1.2,1.02.12.24-.06.12-.12.06H282.7c-.96,0-1.74.06-2.4.12l-.18-.9q.72.09,2.52.18h3.72v-2.82h-2.88c-.96.06-1.62.06-1.92.12l-.18-.9c.42.06,1.14.12,2.1.18h2.88v-2.64h-3.6c-1.02.06-1.62.06-1.92.12l-.18-.96a11.414,11.414,0,0,0,2.22.18h3.48v-.72a15.506,15.506,0,0,0-.18-2.52q3.15.27,3.42.36a.306.306,0,0,1,.24.3c0,.18-.12.3-.3.42-.06.06-.3.12-.66.3Zm-25.92-2.7.18-.24a11.273,11.273,0,0,1,2.94.96,8.371,8.371,0,0,1,1.2.78,1.446,1.446,0,0,1,.42,1.08,3.247,3.247,0,0,1-.18,1.14c-.18.3-.36.42-.6.42-.18,0-.42-.24-.66-.66A10.123,10.123,0,0,0,262.96,46.455Zm-2.52,1.8.12-.24a10.784,10.784,0,0,1,3.18,1.38,6.377,6.377,0,0,1,1.14.96,1.434,1.434,0,0,1,.3.84,2.3,2.3,0,0,1-.3,1.14.819.819,0,0,1-.6.36c-.3,0-.54-.18-.72-.6A11.574,11.574,0,0,0,260.44,48.255Zm-13.74,12.3.42.06c-.06.54-.12,1.02-.12,1.38a4.264,4.264,0,0,0,1.98,4.02,9.178,9.178,0,0,0,4.74.96,16.005,16.005,0,0,0,5.7-.9,2.692,2.692,0,0,1,1.02-.24,2.908,2.908,0,0,1,1.86.72,1.544,1.544,0,0,1,.72,1.2c0,.54-.3.9-.96,1.14a17.634,17.634,0,0,1-2.88.48q-1.89.18-3.78.18c-3.18,0-5.46-.48-6.9-1.38a5.115,5.115,0,0,1-1.92-2.28,6.039,6.039,0,0,1-.48-2.34A8.571,8.571,0,0,1,246.7,60.555Zm.9-10.5.24-.24a5.484,5.484,0,0,0,1.62.9,11.035,11.035,0,0,0,2.64.3,19.5,19.5,0,0,0,3.06-.24c.78-.12,1.44-.24,1.92-.36.12-.06.42-.12.9-.3a1.752,1.752,0,0,1,.54-.12,2.4,2.4,0,0,1,1.26.42,2.293,2.293,0,0,1,1.02,1.14,1.171,1.171,0,0,1,.06.42.772.772,0,0,1-.66.78,6.587,6.587,0,0,1-1.62.36,44.674,44.674,0,0,0-8.1,2.7l-.18-.36c.66-.42,1.86-1.2,3.72-2.28l.54-.36a8.495,8.495,0,0,1-1.14.06,7.758,7.758,0,0,1-4.08-1.02A7.147,7.147,0,0,1,247.6,50.055Z"/>
  <text transform="translate(349.12 172.335)" style="font-size: 10.020000457763672px;font-family: MS-PMincho, MS PMincho;letter-spacing: 0.0020466877807485714em">〒</text>
  <text transform="translate(349.12 197.415)" style="font-size: 10.020000457763672px;font-family: MS-PMincho, MS PMincho;letter-spacing: -0.0020466877807485714em">TE<tspan x="12.211" y="0" style="letter-spacing: 0.11802566202316762em">L</tspan><tspan x="19.265" y="0">：</tspan></text>
  <text transform="translate(349.12 209.955)" style="font-size: 10.020000457763672px;font-family: MS-PMincho, MS PMincho;letter-spacing: 0.003021301009676463em">FAX：</text>
  <text transform="translate(349.12 222.495)" style="font-size: 10.020000457763672px;font-family: MS-PMincho, MS PMincho;letter-spacing: 0.0010720745518206802em">お客様<tspan x="30.09" y="0" style="letter-spacing: 0.0020466877807485714em">フ</tspan><tspan x="38.564" y="0">リーダイ</tspan><tspan x="71.64" y="0" style="letter-spacing: 0.0019492264578557825em">ヤ</tspan><tspan x="80.936" y="0" style="letter-spacing: 0.0009746132289278912em">ル：</tspan></text>
  <line x1="36.744" y1="662.235" x2="126.744" y2="662.235" style="fill: none;stroke: #000;stroke-linecap: square;stroke-linejoin: round;stroke-width: 1.01999998092651px"/>
  <line x1="189.617" y1="662.235" x2="279.617" y2="662.235" style="fill: none;stroke: #000;stroke-linecap: square;stroke-linejoin: round;stroke-width: 1.01999998092651px"/>
  <path d="M209.68,209.3a1.08,1.08,0,0,0-.9.42,1.141,1.141,0,0,0-.3.78,1.221,1.221,0,0,0,.36.9,1.434,1.434,0,0,0,.84.3,1.221,1.221,0,0,0,.9-.36,1.434,1.434,0,0,0,.3-.84,1.221,1.221,0,0,0-.36-.9,1.434,1.434,0,0,0-.84-.3m0-.42a1.511,1.511,0,0,1,1.2.54,1.446,1.446,0,0,1,.42,1.08,1.511,1.511,0,0,1-.54,1.2,1.446,1.446,0,0,1-1.08.42,1.511,1.511,0,0,1-1.2-.54,1.446,1.446,0,0,1-.42-1.08,1.511,1.511,0,0,1,.54-1.2A1.446,1.446,0,0,1,209.68,208.875Zm-8.22-.48.18.12a2.205,2.205,0,0,0-.3.96.967.967,0,0,0,.36.78,2.285,2.285,0,0,0,1.62.42,4.124,4.124,0,0,0,1.32-.18l.36-.12.42.12.18.18.06.18a.322.322,0,0,1-.18.24,3.633,3.633,0,0,1-1.68.24,4.668,4.668,0,0,1-1.74-.24,1.665,1.665,0,0,1-.9-.78,1.21,1.21,0,0,1-.18-.66A2.207,2.207,0,0,1,201.46,208.4Zm.12-1.86-.06-.18a4.829,4.829,0,0,1,.84-.54,4.754,4.754,0,0,1,1.74-.36,2.1,2.1,0,0,1,.96.18.38.38,0,0,1,.3.36.22.22,0,0,1-.06.18l-.24.12h-.36l-.48.12c-.12.06-.54.36-1.2.84l-.18-.18a6.689,6.689,0,0,0,.6-.54,4.505,4.505,0,0,1,.48-.42l.06-.06-.06-.06h-.36l-.96.12A6.156,6.156,0,0,0,201.58,206.535Zm-4.92-1.98.18-.12a1.764,1.764,0,0,0,.48.48,2.663,2.663,0,0,0,.78.12,6.718,6.718,0,0,0,1.32-.18l.18-.54a9.9,9.9,0,0,0,.3-1.38.353.353,0,0,0-.12-.3,1.242,1.242,0,0,0-.9-.3.475.475,0,0,1,.48-.3l.78.18a1.185,1.185,0,0,1,.66.36l.06.18-.12.24-.3.3a9.665,9.665,0,0,1-.48,1.38.8.8,0,0,1,.3-.06l.66-.3.3-.24.24-.12h.3l.36.06c.06.06.12.12.12.18a.312.312,0,0,1-.12.24,3.469,3.469,0,0,1-1.08.42,6.2,6.2,0,0,1-1.26.42c-.3.9-.54,1.74-.78,2.46-.66,1.74-1.02,2.82-1.14,3.12s-.24.42-.42.42a.33.33,0,0,1-.3-.18l-.06-.3v-.18c.06-.12.12-.3.24-.54a20.548,20.548,0,0,0,1.02-2.22c.3-.72.6-1.56.9-2.46a5.983,5.983,0,0,1-.96.12,2,2,0,0,1-.9-.18c-.18-.06-.3-.24-.48-.42A3.554,3.554,0,0,1,196.66,204.555Zm-3.24,3.84.18.18a5.9,5.9,0,0,1-1.02,1.32,5.136,5.136,0,0,1-1.98,1.38,3.646,3.646,0,0,1-1.5.36,2.392,2.392,0,0,1-1.44-.42,2.587,2.587,0,0,1-.78-1.14,8.425,8.425,0,0,1-.12-1.38,7.281,7.281,0,0,1,.06-1.08c0-.06,0-.66.06-1.8l.06-.42v-.36a7.081,7.081,0,0,0,.06-.96v-.66c0-.18,0-.36-.06-.42-.06-.3-.36-.54-.84-.6l.42-.18a2.074,2.074,0,0,1,.72.18,1.453,1.453,0,0,1,.66.48.548.548,0,0,1,.18.3.322.322,0,0,1-.18.24c-.06.12-.12.18-.12.24l-.06.36c-.06.24-.06.54-.12.96-.18,1.74-.3,3-.3,3.78a4.758,4.758,0,0,0,.12,1.02,1.173,1.173,0,0,0,.48.78,1.73,1.73,0,0,0,1.14.36,5.1,5.1,0,0,0,1.5-.3A6.47,6.47,0,0,0,193.42,208.4Zm-16.26,1.08-1.02-.12a2.734,2.734,0,0,0-1.32.24.811.811,0,0,0-.54.72c0,.3.18.48.48.66a2.923,2.923,0,0,0,.9.12,3.4,3.4,0,0,0,.96-.12.987.987,0,0,0,.48-.72A2.707,2.707,0,0,0,177.16,209.475Zm-3.84-5.52.18-.18a1.994,1.994,0,0,0,.66.48,2.408,2.408,0,0,0,.9.18h.18a10.78,10.78,0,0,0,1.86-.18v-.3a5.263,5.263,0,0,0-.06-1.26.385.385,0,0,0-.3-.3l-.48-.12-.18.06.18-.18a.775.775,0,0,1,.48-.12,1.972,1.972,0,0,1,1.02.24c.18.12.3.24.3.36a.322.322,0,0,1-.18.24l-.06.12-.12.42-.06.78.48-.12c.42-.06.72-.12,1.02-.18l.24-.06.12-.12.12-.06.3-.06a1.752,1.752,0,0,1,.54.12q.18.09.18.18a.38.38,0,0,1-.3.36c-.24.06-.72.18-1.44.3l-.36.06-.48.06-.42.06v.48a3.61,3.61,0,0,0,0,1.14v.24a5.7,5.7,0,0,0,1.98-.54l.36-.06.24.06c.12.06.18.12.18.24s-.12.18-.3.24a10.4,10.4,0,0,1-2.46.6,6.629,6.629,0,0,0,.06.96,3.455,3.455,0,0,0,.06.9,8.1,8.1,0,0,1,1.44.48,4.192,4.192,0,0,1,1.38.84.833.833,0,0,1,.3.6.312.312,0,0,1-.12.24c-.06.06-.12.12-.18.12l-.24-.06-.3-.3a5.529,5.529,0,0,0-2.28-1.38,1.491,1.491,0,0,1,.06.48,2.351,2.351,0,0,1-.12.78,1.419,1.419,0,0,1-.78.66,2.586,2.586,0,0,1-1.02.18,2.525,2.525,0,0,1-1.56-.42,1.139,1.139,0,0,1-.48-.9.994.994,0,0,1,.3-.72,2.877,2.877,0,0,1,2.28-.72l.72.06V207.2a4.541,4.541,0,0,1-.9.06h-.3a3.505,3.505,0,0,1-1.26-.18.865.865,0,0,1-.48-.78l.12-.42.18-.36.18.12-.18.54a.4.4,0,0,0,.24.42,1.686,1.686,0,0,0,.9.18,11.689,11.689,0,0,0,1.5-.12v-.42l-.06-.36V204.8c-.66.06-1.26.12-1.74.12a2.38,2.38,0,0,1-1.2-.24.933.933,0,0,1-.48-.36Zm-6,4.62a9.914,9.914,0,0,0,1.56-.42.33.33,0,0,0,.18-.3,3.266,3.266,0,0,0-.42-1.62,3.429,3.429,0,0,0-.66-.96,2.938,2.938,0,0,0-.9-.72l.12-.18a4.707,4.707,0,0,1,1.08.66,4.486,4.486,0,0,1,1.26,1.8,3.051,3.051,0,0,1,.24,1.2,1.086,1.086,0,0,1-.24.84l-.24.12-.3-.12a.467.467,0,0,0-.42-.18,9.018,9.018,0,0,0-1.2.12Zm-6.6-5.16.3-.06a1.321,1.321,0,0,1,.72.36c.36.3.54.54.54.78l-.06.36-.12.36a9.453,9.453,0,0,0-.18,1.68,4.707,4.707,0,0,0,.48,2.1l.36.48c.06.06.12.12.18.12s.12-.06.18-.12l.12-.24a24.735,24.735,0,0,1,1.5-2.82l.18.06a16.3,16.3,0,0,0-1.02,2.34,3.908,3.908,0,0,0-.24,1.08l.06.24a.652.652,0,0,1,.06.3.283.283,0,0,1-.3.3,1.042,1.042,0,0,1-.66-.36,4.764,4.764,0,0,1-1.38-3.78v-1.86a1.332,1.332,0,0,0-.06-.54,1.206,1.206,0,0,0-.24-.48Zm-6.36,1.8c.66.9,1.14,1.62,1.5,2.16a4.459,4.459,0,0,1,.48.96l.06.42q0,.54-.36.54l-.24-.12a1.641,1.641,0,0,0-.3-.24,2.4,2.4,0,0,0-.96-.6,6.762,6.762,0,0,0-1.92-.3,2.546,2.546,0,0,0-1.92.6,1.221,1.221,0,0,0-.36.9c0,.9.9,1.38,2.76,1.38a4.469,4.469,0,0,0,1.08-.12h.3l.54.12a.363.363,0,0,1,.18.36c0,.12-.12.24-.36.3a9.734,9.734,0,0,1-1.38.06,8.495,8.495,0,0,1-1.14-.06,4.649,4.649,0,0,1-1.38-.36,1.723,1.723,0,0,1-1.14-1.68,1.639,1.639,0,0,1,.48-1.14,3.272,3.272,0,0,1,1.02-.6,5.251,5.251,0,0,1,1.44-.18,7.769,7.769,0,0,1,2.76.54v-.06a21.313,21.313,0,0,0-1.68-2.76,10.117,10.117,0,0,1-2.34.36,3.213,3.213,0,0,1-1.44-.3l-.42-.42a1.1,1.1,0,0,1-.36-.48l.18-.18a2,2,0,0,0,.78.66,3.247,3.247,0,0,0,1.14.18,11.15,11.15,0,0,0,2.16-.24,11.71,11.71,0,0,0-.78-.9l-.66-.66-.54-.36-.06-.18.18-.3a1.28,1.28,0,0,1,.72-.18,3.869,3.869,0,0,1,1.2.18l-.06.24-.66-.06c-.24,0-.36.06-.36.12s.06.18.24.36a15.225,15.225,0,0,1,1.26,1.56,7.216,7.216,0,0,0,1.74-.72c-.54-.3-.9-.54-1.14-.66l.12-.24a5.6,5.6,0,0,0,.9.42l.54.12h.3l.24.06.12.18a.458.458,0,0,1-.12.3A9.207,9.207,0,0,1,154.36,205.215Zm2.88-3.72.18-.18a7.467,7.467,0,0,1,1.2.6.936.936,0,0,1,.48.78c0,.24-.06.36-.24.36a.306.306,0,0,1-.3-.24A3.113,3.113,0,0,0,157.24,201.5Zm-.96.78.12-.18a7.467,7.467,0,0,1,1.2.6,1.008,1.008,0,0,1,.42.48.652.652,0,0,1,.06.3.507.507,0,0,1-.12.36.22.22,0,0,1-.18.06c-.06,0-.18-.12-.3-.3A3.192,3.192,0,0,0,156.28,202.275Zm-18.18,4.86.24.12a2.285,2.285,0,0,0-.36,1.14,1.6,1.6,0,0,0,1.14,1.62,5.23,5.23,0,0,0,1.8.24,8.394,8.394,0,0,0,2.22-.24,2.067,2.067,0,0,1,.54-.06,1.014,1.014,0,0,1,.6.18.312.312,0,0,1,.12.24q0,.27-.36.36a11.3,11.3,0,0,1-1.38.18,6.534,6.534,0,0,1-1.14.06,6.318,6.318,0,0,1-2.76-.48,2.117,2.117,0,0,1-.96-1.08l-.18-.84A3.128,3.128,0,0,1,138.1,207.135Zm0-3.78.18-.18a2.205,2.205,0,0,0,.9.48,4.663,4.663,0,0,0,.96.12c.36,0,.84-.06,1.44-.12a4.526,4.526,0,0,0,.9-.24,1.526,1.526,0,0,1,.42-.12l.48.12a.38.38,0,0,1,.3.36c0,.06-.06.12-.24.18a3.662,3.662,0,0,1-.9.18,9.018,9.018,0,0,0-3.12,1.44l-.12-.18c.18-.18.54-.36.96-.66.24-.18.36-.24.42-.3l.24-.18a2.251,2.251,0,0,1-.6.06,2.783,2.783,0,0,1-1.26-.24A2.516,2.516,0,0,1,138.1,203.355Zm6.66-1.5.12-.18a4.331,4.331,0,0,1,1.2.54,1.022,1.022,0,0,1,.48.78c0,.3-.06.42-.24.42-.12,0-.24-.12-.3-.3a3.74,3.74,0,0,0-.54-.72Zm-1.02.72.12-.18a7.467,7.467,0,0,1,1.2.6,1.109,1.109,0,0,1,.42.54l.06.24a.507.507,0,0,1-.12.36l-.12.06a.306.306,0,0,1-.3-.24l-.6-.84ZM126.4,205.1a2.6,2.6,0,0,0,.24.66.681.681,0,0,0,.48.18l.3-.12a1.076,1.076,0,0,0,.48-.24l.18-.06a6.862,6.862,0,0,1,.96-.48,3.328,3.328,0,0,1,1.02-.18,2.072,2.072,0,0,1,1.08.3,2.469,2.469,0,0,1,.84,1.38l.12.9a4.029,4.029,0,0,1-1.38,3,8.574,8.574,0,0,1-1.2.84,4.02,4.02,0,0,1-1.08.42,7.826,7.826,0,0,1-.78.18l-.06-.24a5.519,5.519,0,0,0,1.56-.66,4.32,4.32,0,0,0,1.56-1.56,3.98,3.98,0,0,0,.6-2.22l-.06-.78a1.561,1.561,0,0,0-.6-1.02l-.54-.18a3.344,3.344,0,0,0-1.68.66c-.36.3-.66.54-.84.72a.434.434,0,0,1-.36.24.93.93,0,0,1-.66-.42,1.592,1.592,0,0,1-.3-.84A1.13,1.13,0,0,1,126.4,205.1Zm1.32-3.24a1.178,1.178,0,0,0,.78.54,2.907,2.907,0,0,0,1.08.18,1.85,1.85,0,0,0,.6-.06h.24l.48.12a.519.519,0,0,1,.18.36c0,.06-.06.12-.12.18a2.441,2.441,0,0,1-.6.12,8.028,8.028,0,0,0-2.52.9l-.12-.24a9.151,9.151,0,0,1,1.74-.84,2.549,2.549,0,0,1-1.02-.3,1.764,1.764,0,0,1-.9-.84Zm-12.78.42.3-.24h.36a1.73,1.73,0,0,1,1.14.36c.18.18.3.3.3.42l-.12.24-.18.3a5.7,5.7,0,0,1-.06.84,12.559,12.559,0,0,0-.06,1.44,1.723,1.723,0,0,0,.12.72l.18.12a1.663,1.663,0,0,0,.72-.3l1.02-.42a1.431,1.431,0,0,1,.72-.24.312.312,0,0,1,.24.12l.12.24a.363.363,0,0,1-.18.36,9.642,9.642,0,0,1-1.98.66h-.18a10.051,10.051,0,0,0-1.56,1.02,2.455,2.455,0,0,0-.78,1.08,1.752,1.752,0,0,0-.12.54,1.018,1.018,0,0,0,.54.96,3.239,3.239,0,0,0,1.5.24,11.9,11.9,0,0,0,2.1-.18,1.351,1.351,0,0,1,.42-.06l.3-.06a.867.867,0,0,1,.42.12.329.329,0,0,1,.24.36l-.12.24a4.55,4.55,0,0,1-1.08.18c-.66.06-1.14.12-1.56.12q-3.24,0-3.24-1.8a2.61,2.61,0,0,1,.96-1.98,5,5,0,0,1,1.32-.9.958.958,0,0,1-.54-.42l-.12-.48a3.973,3.973,0,0,1-.06-.9l.06-1.02v-.66c0-.24,0-.42-.06-.48Q115.84,202.275,114.94,202.275Zm-7.62,2.7.12-.18a4.536,4.536,0,0,1,1.32.6,4.041,4.041,0,0,1,1.14,1.32,2.52,2.52,0,0,1,.36,1.26c0,.36-.12.54-.42.54l-.24-.06-.18-.12h-.12a11.091,11.091,0,0,0-1.56.18v-.24a7.455,7.455,0,0,0,1.68-.54c.06,0,.06-.06.06-.12a5.025,5.025,0,0,0-.12-.6,6.8,6.8,0,0,0-.78-1.2,3.852,3.852,0,0,0-.78-.6A3.538,3.538,0,0,1,107.32,204.975Zm-3.9.24a8.3,8.3,0,0,0,.6-2.1.453.453,0,0,0-.24-.42l-.6-.3.06-.06a.353.353,0,0,1,.3-.12,2.641,2.641,0,0,1,.6.12,2.075,2.075,0,0,1,.72.42l.12.18a.22.22,0,0,1-.06.18l-.12.12-.12.12-.12.24a1.885,1.885,0,0,1-.24.72l-.3.78a3.656,3.656,0,0,1,1.02-.18,1.486,1.486,0,0,1,1.26.66,2.145,2.145,0,0,1,.24,1.14,7.544,7.544,0,0,1-.3,1.98,8.152,8.152,0,0,1-.66,1.68,1.8,1.8,0,0,1-1.38,1.02.451.451,0,0,1-.42-.3.519.519,0,0,0-.18-.36c-.18-.12-.6-.36-1.2-.72l.12-.24a6.451,6.451,0,0,0,1.92.84c.3,0,.66-.54,1.08-1.68a7.969,7.969,0,0,0,.36-1.8,3.443,3.443,0,0,0,.06-.72,1.5,1.5,0,0,0-.18-.78.818.818,0,0,0-.72-.3,3.776,3.776,0,0,0-1.2.24c-.54,1.26-1.02,2.22-1.32,2.88-.24.48-.54,1.02-.84,1.62a5.077,5.077,0,0,1-.6.9l-.24.12-.12-.06a.507.507,0,0,1-.12-.36v-.3c.06-.06.12-.18.24-.3a14.214,14.214,0,0,0,.96-1.44l.84-1.56a11.438,11.438,0,0,0,.6-1.38c-.66.18-1.14.36-1.32.42l-.3.12-.12.12-.24.06c-.18,0-.3-.12-.48-.3l-.36-.6-.06-.3.12-.24a1.1,1.1,0,0,0,.36.48.467.467,0,0,0,.42.18l.78-.12C102.7,205.335,103.12,205.275,103.42,205.215Zm5.7-2.76.12-.18a4.331,4.331,0,0,1,1.2.54,1.022,1.022,0,0,1,.48.78c0,.3-.06.42-.24.42a.306.306,0,0,1-.3-.24A2.985,2.985,0,0,0,109.12,202.455Zm-1.02.78.12-.18a3.229,3.229,0,0,1,1.2.6,1.008,1.008,0,0,1,.42.48l.06.3a.507.507,0,0,1-.12.36h-.18c-.06,0-.18-.06-.24-.24a2.821,2.821,0,0,0-.54-.72A2.4,2.4,0,0,0,108.1,203.235Zm-16.38,8.64-.06-.24a7.028,7.028,0,0,0,1.5-.72,5.3,5.3,0,0,0,1.02-.96,3.817,3.817,0,0,0,.78-1.56,4.474,4.474,0,0,0,.24-1.56,3.832,3.832,0,0,0-.42-2.04,1.081,1.081,0,0,0-.9-.66c-.42,0-.78.3-1.2.9a4.93,4.93,0,0,0-.66,1.5l-.3,1.08a1.351,1.351,0,0,0-.06.42l.12.42a.652.652,0,0,1,.06.3.312.312,0,0,1-.12.24l-.18.06c-.18,0-.36-.18-.54-.48a4.194,4.194,0,0,1-.24-1.62,11.853,11.853,0,0,1,.42-2.7,5.772,5.772,0,0,0,.24-1.26,1.014,1.014,0,0,0-.18-.6l-.36-.18-.3-.06.36-.18a1.341,1.341,0,0,1,.6.18,1.8,1.8,0,0,1,.6.54,1.014,1.014,0,0,1,.12.3.458.458,0,0,1-.12.3,1.149,1.149,0,0,0-.24.48,10.654,10.654,0,0,0-.72,3.24l.06.66a12.5,12.5,0,0,1,.84-2.34l.6-.96a1.654,1.654,0,0,1,.54-.42.9.9,0,0,1,.66-.24,1.5,1.5,0,0,1,1.08.48,3.458,3.458,0,0,1,.78,1.38,5.918,5.918,0,0,1,.18,1.44,4.87,4.87,0,0,1-.42,2.1,3.73,3.73,0,0,1-1.62,1.86,6.84,6.84,0,0,1-1.14.6C92.44,211.635,92.14,211.755,91.72,211.875Zm-11.46-5.16a8.837,8.837,0,0,0,.12,1.5c0,.06.06.3.12.66a15.361,15.361,0,0,0,1.2-1.56,6.156,6.156,0,0,0,.42-1.02,6.24,6.24,0,0,0-.9.12Zm-.48.18a6.338,6.338,0,0,0-1.38,1.02,2.315,2.315,0,0,0-.72,1.5.956.956,0,0,0,.24.72.363.363,0,0,0,.36.18c.42,0,.96-.36,1.74-1.02a8.22,8.22,0,0,1-.24-2.16Zm2.82-.6a3.6,3.6,0,0,1-.54,1.26,9.028,9.028,0,0,1-1.44,1.86l.24.48a2.446,2.446,0,0,1,.12.42l-.06.24a.312.312,0,0,1-.24.12.322.322,0,0,1-.24-.18,5.349,5.349,0,0,1-.3-.6l-.96.72a2.278,2.278,0,0,1-1.08.36.438.438,0,0,1-.42-.36,1.185,1.185,0,0,0-.36-.66.585.585,0,0,1-.24-.54,2.435,2.435,0,0,1,.3-1.02l.66-.78a3.805,3.805,0,0,1,1.38-.96l.36-.18c.06-.42.06-1.02.12-1.74l.06-.12a5.182,5.182,0,0,1-.9.06,1.5,1.5,0,0,1-.78-.18l-.42-.36-.3-.42.18-.12a1.883,1.883,0,0,0,.6.48,1.852,1.852,0,0,0,.66.12,7.832,7.832,0,0,0,1.02-.06l.06-.42c.06-.54.12-.9.12-.96q0-.45-.9-.54a.4.4,0,0,1,.42-.24,2.286,2.286,0,0,1,1.02.24c.3.12.42.24.42.42l-.12.24-.24.24a7.61,7.61,0,0,0-.24.9,12.441,12.441,0,0,0,1.56-.36,1.16,1.16,0,0,0,.54-.3l.54-.18c.42,0,.6.12.6.3a.312.312,0,0,1-.12.24,4.855,4.855,0,0,1-.9.3c-.6.18-1.38.36-2.28.54a9.024,9.024,0,0,0-.18,1.74l.78-.24a8.431,8.431,0,0,1,1.08-.12v-.06a1.526,1.526,0,0,0-.12-.42c-.06-.12-.24-.18-.42-.24l.24-.12a.762.762,0,0,1,.66.42l.12.42a5.136,5.136,0,0,1,1.38.3,2.648,2.648,0,0,1,1.32,1.08,2.594,2.594,0,0,1-.36,2.94,4.1,4.1,0,0,1-2.16,1.2,10.934,10.934,0,0,1-1.86.3v-.24a6.458,6.458,0,0,0,2.82-1.02,2.74,2.74,0,0,0,.96-1.26,4.631,4.631,0,0,0,.12-.9,1.868,1.868,0,0,0-.48-1.32,2.53,2.53,0,0,0-1.26-.66Z" style="fill: #222"/>
  <path d="M233.68,225.315a1.08,1.08,0,0,0-.9.42,1.141,1.141,0,0,0-.3.78,1.221,1.221,0,0,0,.36.9,1.434,1.434,0,0,0,.84.3,1.221,1.221,0,0,0,.9-.36,1.434,1.434,0,0,0,.3-.84,1.221,1.221,0,0,0-.36-.9,1.434,1.434,0,0,0-.84-.3m0-.42a1.511,1.511,0,0,1,1.2.54,1.446,1.446,0,0,1,.42,1.08,1.511,1.511,0,0,1-.54,1.2,1.446,1.446,0,0,1-1.08.42,1.511,1.511,0,0,1-1.2-.54,1.446,1.446,0,0,1-.42-1.08,1.511,1.511,0,0,1,.54-1.2A1.446,1.446,0,0,1,233.68,224.9Zm-8.88-2.7-.54.18a1.411,1.411,0,0,0-.36,1.02,1.173,1.173,0,0,0,.24.84.662.662,0,0,0,.6.3c.6,0,.9-.42.9-1.32a1.28,1.28,0,0,0-.18-.72A.86.86,0,0,0,224.8,222.2Zm-.3-3.96c.06-.18.24-.24.54-.24a2.055,2.055,0,0,1,1.08.24q.36.18.36.36l-.12.24-.18.12a8.934,8.934,0,0,1-.06,1.02l1.68-.12a2.085,2.085,0,0,0,.78-.06c.06,0,.12,0,.12-.06l.3-.06c.06,0,.24.06.48.12.42.18.6.42.6.6a.159.159,0,0,1-.18.18,1.491,1.491,0,0,1-.48-.06,6.913,6.913,0,0,0-1.8-.18,11.112,11.112,0,0,0-1.5.06,14.706,14.706,0,0,0-.06,1.8v.48a4.124,4.124,0,0,1,.3,1.44,3.167,3.167,0,0,1-.96,2.46,5.354,5.354,0,0,1-2.4,1.32l-.12-.24a6.359,6.359,0,0,0,1.26-.66,3.935,3.935,0,0,0,1.14-1.08,2.1,2.1,0,0,0,.36-.84,3.825,3.825,0,0,0,.12-.54l-.24.36a.956.956,0,0,1-.72.24,1.179,1.179,0,0,1-1.02-.54,1.73,1.73,0,0,1-.36-1.14,1.675,1.675,0,0,1,.48-1.2,1.119,1.119,0,0,1,.96-.42,1.153,1.153,0,0,1,.72.24v-1.62a14.7,14.7,0,0,0-3.66.78.519.519,0,0,1-.36.18.733.733,0,0,1-.54-.24,1.826,1.826,0,0,1-.48-.48.928.928,0,0,1-.18-.36l.06-.24a1.229,1.229,0,0,0,.9.54.89.89,0,0,0,.42-.06,5.2,5.2,0,0,0,.66-.06c.6-.12,1.14-.24,1.56-.3l.6-.06,1.02-.12a5.268,5.268,0,0,0-.06-1.32c0-.12-.12-.24-.3-.36A2.238,2.238,0,0,0,224.5,218.235Zm-11.34,7.26-1.02-.12a2.734,2.734,0,0,0-1.32.24.811.811,0,0,0-.54.72c0,.3.18.48.48.66a2.923,2.923,0,0,0,.9.12,3.4,3.4,0,0,0,.96-.12.987.987,0,0,0,.48-.72A2.707,2.707,0,0,0,213.16,225.5Zm-3.84-5.52.18-.18a1.994,1.994,0,0,0,.66.48,2.408,2.408,0,0,0,.9.18h.18a10.78,10.78,0,0,0,1.86-.18v-.3a5.263,5.263,0,0,0-.06-1.26.385.385,0,0,0-.3-.3l-.48-.12-.18.06.18-.18a.775.775,0,0,1,.48-.12,1.972,1.972,0,0,1,1.02.24c.18.12.3.24.3.36a.322.322,0,0,1-.18.24l-.06.12-.12.42-.06.78.48-.12c.42-.06.72-.12,1.02-.18l.24-.06.12-.12.12-.06.3-.06a1.752,1.752,0,0,1,.54.12q.18.09.18.18a.38.38,0,0,1-.3.36c-.24.06-.72.18-1.44.3l-.36.06-.48.06-.42.06v.48a3.61,3.61,0,0,0,0,1.14v.24a5.7,5.7,0,0,0,1.98-.54l.36-.06.24.06c.12.06.18.12.18.24s-.12.18-.3.24a10.4,10.4,0,0,1-2.46.6,6.629,6.629,0,0,0,.06.96,3.455,3.455,0,0,0,.06.9,8.1,8.1,0,0,1,1.44.48,4.192,4.192,0,0,1,1.38.84.833.833,0,0,1,.3.6.312.312,0,0,1-.12.24c-.06.06-.12.12-.18.12l-.24-.06-.3-.3a5.529,5.529,0,0,0-2.28-1.38,1.491,1.491,0,0,1,.06.48,2.351,2.351,0,0,1-.12.78,1.419,1.419,0,0,1-.78.66,2.586,2.586,0,0,1-1.02.18,2.525,2.525,0,0,1-1.56-.42,1.139,1.139,0,0,1-.48-.9.994.994,0,0,1,.3-.72,2.877,2.877,0,0,1,2.28-.72l.72.06v-1.74a4.541,4.541,0,0,1-.9.06h-.3a3.505,3.505,0,0,1-1.26-.18.865.865,0,0,1-.48-.78l.12-.42.18-.36.18.12-.18.54a.4.4,0,0,0,.24.42,1.686,1.686,0,0,0,.9.18,11.689,11.689,0,0,0,1.5-.12v-.42l-.06-.36v-1.08c-.66.06-1.26.12-1.74.12a2.38,2.38,0,0,1-1.2-.24.933.933,0,0,1-.48-.36Zm-9.3,1.02.18-.12a2.933,2.933,0,0,0,.66.42l.54.12a10.366,10.366,0,0,0,1.86-.3,10.385,10.385,0,0,0-.12-2.1.422.422,0,0,0-.24-.3l-.54-.12h-.24l.18-.18a1.827,1.827,0,0,1,1.56.12.306.306,0,0,1,.24.3v.12l-.12.12-.12.18v1.68a4.139,4.139,0,0,0,1.14-.42l.36-.06a.733.733,0,0,1,.54.18l.06.12-.12.24c-.12.06-.42.12-.84.24a6.329,6.329,0,0,1-1.14.3,3.732,3.732,0,0,0,.06.96v.96a5.065,5.065,0,0,1-.72,2.94,5.181,5.181,0,0,1-.84.78,5.7,5.7,0,0,1-1.02.6l-.72.24-.06-.18a7.094,7.094,0,0,0,1.08-.66,4.19,4.19,0,0,0,1.44-1.92q.09-.54.18-1.26a6.19,6.19,0,0,0,.06-1.14v-1.2a11.314,11.314,0,0,1-1.8.18,1.6,1.6,0,0,1-.72-.18,1.306,1.306,0,0,1-.48-.3A2.284,2.284,0,0,1,200.02,221Zm-.9,1.92.24.12c-.06.24-.18.54-.3.96l-.42,1.62c-.06.36-.12.6-.12.66l.06.42a.22.22,0,0,1,.06.18l-.06.24-.24.06c-.12,0-.24-.06-.42-.24a3.21,3.21,0,0,1-.36-.78,6.029,6.029,0,0,1-.42-2.46l.12-1.32c.06-.3.12-.72.24-1.32.06-.54.12-.96.12-1.2a1.85,1.85,0,0,0-.06-.6l-.24-.36-.24-.18.24-.06a1.119,1.119,0,0,1,.6.3,1.194,1.194,0,0,1,.48.72,2.36,2.36,0,0,1,.12.36.8.8,0,0,1-.18.48,1.119,1.119,0,0,0-.3.6,9.58,9.58,0,0,0-.42,2.7,4.384,4.384,0,0,0,.36,1.92.186.186,0,0,1,.06.12c.06,0,.06-.06.06-.12Zm6.3-5.52.18-.18a3.556,3.556,0,0,1,1.14.66,1.109,1.109,0,0,1,.42.54c.06.06.06.12.06.24,0,.3-.12.42-.3.42l-.24-.12a2.36,2.36,0,0,0-.12-.36A2.735,2.735,0,0,0,205.42,217.4Zm-1.02.72.18-.18,1.02.54a3.036,3.036,0,0,1,.48.54l.06.36c0,.3-.12.42-.3.42-.12,0-.24-.12-.3-.3A2.793,2.793,0,0,0,204.4,218.115Zm-15,9.18H193a7.966,7.966,0,0,1,.72-.96,10.755,10.755,0,0,1,1.14,1.08l.06.12c0,.06-.06.06-.12.06h-9.54l-1.02.06-.12-.48a8.2,8.2,0,0,0,1.14.12h3.42v-8.4l-.12-1.26a4.482,4.482,0,0,1,.66.12,4.243,4.243,0,0,1,.72.12l.06.12c0,.06-.06.12-.12.18s-.18.06-.48.12v3.6h2.82c.3-.36.48-.66.66-.84a6.4,6.4,0,0,1,1.14,1.08c0,.06,0,.06-.06.06H189.4Zm-7.98-2.88.18.18a5.9,5.9,0,0,1-1.02,1.32,5.136,5.136,0,0,1-1.98,1.38,3.646,3.646,0,0,1-1.5.36,2.392,2.392,0,0,1-1.44-.42,2.587,2.587,0,0,1-.78-1.14,8.425,8.425,0,0,1-.12-1.38,7.281,7.281,0,0,1,.06-1.08c0-.06,0-.66.06-1.8l.06-.42v-.36a7.081,7.081,0,0,0,.06-.96v-.66c0-.18,0-.36-.06-.42-.06-.3-.36-.54-.84-.6l.42-.18a2.074,2.074,0,0,1,.72.18,1.453,1.453,0,0,1,.66.48.548.548,0,0,1,.18.3.322.322,0,0,1-.18.24c-.06.12-.12.18-.12.24l-.06.36c-.06.24-.06.54-.12.96-.18,1.74-.3,3-.3,3.78a4.758,4.758,0,0,0,.12,1.02,1.173,1.173,0,0,0,.48.78,1.73,1.73,0,0,0,1.14.36,5.1,5.1,0,0,0,1.5-.3A6.47,6.47,0,0,0,181.42,224.415Zm-12.48-2.16h-3.42v2.04h3.42Zm0-2.34h-3.42v2.04h3.42Zm-7.32,2.04h3.24v-2.04h-3.24Zm0,2.34h3.24v-2.04h-3.24Zm0,.3v.54c0,.06-.06.12-.12.18s-.24.06-.48.06c-.06,0-.12-.06-.12-.18v-.36c.06-.78.06-1.86.06-3.12a12.7,12.7,0,0,0-.06-1.8,3.983,3.983,0,0,0-.06-.78l.9.48h3.12v-.78a9.379,9.379,0,0,0-.06-1.5,2.638,2.638,0,0,0,.54.06,2.5,2.5,0,0,1,.66.12l.06.12-.06.12a1.315,1.315,0,0,1-.48.18v1.68h3.36l.06-.12.18-.18.12-.18a3.183,3.183,0,0,1,.66.54l.12.24c0,.06-.12.12-.42.24v3.06l.06,1.56v.36a.22.22,0,0,1-.06.18c-.06.06-.24.06-.48.06a.159.159,0,0,1-.18-.18v-.6h-3.42v.36c0,1.14,0,2.22.06,3.24v.06c0,.06-.06.12-.12.18h-.66v-.36c.06-.72.06-1.86.06-3.48Zm-7.14-6.48c1.2.36,1.8.72,1.8,1.14l-.12.48-.12.06-.12-.06c-.06,0-.12-.06-.24-.24a6.689,6.689,0,0,0-.54-.6l-.78-.6Zm-4.86,3.18a5.174,5.174,0,0,1,1.14.66l.48.42.18.24.06.3a1.752,1.752,0,0,1-.12.54l-.24.12-.12-.06a3.117,3.117,0,0,0-.18-.3c-.06-.12-.12-.3-.24-.54a7,7,0,0,0-1.14-1.2Zm3.84-.18c.06.66.06,1.26.06,1.68.06.42.06,1.5.06,3.24v1.38a1.13,1.13,0,0,1-.12.48,3.207,3.207,0,0,1-.96.36l-.12-.3-.24-.18-.36-.12-.72-.12a1.056,1.056,0,0,1-.36-.06v-.18c.96.06,1.68.06,2.1.06h.12v-3.3l-.18.12c-.6.42-1.2.84-1.86,1.26-.48.3-1.08.6-1.86,1.02,0,.3,0,.48-.06.54l-.12.06h-.06a2.265,2.265,0,0,1-.3-.48l-.3-.66a9.7,9.7,0,0,0,1.56-.54,19.39,19.39,0,0,0,2.94-1.5l.24-.12v-3.24h-3.48a6.681,6.681,0,0,0-1.02.12l-.12-.54a10.578,10.578,0,0,0,1.14.12h3.48v-1.14a10.262,10.262,0,0,0-.06-1.56,4.659,4.659,0,0,1,1.14.18l.06.06a.22.22,0,0,1-.06.18c-.06.06-.24.06-.42.12l-.06,2.16h3.24a6.541,6.541,0,0,1,.66-.78,5.251,5.251,0,0,1,1.14,1.02c0,.06,0,.06-.06.06h-4.92a10.677,10.677,0,0,0,1.14,2.88l.18-.12a9.645,9.645,0,0,0,1.32-1.38l.42-.6a3.337,3.337,0,0,1,.48.24c.42.18.6.3.6.42,0,.06-.06.12-.24.12a1.351,1.351,0,0,1-.42-.06,9.832,9.832,0,0,1-2.22,1.56,9.426,9.426,0,0,0,3.66,2.88l-.06.18-.36.18-.24.42a8.369,8.369,0,0,1-1.32-.9A10.609,10.609,0,0,1,153.46,221.115Zm-17.1-3.24a5.983,5.983,0,0,0,.96.12h1.26l.48-.6.78.72.06.12c0,.06-.06.06-.12.06h-2.46a4.707,4.707,0,0,0-.84.12Zm-.6,1.74a5.983,5.983,0,0,0,.96.12h2.1l.54-.66c.3.3.6.54.78.72.06.06.12.12.12.18s-.06.06-.12.06h-3.42a6.885,6.885,0,0,0-.84.12Zm.6,1.62a6.24,6.24,0,0,0,.9.12h1.2a6.58,6.58,0,0,1,.48-.6l.84.72.06.06a.129.129,0,0,1-.12.12h-2.46a3.983,3.983,0,0,0-.78.06Zm.06,1.62a6.24,6.24,0,0,0,.9.12h1.08l.48-.6a4.549,4.549,0,0,1,.84.84c0,.06-.06.06-.12.06h-2.28a4.707,4.707,0,0,0-.84.12Zm5.22,1.38h3.18v-1.08h-3.18Zm3.18.3h-3.18v1.08h3.18Zm-3.18,1.38v.24l.06,1.56v.42c0,.06,0,.12-.06.12a.775.775,0,0,1-.48.12l-.12-.06v-.18c-.06,0-.06-.12,0-.3.06-.6.06-1.44.06-2.58a17.122,17.122,0,0,0-.06-2.16,3.443,3.443,0,0,0-.06-.72l.78.48h2.94l.12-.12c.06-.06.12-.18.24-.3.54.36.78.6.78.66s0,.06-.06.06a.977.977,0,0,1-.36.18v2.58l.06,1.02v.54a.507.507,0,0,1-.12.36.74.74,0,0,1-.48.3,1.312,1.312,0,0,1-.54.18c-.06-.18-.06-.3-.12-.36l-.18-.12-.3-.12c-.18,0-.42-.06-.84-.12v-.18h.54a10.714,10.714,0,0,0,1.26.06c.06,0,.12-.06.12-.18v-1.38Zm1.2-6.9h-1.56a5.983,5.983,0,0,0-.96.12l-.06-.54a7.659,7.659,0,0,0,1.02.12h1.56v-.54a4.541,4.541,0,0,0-.06-.9,2.067,2.067,0,0,0,.54.06,2.441,2.441,0,0,1,.6.12l.06.12a.129.129,0,0,1-.12.12.925.925,0,0,1-.42.18v.84h1.8c.24-.3.42-.54.6-.72a5.194,5.194,0,0,1,1.02.96c0,.06-.06.06-.12.06h-3.3v1.08h1.44l.54-.66a4.517,4.517,0,0,1,.96.9c0,.06-.06.06-.12.06h-2.82v1.2h2.04c.24-.3.42-.54.6-.72l.84.72.18.18a.129.129,0,0,1-.12.12h-5.82a5.182,5.182,0,0,0-.9.06l-.12-.48a7.659,7.659,0,0,0,1.02.12h1.68v-1.2h-1.32a4.707,4.707,0,0,0-.84.12l-.12-.54a8.218,8.218,0,0,0,.96.12h1.32Zm-5.7,8.34h1.68v-2.4h-1.68Zm0,.3v.42a.22.22,0,0,1-.06.18c-.06.06-.24.06-.48.06l-.06-.06c-.06-.06-.06-.12,0-.3V224.9a3.443,3.443,0,0,0-.06-.72l.72.42.06.06h1.5l.36-.42c.42.36.66.6.66.66v.06a.928.928,0,0,0-.36.18v2.58a.8.8,0,0,1,.06.3l-.06.12c-.06.06-.24.06-.48.06a.129.129,0,0,1-.12-.12v-.42Zm-11.04-4.5.24.12a2.285,2.285,0,0,0-.36,1.14,1.6,1.6,0,0,0,1.14,1.62,5.23,5.23,0,0,0,1.8.24,8.394,8.394,0,0,0,2.22-.24,2.067,2.067,0,0,1,.54-.06,1.014,1.014,0,0,1,.6.18.312.312,0,0,1,.12.24q0,.27-.36.36a11.3,11.3,0,0,1-1.38.18,6.534,6.534,0,0,1-1.14.06,6.318,6.318,0,0,1-2.76-.48,2.117,2.117,0,0,1-.96-1.08l-.18-.84A3.128,3.128,0,0,1,126.1,223.155Zm0-3.78.18-.18a2.205,2.205,0,0,0,.9.48,4.663,4.663,0,0,0,.96.12c.36,0,.84-.06,1.44-.12a4.526,4.526,0,0,0,.9-.24,1.526,1.526,0,0,1,.42-.12l.48.12a.38.38,0,0,1,.3.36c0,.06-.06.12-.24.18a3.662,3.662,0,0,1-.9.18,9.018,9.018,0,0,0-3.12,1.44l-.12-.18c.18-.18.54-.36.96-.66.24-.18.36-.24.42-.3l.24-.18a2.251,2.251,0,0,1-.6.06,2.783,2.783,0,0,1-1.26-.24A2.516,2.516,0,0,1,126.1,219.375Zm6.66-1.5.12-.18a4.331,4.331,0,0,1,1.2.54,1.022,1.022,0,0,1,.48.78c0,.3-.06.42-.24.42-.12,0-.24-.12-.3-.3a3.74,3.74,0,0,0-.54-.72Zm-1.02.72.12-.18a7.467,7.467,0,0,1,1.2.6,1.109,1.109,0,0,1,.42.54l.06.24a.507.507,0,0,1-.12.36l-.12.06a.306.306,0,0,1-.3-.24l-.6-.84Zm-16.02,9.3-.06-.24a7.028,7.028,0,0,0,1.5-.72,5.3,5.3,0,0,0,1.02-.96,3.817,3.817,0,0,0,.78-1.56,4.474,4.474,0,0,0,.24-1.56,3.832,3.832,0,0,0-.42-2.04,1.081,1.081,0,0,0-.9-.66c-.42,0-.78.3-1.2.9a4.93,4.93,0,0,0-.66,1.5l-.3,1.08a1.351,1.351,0,0,0-.06.42l.12.42a.652.652,0,0,1,.06.3.312.312,0,0,1-.12.24l-.18.06c-.18,0-.36-.18-.54-.48a4.194,4.194,0,0,1-.24-1.62,11.853,11.853,0,0,1,.42-2.7,5.772,5.772,0,0,0,.24-1.26,1.014,1.014,0,0,0-.18-.6l-.36-.18-.3-.06.36-.18a1.341,1.341,0,0,1,.6.18,1.8,1.8,0,0,1,.6.54,1.014,1.014,0,0,1,.12.3.458.458,0,0,1-.12.3,1.149,1.149,0,0,0-.24.48,10.654,10.654,0,0,0-.72,3.24l.06.66a12.5,12.5,0,0,1,.84-2.34l.6-.96a1.654,1.654,0,0,1,.54-.42.9.9,0,0,1,.66-.24,1.5,1.5,0,0,1,1.08.48,3.458,3.458,0,0,1,.78,1.38,5.918,5.918,0,0,1,.18,1.44,4.87,4.87,0,0,1-.42,2.1,3.73,3.73,0,0,1-1.62,1.86,6.84,6.84,0,0,1-1.14.6C116.44,227.655,116.14,227.775,115.72,227.9Zm-12.54-3.36a5.188,5.188,0,0,0-1.2.9q-.36.36-.36.54c0,.12.18.24.48.42a2.26,2.26,0,0,0,.84.24q.09,0,.18-.18a8.567,8.567,0,0,0,.06-1.5Zm.6-3c0,.12,0,.78-.06,1.98v.24c.48-.18.84-.36,1.14-.48a6.365,6.365,0,0,1,2.04-.36,2.625,2.625,0,0,1,1.74.54,1.935,1.935,0,0,1,.72,1.56,2.011,2.011,0,0,1-.78,1.74,2.488,2.488,0,0,1-1.5.48,1.675,1.675,0,0,1-1.32-.54,2.158,2.158,0,0,1-.48-.72c-.06-.18-.06-.42-.12-.72l.24-.06a2.1,2.1,0,0,0,.42.9,1.333,1.333,0,0,0,1.2.6,1.518,1.518,0,0,0,1.32-.66,2.072,2.072,0,0,0,.3-1.08,1.581,1.581,0,0,0-.84-1.5,2.408,2.408,0,0,0-.9-.18,5.623,5.623,0,0,0-2.04.42l-1.14.54v1.8a3.04,3.04,0,0,1-.12.78,1.119,1.119,0,0,1-.3.6l-.24.06-.24-.06a.828.828,0,0,1-.18-.24,3.134,3.134,0,0,0-.66-.48,3.84,3.84,0,0,0-.66-.36c-.18-.12-.3-.24-.3-.42,0-.24.24-.54.66-.96a7.7,7.7,0,0,1,1.56-.96v-2.34l-1.14.12-.66-.12-.42-.36-.24-.3.18-.18a2.77,2.77,0,0,0,.6.42l.42.06a6.237,6.237,0,0,0,1.26-.18v-1.98q-.09-.36-.72-.36h-.18l.18-.18.42-.12a1.629,1.629,0,0,1,1.02.36.306.306,0,0,1,.24.3l-.12.3-.18.3c-.06.3-.06.66-.12,1.2a2.507,2.507,0,0,0,.54-.18,1.831,1.831,0,0,0,.54-.3l.48-.18a.867.867,0,0,1,.42.12q.18.09.18.18c0,.12-.06.18-.18.24l-.66.24a8.542,8.542,0,0,1-1.26.42Zm3.3-1.92a5.539,5.539,0,0,1,1.5.3,1.958,1.958,0,0,1,.96.66,1.265,1.265,0,0,1,.3.66.312.312,0,0,1-.12.24c-.06.06-.12.12-.18.12h-.18l-.3-.12a8.662,8.662,0,0,0-1.5.42l-.06-.24a2.523,2.523,0,0,0,.3-.12c.54-.24.9-.42,1.02-.48.06-.06.12-.12.12-.18s-.06-.12-.18-.24a2.465,2.465,0,0,0-1.68-.78ZM90.94,218.3l.3-.24h.36a1.73,1.73,0,0,1,1.14.36c.18.18.3.3.3.42l-.12.24-.18.3a5.7,5.7,0,0,1-.06.84,12.559,12.559,0,0,0-.06,1.44,1.723,1.723,0,0,0,.12.72l.18.12a1.663,1.663,0,0,0,.72-.3l1.02-.42a1.431,1.431,0,0,1,.72-.24.312.312,0,0,1,.24.12l.12.24a.363.363,0,0,1-.18.36,9.642,9.642,0,0,1-1.98.66H93.4a10.051,10.051,0,0,0-1.56,1.02,2.455,2.455,0,0,0-.78,1.08,1.752,1.752,0,0,0-.12.54,1.018,1.018,0,0,0,.54.96,3.239,3.239,0,0,0,1.5.24,11.9,11.9,0,0,0,2.1-.18,1.351,1.351,0,0,1,.42-.06l.3-.06a.867.867,0,0,1,.42.12.329.329,0,0,1,.24.36l-.12.24a4.55,4.55,0,0,1-1.08.18c-.66.06-1.14.12-1.56.12q-3.24,0-3.24-1.8a2.61,2.61,0,0,1,.96-1.98,5,5,0,0,1,1.32-.9.958.958,0,0,1-.54-.42l-.12-.48a3.973,3.973,0,0,1-.06-.9l.06-1.02v-.66c0-.24,0-.42-.06-.48Q91.84,218.3,90.94,218.3Zm-10.02,1.44a4.408,4.408,0,0,0-3.12,2.28,3.266,3.266,0,0,0-.42,1.62,2.787,2.787,0,0,0,.36,1.38c.18.36.42.54.6.54.24,0,.54-.24.9-.66a16.326,16.326,0,0,0,.96-1.5,11.114,11.114,0,0,0,.84-2.34,4.431,4.431,0,0,0,.12-.72l-.12-.48a.186.186,0,0,0-.06-.12ZM80.74,227a6.968,6.968,0,0,0,1.74-.48,4.179,4.179,0,0,0,1.38-.78,3.6,3.6,0,0,0,1.26-2.88,3.131,3.131,0,0,0-.72-2.16,2.522,2.522,0,0,0-1.32-.84,4.568,4.568,0,0,0-1.26-.18h-.54a5.534,5.534,0,0,1,.3.48l.06.42a5.884,5.884,0,0,1-.42,1.86,8.5,8.5,0,0,1-.9,2.04c-.78,1.26-1.44,1.86-1.98,1.86a.63.63,0,0,1-.54-.3,2.478,2.478,0,0,1-.24-.54l-.24-.42-.18-.24a1.852,1.852,0,0,1-.3-.6l-.06-.72a4.013,4.013,0,0,1,.48-1.74,5,5,0,0,1,1.68-1.68,5.231,5.231,0,0,1,2.88-.84,4.9,4.9,0,0,1,2.1.48,3.789,3.789,0,0,1,1.68,1.68,4.581,4.581,0,0,1,.3,1.62,3.565,3.565,0,0,1-1.26,2.82,6.539,6.539,0,0,1-3.84,1.38Zm-16.2-8.94a5.983,5.983,0,0,0,.96.12h1.92c.12-.18.3-.36.54-.66a7.791,7.791,0,0,1,.84.72l.12.12v.06c0,.06-.06.06-.12.06H65.5a6.24,6.24,0,0,0-.9.12Zm-.54,1.68a6.681,6.681,0,0,0,1.02.12H67.9a4.376,4.376,0,0,1,.54-.66,6.087,6.087,0,0,1,.84.72l.12.12a.129.129,0,0,1-.12.12H65.02a5.182,5.182,0,0,0-.9.06Zm.6,1.62a5.983,5.983,0,0,0,.96.12h1.68c.18-.18.36-.42.6-.66.3.24.6.48.78.66.06.06.12.12.12.18s0,.12-.06.12H65.56a5.182,5.182,0,0,0-.9.06Zm0,1.62a5.983,5.983,0,0,0,.96.12h1.62c.18-.18.36-.42.6-.66.3.3.6.48.78.66.06.12.12.18.12.24s0,.06-.06.06H65.56a5.182,5.182,0,0,0-.9.06Zm.72,4.32h2.16v-2.28H65.32Zm0,.3v.42a.22.22,0,0,1-.06.18c-.06.06-.24.06-.42.06-.06,0-.12,0-.12-.06-.06-.06-.06-.12-.06-.3a16.4,16.4,0,0,0,.06-1.92v-1.02a2.472,2.472,0,0,1-.06-.72,6.327,6.327,0,0,1,.78.48h1.92l.42-.48.6.54c.06.06.12.12.12.18l-.06.06a.977.977,0,0,1-.36.18v1.62l.06.78v.24c0,.06,0,.12-.06.12a.775.775,0,0,1-.48.12c-.06,0-.12-.06-.12-.18v-.3Zm5.1-5.46H73.3v-3.42H70.6l-1.02.06-.12-.48a8.2,8.2,0,0,0,1.14.12h2.58a3.036,3.036,0,0,1,.48-.54l.12.12.54.54.12.12c0,.06,0,.06-.06.06a3.554,3.554,0,0,1-.36.24v4.02a.22.22,0,0,1-.06.18c-.06.06-.24.06-.48.06a.159.159,0,0,1-.18-.18v-.6h-3V227a.468.468,0,0,0,.24.24h2.82c.24-.06.36-.12.42-.24.06-.18.3-1.02.66-2.46l.24.06-.18,2.34.06.18.18.12c.18.06.24.12.24.18,0,.12-.06.18-.18.24a5.6,5.6,0,0,1-1.26.18H71.98a9.522,9.522,0,0,1-1.86-.12c-.3-.06-.48-.24-.48-.66V225.2a25.7,25.7,0,0,0-.06-2.76,4.251,4.251,0,0,0-.06-.84Zm-13.74-3.6h-3.6l-1.02.12-.12-.54a8.2,8.2,0,0,0,1.14.12h7.86q.27-.36.72-.9c.42.36.84.72,1.14,1.02l.06.12c0,.06-.06.06-.12.06H57.4v1.86l1.98.9a3.7,3.7,0,0,1,1.32.96,1.775,1.775,0,0,1,.12.6q0,.54-.18.54c-.06,0-.12,0-.12-.06q-.09,0-.36-.36a7.869,7.869,0,0,0-1.62-1.5c-.3-.24-.72-.48-1.14-.78v7.02l.06.3a.129.129,0,0,1-.12.12.864.864,0,0,1-.54.12l-.18-.06v-.48c.06-.9.06-1.86.06-2.82Z" style="fill: #222"/>
  <path d="M84.52,96.435l-3,3.54.24.18,3.12-3.72-3.12-3.72-.24.18,3,3.54m-9.36.66H78.7v2.34H75.16Zm2.46-3.18-.84,1.2L75.7,96.2c.06-.12,0-.24-.06-.42l-.48-.48a4.547,4.547,0,0,0-.96-.54l.48-.42.36-.42Zm1.02,3H75.22A9.624,9.624,0,0,0,76.9,95.6a9.379,9.379,0,0,0,1.2-1.62l.24-.06.12-.06-.48-.48-.36.3h-2.4l.24-.3a1.312,1.312,0,0,0,.18-.3h.24c.06,0,.06,0,.06-.06l-.66-.24a3.714,3.714,0,0,1-.66,1.02c-.3.36-.6.72-.9,1.02l-.96.78.06.12a2.478,2.478,0,0,0,.66-.42l.6-.48a3.882,3.882,0,0,1,.54.48l.48.48a5.534,5.534,0,0,1,.3.48l.12.06a8.586,8.586,0,0,1-1.44.96,6.639,6.639,0,0,1-1.62.72l.06.12a7.059,7.059,0,0,0,1.2-.42l1.08-.54v3a.458.458,0,0,0,.3-.12l.06-.06v-.3H78.7v.42a.45.45,0,0,0,.3-.06l.06-.12v-2.7l.24-.06.12-.06-.6-.42Zm-12.48,2.7.12-.06v-.12a7.651,7.651,0,0,0,1.02-.6l.72-.42-.06-.12-.84.36c-.3.12-.54.24-.72.3-.24.12-.42.18-.54.24Zm.36-2.64.24.3.24.36a1.526,1.526,0,0,1,.12.42l.18.06.12-.06.06-.24a.8.8,0,0,0-.18-.42,1.371,1.371,0,0,0-.72-.48Zm-.48-2.16h.24l.18-.18-.66-.42-.3.42h-.36v-1.62c.18,0,.24,0,.3-.06l.06-.12-.72-.06v1.86H63.52l.06.18h1.14a13.009,13.009,0,0,1-.48,1.8,7.583,7.583,0,0,1-.78,1.56l.12.12a3.4,3.4,0,0,0,.72-1.08,7.151,7.151,0,0,0,.48-1.2v4.08c.18,0,.24,0,.3-.06s.12-.06.06-.06v-3.84l.42.54a1.413,1.413,0,0,1,.3.6h.12l.06.06.12-.06a.22.22,0,0,0,.06-.18.733.733,0,0,0-.24-.54,2.522,2.522,0,0,0-.84-.6v-1.14Zm2.52,1.68h1.98c.12,0,.18,0,.24-.06l.12-.12-.6-.48-.3.42H68.56v-.9h1.5c.12,0,.18,0,.24-.06a.129.129,0,0,0,.12-.12l-.6-.42-.3.42h-.96v-.9h1.86c.12,0,.18,0,.24-.06l.12-.12-.6-.48-.36.42h-.66l.36-.48.3-.42h.12l.12-.06c.06,0,.06,0,.06-.06l-.66-.24-.24.6a2.218,2.218,0,0,1-.3.66H67.66l.12-.06a.22.22,0,0,0,.06-.18.8.8,0,0,0-.18-.48,2.08,2.08,0,0,0-.66-.48l-.12.06.24.3.24.42.12.36.06.06h-1.2l.06.24h1.8v.9H66.64l.06.18h1.5v.9H66.1l.06.24H68.2v3l-.06.12h-.96v.12a1.291,1.291,0,0,1,.6.12.353.353,0,0,1,.12.3c.18-.06.36-.06.42-.12l.18-.24a.45.45,0,0,0,.06-.3v-2.28a5.012,5.012,0,0,0,.48,1.14,3.158,3.158,0,0,0,.72.84c.24.18.54.36.84.54l.18-.18.18-.12v-.12A3.346,3.346,0,0,1,70,98.9l-.78-.72.6-.48a3.882,3.882,0,0,1,.54-.48h.24l.06-.06-.6-.36a2.77,2.77,0,0,1-.42.6l-.54.6-.3-.54a2.024,2.024,0,0,1-.24-.72ZM56.5,97.7l-.18-.12a5.191,5.191,0,0,0,1.02-.42l.96-.54.84.48,1.02.42-.18.18Zm3.06-2.64-.6.6a2.4,2.4,0,0,1-.72.6l-.78-.54-.66-.6.06-.06Zm1.32-.24.42-.36.3-.42.18-.06.12-.06-.54-.48-.24.3h-2.7v-.72l.3-.12.06-.12-.72-.06v1.02H55.6v-.42h-.18a1.13,1.13,0,0,1-.12.48.967.967,0,0,1-.24.42l-.36.18-.12.12-.06.12.06.18.18.06.36-.12a.614.614,0,0,0,.3-.36.681.681,0,0,0,.18-.48h5.52l-.18.48-.18.36Zm-4.5,3.06h3.66V99.5H56.38Zm3.24-3.06H57.1l.24-.24.18-.24c.12,0,.18,0,.24-.06l.12-.06-.66-.18-.6.78a5.181,5.181,0,0,1-.84.78,7.817,7.817,0,0,1-.9.6l.06.12a6.558,6.558,0,0,0,.9-.48l.84-.6.6.66a3.74,3.74,0,0,0,.72.54c-.54.3-1.08.6-1.68.9A18.032,18.032,0,0,1,54.4,98l.06.12c.3-.06.54-.12.78-.18l.78-.24v2.46a.8.8,0,0,1,.3-.06l.06-.12v-.24h3.66v.36a.45.45,0,0,0,.3-.06l.06-.06V98l.18-.06.12-.12-.3-.24,1.2.36.18-.18.18-.12.06-.06-1.8-.48a6.546,6.546,0,0,1-1.62-.66,4.131,4.131,0,0,0,.78-.66,3.438,3.438,0,0,0,.66-.66l.24-.06L60.4,95l-.48-.42Zm-11.94,3.96a.22.22,0,0,1-.18-.06l-.36-.3c-.12-.06-.24-.18-.42-.3l.3-.24.42-.3.36-.18v1.26c0,.06,0,.12-.06.12Zm2.88-3.9.42-.18.54-.06.3.06.24.12.06.12V95h-.06l-.42.24-.36.18.06.12.36-.12.3-.12h.36l.12.06a.212.212,0,0,0,.24-.24l-.18-.42a.551.551,0,0,0-.36-.24l-.48-.12-.66.06a2.444,2.444,0,0,0-.66.36Zm-1.2-.72-.18.18a1.288,1.288,0,0,1-.42.24l-.54.12a2.067,2.067,0,0,0,.06-.54l.06-.24.06-.12.06-.18-.12-.24-.24-.18-.36-.12-.24.06-.18.18.06.06a.455.455,0,0,1,.42.06.507.507,0,0,1,.12.36v.3l-.06.36v.3l-.48.12h-.6l-.24-.06-.3-.3-.12.18.24.3a1.014,1.014,0,0,0,.3.12l.42.06.3-.06.48-.06a2.251,2.251,0,0,1-.06.6V97.1l-.66.36-.54.3a2.36,2.36,0,0,1-.36.12h-.18l-.18.12v.18l.12.24a.312.312,0,0,0,.24.12l.12-.06.24-.24.42.36.36.3a.548.548,0,0,1,.18.3,1.014,1.014,0,0,1,.12.3l.06.24.12.06a.458.458,0,0,0,.3-.12l.06-.36v-.36l-.06-.36a1.661,1.661,0,0,0-.06-.54v-.84a13.236,13.236,0,0,1,1.26-.66,4.077,4.077,0,0,1,1.14-.18,3.04,3.04,0,0,1,.78.12,1.417,1.417,0,0,1,.54.48,1.5,1.5,0,0,1,.18.78,1.21,1.21,0,0,1-.18.66.651.651,0,0,1-.48.48,1.28,1.28,0,0,1-.72.18,1.173,1.173,0,0,1-.84-.24.994.994,0,0,1-.3-.72v-.3l.12-.3-.18-.06-.12.42-.06.48a1.752,1.752,0,0,0,.12.54.933.933,0,0,0,.48.36,1.5,1.5,0,0,0,.78.18,1.446,1.446,0,0,0,.9-.24,1.467,1.467,0,0,0,.66-.54,2,2,0,0,0,.3-.9,1.474,1.474,0,0,0-.3-.9,2.14,2.14,0,0,0-.66-.6,2.487,2.487,0,0,0-.96-.18,2.783,2.783,0,0,0-1.14.24,4.3,4.3,0,0,0-1.32.6V96.2l.06-.48V95l.66-.12.6-.18a.977.977,0,0,0,.36-.18.22.22,0,0,0,.18-.06v-.12q0-.09-.18-.18c-.06-.06-.24-.06-.42-.06Zm-5.7-1.44-3.12,3.72,3.12,3.72.24-.18-3-3.54,3-3.54Z" style="fill: #222"/>
  <path d="M78.52,147.135l-3,3.54.24.18,3.12-3.72-3.12-3.72-.24.18,3,3.54m-9.36.66H72.7v2.34H69.16Zm2.46-3.18-.84,1.2L69.7,146.9c.06-.12,0-.24-.06-.42l-.48-.48a4.547,4.547,0,0,0-.96-.54l.48-.42.36-.42Zm1.02,3H69.22a9.624,9.624,0,0,0,1.68-1.32,9.379,9.379,0,0,0,1.2-1.62l.24-.06.12-.06-.48-.48-.36.3h-2.4l.24-.3a1.312,1.312,0,0,0,.18-.3h.24c.06,0,.06,0,.06-.06l-.66-.24a3.714,3.714,0,0,1-.66,1.02c-.3.36-.6.72-.9,1.02l-.96.78.06.12a2.478,2.478,0,0,0,.66-.42l.6-.48a3.882,3.882,0,0,1,.54.48l.48.48a5.534,5.534,0,0,1,.3.48l.12.06a8.586,8.586,0,0,1-1.44.96,6.639,6.639,0,0,1-1.62.72l.06.12a7.059,7.059,0,0,0,1.2-.42l1.08-.54v3a.458.458,0,0,0,.3-.12l.06-.06v-.3H72.7v.42a.45.45,0,0,0,.3-.06l.06-.12v-2.7l.24-.06.12-.06-.6-.42Zm-9.24,1.62H61.36v-.78H63.4Zm-2.04-1.8H63.4v.78H61.36Zm1.86-1.08H61.36v-.96h1.86Zm-4.02-.96H61v.96H59.2Zm4.8,2.82h-.24v-.66a.22.22,0,0,0,.18-.06l.18-.06-.6-.48-.18.3H61.36v-.66h1.86v.18a.45.45,0,0,0,.3-.06l.06-.12v-1.08l.24-.06.12-.12-.6-.42-.18.24h-1.8v-.6h3.18c.12,0,.18,0,.24-.06l.12-.12-.66-.48-.36.42H61.36v-.54a.8.8,0,0,1,.3-.06c.06-.06.12-.12.12-.18l-.78-.06v.84H57.52l.06.24H61v.6H59.2l-.36-.18v1.98a.45.45,0,0,0,.3-.06l.06-.06v-.24H61v.66H58.42l.06.18H61v.78H57.46l.06.24H61v.78H58.42l.06.24H61v.66a.112.112,0,0,1,0,.18.22.22,0,0,1-.18.06H59.56v.12a2.707,2.707,0,0,1,.78.06c.18.06.3.12.24.3a3.825,3.825,0,0,0,.54-.12l.24-.24v-1.02H63.4v.54c.12,0,.18,0,.24-.06l.12-.06v-1.44h.84c.12,0,.18,0,.24-.06l.18-.12-.72-.48Zm-9.06,1.68H52.36v-5.1h2.88l.12-.18-.66-.42-.36.42H49.12l.06.18H52v5.1H48.52l.06.24h6.96c.12,0,.18,0,.24-.06l.18-.12-.72-.48Zm-8.28-6.48-3.12,3.72,3.12,3.72.24-.18-3-3.54,3-3.54Z" style="fill: #222"/>
  <path d="M152.44,254.655h3.06v-1.98h-3.06Zm0,2.4h3.06v-1.98h-3.06Zm0,2.46h3.06v-2.1h-3.06Zm-6.84,2.4h2.46v-2.88H145.6Zm.54-7.98-.72,1.08,1.56.42a12.094,12.094,0,0,0,.96-1.5Zm11.52-4.14c.18.18.18.3-.12.42h-2.76l-1.2,2.1h1.68l.72-.9,1.2,1.2c.3.42.18.66-.42.84v6.78l-.3.18c-.54.24-.84.24-.96-.06v-.48h-3.06v.48l-.3.18c-.54.3-.84.24-.96-.06v-8.94l1.38.78h.36l.3-2.1H150.1v-.36h5.4l1.02-.96Zm-3.78,11.58c.3.42.06.54-.72.48a9.828,9.828,0,0,1-3.48,1.62c-.3.06-.3-.06-.12-.24a12.829,12.829,0,0,0,3.18-2.7Zm.42-.84a5.945,5.945,0,0,1,3,1.14,1.08,1.08,0,0,1,.42.9q0,.72-.54.72c-.18.06-.36-.06-.54-.3-.06-.06-.24-.3-.54-.66a8.244,8.244,0,0,0-1.86-1.56C154.06,260.655,154.06,260.6,154.3,260.535Zm-7.14-8.4c.36.24.24.42-.42.48-.12.3-.24.6-.42.96h1.56l.6-.72,1.08,1.02c.3.36.18.54-.42.54A11.5,11.5,0,0,1,148,255.8a16.348,16.348,0,0,1,1.92,1.2,1.651,1.651,0,0,1,.78,1.26c0,.42-.18.6-.54.6-.12.06-.36-.12-.72-.48a10.379,10.379,0,0,0-1.98-1.74,16.115,16.115,0,0,1-2.04,1.98l.3.06h2.22l.6-.72,1.2,1.14c.3.42.18.72-.42.84v2.64l-.3.18c-.54.24-.84.24-.96-.06v-.42H145.6v.54l-.3.18c-.48.24-.78.24-.9-.06v-3.72a6.878,6.878,0,0,1-1.56.84c-.24.06-.3-.06-.12-.24a13.555,13.555,0,0,0,3.84-3.78l-1.38-.72a12.956,12.956,0,0,1-2.04,2.22c-.36.18-.48.12-.3-.18a16.067,16.067,0,0,0,2.82-5.64Zm.66-3.36q.81.36-.18.72v1.62h1.68l.54-.78,1.14,1.14c.3.36.06.6-.6.66l-1.26.9c-.3.18-.36.12-.18-.24l.48-1.32h-4.86a2.962,2.962,0,0,1-.18,1.5,1.342,1.342,0,0,1-1.08.66c-.36,0-.6-.12-.66-.42a.839.839,0,0,1,.3-.84,3.177,3.177,0,0,0,1.14-1.86c.06-.3.18-.36.3-.06l.12.66h1.86V248.6Zm-16.92,10.26a2.287,2.287,0,0,1,.78,1.62.956.956,0,0,1-.24.72,1.014,1.014,0,0,1-.6.18c-.42,0-.66-.24-.72-.78a2.91,2.91,0,0,0-.3-1.2,4.9,4.9,0,0,0-.72-1.2c-.18-.18-.12-.24.06-.24A3.429,3.429,0,0,1,130.9,259.035Zm8.16-.42c.48.3.3.48-.48.66l-1.74,2.04c-.3.24-.42.18-.36-.12a21.451,21.451,0,0,0,1.02-3.48Zm-4.02-9.66c.48.24.36.42-.3.54q2.07,3.51,7.02,4.5a3.561,3.561,0,0,0-1.38,1.56,11.9,11.9,0,0,1-5.88-5.88,17.57,17.57,0,0,1-7.26,6.66c-.3.06-.36,0-.18-.24a17.192,17.192,0,0,0,6.3-7.8Zm2.76,5.46c.18.18.12.3-.12.48h-2.94v2.22h3.54l1.02-1.02,1.2.96c.18.18.12.3-.12.42h-5.64v4.44h4.02l1.26-1.26,1.44,1.2c.18.18.12.3-.06.42H127v-.36h6.3v-4.44h-5.88v-.36h5.88V254.9h-2.4v-.42h4.68l1.02-.96Zm-25.02,6.66h2.34v-2.94h-2.34Zm4.02-11.22c.18.12.12.24-.12.3H111.7v-.36h3.48l.72-.66Zm.78,1.86c.18.18.12.36-.12.48H111.1v-.42h4.32l.96-.96Zm-.78,2.16c.18.12.12.24-.12.3H111.7v-.36h3.48l.72-.72Zm0,1.98c.18.12.12.24-.12.3H111.7v-.36h3.48l.72-.66Zm0,2.22c.36.42.24.66-.42.78v3.48l-.3.24c-.54.24-.84.24-.96-.06v-1.08h-2.34v1.5l-.3.18c-.54.24-.84.24-.96-.06v-6l1.38.66h1.98l.78-.84Zm5.1-9.36c.78.3.84.6.06.96v4.98h1.38l1.08-1.2,1.38,1.14c.18.18.24.36.18.48h-4.02v7.74l-.3.18c-.66.24-1.02.24-1.14,0v-7.92H117.1v-.42h3.42V248.6Zm-23.1,13.2h6.48v-3.6H98.8Zm6.78-6.9c.18.18.12.3-.12.42H98.32v-.36h5.04l1.02-1.02Zm1.56,3.18c.36.48.24.72-.42.78v3.9l-.3.18c-.6.24-.96.24-1.14,0v-.78H98.8v.9l-.3.18c-.66.24-1.02.24-1.14,0v-6.24l1.68.84h6l.84-1.02Zm-4.32-9.24c.42.3.36.48-.24.66a14.876,14.876,0,0,0,7.26,5.52,1.631,1.631,0,0,0-.96.48l-.66.72a15.491,15.491,0,0,1-6-6.3c-2.1,3.42-4.56,5.76-7.38,6.9-.18,0-.24-.06-.12-.18a17.067,17.067,0,0,0,6.36-8.28Zm-21.36,8.7a2.8,2.8,0,0,0-.96,1.98.477.477,0,0,0,.54.54,1.146,1.146,0,0,0,.72-.42,13.562,13.562,0,0,0,1.8-3.18A3.916,3.916,0,0,0,81.46,257.655Zm5.4-8.22a3.374,3.374,0,0,1,1.08.78c.18.3,0,.48-.42.6q-1.08,2.07-2.52,5.04a15.5,15.5,0,0,1,4.56.96c.18-.9.36-1.68.42-2.34,0-.3-.24-.54-.66-.72-.18-.06-.18-.18,0-.3a1.215,1.215,0,0,1,.84-.24,5.779,5.779,0,0,1,1.38.96c.3.3.24.54-.18.78l-.6,2.22c.96.42,1.74.78,2.28,1.08a1.044,1.044,0,0,1,.6.66,1.348,1.348,0,0,1-.18,1.08.453.453,0,0,1-.48.06,27.309,27.309,0,0,0-2.58-1.68,9.089,9.089,0,0,1-4.02,4.8c-.18.06-.18,0-.12-.18a10.224,10.224,0,0,0,3.06-5.1,13.405,13.405,0,0,0-4.62-1.32,21.58,21.58,0,0,1-2.46,4.08,1.252,1.252,0,0,1-1.02.6,1.586,1.586,0,0,1-1.26-.6,1.316,1.316,0,0,1-.42-1.02,3.1,3.1,0,0,1,.96-2.22,6.07,6.07,0,0,1,3.36-1.56c.66-1.62,1.32-3.18,1.86-4.68,0-.12-.06-.18-.18-.12-.78.3-1.5.54-2.1.72l-.36.36a.469.469,0,0,1-.66,0,3.532,3.532,0,0,1-1.2-1.62l.18-.48c.18-.18.24-.12.24.06a1.051,1.051,0,0,0,1.02.66,9.623,9.623,0,0,0,3.18-.9l.48-.36A.385.385,0,0,1,86.86,249.435Zm-22.38-.18q2.7.45,2.7,2.16c0,.66-.3.96-.84.96-.3,0-.54-.24-.66-.78a3.286,3.286,0,0,0-1.32-2.16C64.18,249.255,64.18,249.2,64.48,249.255Zm9.42.48c.54.48.42.72-.24.78a.545.545,0,0,0-.48.6v.66c0,2.94,1.8,5.46,5.4,7.5a3.373,3.373,0,0,0-1.68,1.14,11.661,11.661,0,0,1-4.08-6.36,9.205,9.205,0,0,1-4.68,6.18c-.18,0-.24-.06-.06-.18a11.2,11.2,0,0,0,3.42-7.5l1.2.48a12.409,12.409,0,0,1-.12-1.74v-1.14H69.1v-.36h3.18l.72-1.02Zm-6.36,6c.42.54.3.78-.36.84v3.84a7.317,7.317,0,0,0,4.5,1.2h3.9a21.955,21.955,0,0,0,3.12-.24,3.276,3.276,0,0,0-1.08,1.44H70.9a6,6,0,0,1-4.26-2.16l-1.5,1.68c0,.78-.24.9-.78.36l-.96-.96,2.34-1.2v-4.68h-2.1v-.36H65.5l.78-1.02ZM55,256.7h4.62v-3.24H55Zm-.9-7.68c1.68.72,2.52,1.62,2.52,2.64,0,.72-.24,1.08-.78,1.08-.3,0-.54-.36-.66-1.08a5.235,5.235,0,0,0-1.2-2.46C53.8,249.015,53.8,248.955,54.1,249.015Zm-1.02.72c.18.3-.06.48-.6.42-.48.18-1.02.36-1.56.54v2.82h.24l1.02-1.02,1.14.96c.18.18.18.3-.12.42H50.92v1.98c1.38.3,2.1.9,2.1,1.74,0,.54-.24.84-.72.84-.3,0-.48-.3-.54-.84a3.51,3.51,0,0,0-.84-1.44v6.78l-.3.18c-.54.24-.84.24-.96-.06v-5.1a11.154,11.154,0,0,1-2.1,2.52q-.45.18-.18-.18a13.236,13.236,0,0,0,2.28-6.42h-2.4v-.36h2.4V251c-.66.18-1.44.3-2.28.48-.3,0-.3-.06-.12-.18a22.878,22.878,0,0,0,4.8-2.64Zm7.2-.06c.36.24.24.48-.36.66l-1.8,2.7h1.2l.78-.84,1.2,1.14c.3.42.18.72-.48.84v3.78l-.3.18c-.48.24-.78.24-.9-.06v-1.02h-.78v4.44a.129.129,0,0,0,.12.12,5.76,5.76,0,0,0,1.44,0,.833.833,0,0,0,.6-.3c.18-.54.42-1.14.66-1.8q.18-.36.18,0l-.12,1.74a.458.458,0,0,0,.12.3l.36.42a.657.657,0,0,1,0,.48,1.372,1.372,0,0,1-.84.36,24.972,24.972,0,0,1-3,0,.794.794,0,0,1-.78-.78v-4.98h-.66c.06,3.42-1.56,5.46-4.86,6.24q-.36,0,0-.18a5.749,5.749,0,0,0,3.24-3.36,9.788,9.788,0,0,0,.36-2.7H55v1.02l-.36.18c-.48.24-.78.24-.9-.06v-5.82l1.38.66h2.46a22.644,22.644,0,0,0,1.08-4.14Z"/>
  <path d="M488.68,263.655a2.387,2.387,0,0,1-.72-.96,8.032,8.032,0,0,1-.48-1.56,7.84,7.84,0,0,1-.24-2.22,8.394,8.394,0,0,1,.24-2.22,7.364,7.364,0,0,1,.48-1.5,3.137,3.137,0,0,1,.72-1.02l-.18-.24-.72.72-.54.84a4.307,4.307,0,0,0-.54,1.62l-.18,1.8a6.8,6.8,0,0,0,.24,2.04,8.1,8.1,0,0,0,.48,1.44,8.5,8.5,0,0,0,.66.96,4.377,4.377,0,0,0,.6.54l.18-.24"/>
  <path d="M532.06,259.035a3.828,3.828,0,0,1-.78,1.32,1.25,1.25,0,0,1-.9.42.363.363,0,0,1-.36-.18,1.13,1.13,0,0,1-.12-.48,1.813,1.813,0,0,1,.3-.96,3.363,3.363,0,0,1,.9-.6,3.917,3.917,0,0,1,1.2-.3l-.12.42-.12.36m3.36-2.76.12-.06h.06a.507.507,0,0,1,.36.12l.18.18v.24l-.12.96-.12.78-1.38-.42-1.56-.18.3-.9.24-.84.18-.6.18-.48.18-.12.12-.12a.22.22,0,0,0,.06-.18c0-.06-.06-.12-.12-.24l-.36-.18-.36-.12-.24.12a1.312,1.312,0,0,1-.3.18l-.42.12-.48.12-.48.06-.3.06a.652.652,0,0,1-.3-.06l-.24-.18a.507.507,0,0,1-.12-.36h-.06l-.12.18-.12.24a.545.545,0,0,0,.18.42l.3.3.36.12a.45.45,0,0,0,.3-.06l.3-.12.3-.18.48-.12.42-.12.24-.06.06.06v.06a1.93,1.93,0,0,1-.06.48l-.18.78-.24.96a6.228,6.228,0,0,1-.24.78,6.348,6.348,0,0,0-1.68.36,3.639,3.639,0,0,0-1.02.84,1.405,1.405,0,0,0-.42,1.02,1.775,1.775,0,0,0,.12.6.933.933,0,0,0,.36.48l.6.18a2.1,2.1,0,0,0,.84-.36,3.208,3.208,0,0,0,.78-.78l.48-.96.18-.54.18-.48,1.5.24a7.343,7.343,0,0,1,1.38.6,2.814,2.814,0,0,1-.54,1.32,3.929,3.929,0,0,1-.9,1.08,4.316,4.316,0,0,1-1.26.72l.12.18a3.956,3.956,0,0,0,2.04-1.08,5.006,5.006,0,0,0,1.08-1.92l.54.36.36.3c.12.12.24.18.3.24l.24.12c.06,0,.12-.06.18-.12a.312.312,0,0,0,.12-.24.8.8,0,0,0-.18-.42l-.42-.36-.48-.3-.48-.24c.06-.24.12-.54.18-.84l.18-.78v-.18l.12-.12.06-.12.06-.18a.548.548,0,0,0-.18-.3l-.36-.24-.54-.06-.36.06-.18.24Zm-14.64,1.08-.42.48h-1.38l.06.3h1.5v3l-.9.48-.72.36.48.84.12-.12v-.12c.12-.12.3-.24.48-.42l.54-.48.48-.54a2.354,2.354,0,0,0,.78.9,2.614,2.614,0,0,0,1.02.42,11.019,11.019,0,0,0,1.56.12h3.42l.18-.36a.551.551,0,0,1,.36-.24v-.12a9.29,9.29,0,0,1-1.32.06h-2.64a11.112,11.112,0,0,1-1.5-.06,2.57,2.57,0,0,1-.96-.3,1.831,1.831,0,0,1-.78-.6v-2.7l.36-.06.12-.12Zm-1.56-3.42.54.54.48.66a1.413,1.413,0,0,1,.3.6l.18.12h.12l.24-.12a.458.458,0,0,0,.12-.3.968.968,0,0,0-.18-.54,1.8,1.8,0,0,0-.6-.54,3.04,3.04,0,0,0-1.08-.48Zm9.12,6.48a5.534,5.534,0,0,1-1.56-1.32,7.252,7.252,0,0,1-1.2-1.8,12,12,0,0,1-.66-2.22v-.42a1.13,1.13,0,0,0,.48-.12c.18-.06.24-.06.3-.12l-.84-.66-.3.48h-1.68l.06.24h1.68v.66a9.821,9.821,0,0,1-.6,2.28,8.308,8.308,0,0,1-1.2,1.98,7.109,7.109,0,0,1-1.5,1.5l.12.12a6.617,6.617,0,0,0,1.5-1.14,6.311,6.311,0,0,0,1.2-1.62,6.455,6.455,0,0,0,.78-1.74l.42,1.32.66,1.26.78,1.08.96.84a.551.551,0,0,1,.24-.36l.3-.12Zm-14.16-1.5a6.626,6.626,0,0,1-.72,2.46,3.93,3.93,0,0,1-1.5,1.32l.12.12a3.185,3.185,0,0,0,1.74-1.14,4.7,4.7,0,0,0,1.02-2.34l.24-.06c.06,0,.06-.06.06-.12Zm-1.68-2.1c.18,0,.24,0,.3-.06l.18-.18-.78-.6-.42.6h-.42v-2.04l.48-.12.42-.18a.652.652,0,0,0,.3.06h.12l.06-.06-.84-.66c-.18.12-.48.3-.78.48l-1.02.48c-.42.18-.78.3-1.08.42l.06.18.78-.18.84-.18v1.8h-1.68l.06.24h1.44a21.445,21.445,0,0,1-.6,2.1,13.488,13.488,0,0,1-.96,1.86l.12.18a5.377,5.377,0,0,0,.9-1.14,6.751,6.751,0,0,0,.72-1.26v4.26c.18,0,.36,0,.42-.06l.18-.12.06-.06v-4.44l.48.66a2.444,2.444,0,0,1,.36.66l.24.12.24-.06a.45.45,0,0,0,.06-.3l-.12-.36c-.06-.18-.24-.3-.42-.48a2.192,2.192,0,0,0-.84-.42v-1.14Zm.78-3.12.36.54.3.6.24.6.24.12a.458.458,0,0,0,.3-.12c.06-.06.06-.18.06-.36.06-.18-.06-.42-.3-.66a2.284,2.284,0,0,0-1.08-.78Zm.48,2.22H517v2.52h-3.24Zm4.2,4.98-.12.48-.06.42-.12.18c0,.06,0,.12-.06.12h-1.26v-3.36l.24-.12H517v.42a.864.864,0,0,0,.54-.12l.12-.12v-2.7l.24-.06.12-.12-.72-.6-.24.42h-.9l.78-.84c.24-.3.42-.6.6-.84h.3l.12-.12-1.02-.42-.3.72a1.86,1.86,0,0,1-.36.78l-.36.72h-2.1l-.66-.36v3.78a.89.89,0,0,0,.42-.06l.18-.12v-.36h1.98v3.24a.657.657,0,0,0,0,.48.468.468,0,0,0,.24.24.638.638,0,0,0,.48.06h1.02a2.472,2.472,0,0,0,.72-.06.33.33,0,0,0,.18-.3l-.06-.12-.24-.12V260.9Zm-13.56.66q.99.27,1.8.54a5.53,5.53,0,0,1,1.2.6l.18.12h.18l.24-.06c.06-.06.12-.12.12-.18,0-.18-.12-.3-.3-.42a3.531,3.531,0,0,0-1.14-.48,14.21,14.21,0,0,0-2.22-.3Zm-2.28-.36-.84.54-1.14.48a6.4,6.4,0,0,1-1.14.42l.06.18,1.26-.24,1.2-.36.96-.36.12.06h.12l.12-.06.12-.06Zm-1.62-5.58h1.56l-.12.36-.18.36h-1.38Zm3.9,0v.72h-2.04l.18-.36.18-.36Zm2.22-.24h-1.56v-.78h1.56Zm-2.22-.78v.78h-1.68a.89.89,0,0,0,.06-.42v-.36Zm1.68,4.26h-4.92v-.78h4.92Zm-4.92.24h4.92v.78h-4.92Zm0,1.02h4.92v.78h-4.92Zm6.06-3.78h-2.16v-.72h1.56v.24a1.17,1.17,0,0,0,.48-.06l.12-.12v-.96c.12,0,.18,0,.24-.06l.18-.12-.84-.54-.24.36h-1.5v-.48c.18,0,.24,0,.3-.06s.12-.12.12-.18l-1.08-.12v.84h-1.62v-.54c.18,0,.24,0,.3-.06l.12-.12-1.02-.12v.84h-2.7l.06.24h2.64v.36a.89.89,0,0,1-.06.42h-1.44l-.66-.3-.12.54-.12.72-.18.66h.48l.18-.06v-.18a.22.22,0,0,0,.06-.18h1.26l-.42.48-.66.48a2.218,2.218,0,0,1-.66.3,3.469,3.469,0,0,1-.84.3l.06.18a8.1,8.1,0,0,0,1.44-.48v3.72c.18,0,.36,0,.42-.06l.18-.06.06-.06v-.24h4.92v.3c.24,0,.42,0,.48-.06a.743.743,0,0,0,.18-.12v-3l.24-.12.12-.12-.78-.54-.3.36h-4.8l-.36-.18.84-.48.54-.6h2.16v1.02c.3-.06.48-.06.54-.12l.12-.12v-.78h2.22c0,.18,0,.3-.06.36a.22.22,0,0,1-.06.18h-1.02v.12a2.432,2.432,0,0,1,.6.18.363.363,0,0,1,.18.36.8.8,0,0,0,.6-.18c.18-.06.24-.18.3-.36a1.661,1.661,0,0,0,.06-.54c.12,0,.18,0,.24-.06.06,0,.12,0,.12-.06l-.72-.6Zm-18.24,0a3.145,3.145,0,0,1,.66.6l.42.66.24.12.24-.12a.458.458,0,0,0,.12-.3.8.8,0,0,0-.18-.42,1.1,1.1,0,0,0-.48-.36,3.177,3.177,0,0,0-.96-.24Zm.6,3.72h-.48v.18a.7.7,0,0,1,.42.12.422.422,0,0,1,.24.3,2.238,2.238,0,0,1,.12.72l-.06.42v.54l.06.36.24.12a.467.467,0,0,0,.42-.18.458.458,0,0,0,.12-.3.8.8,0,0,0,.06-.3l-.12-.66-.12-.48-.06-.48.06-.42.12-.42c.06-.18.12-.42.24-.72l.48-1.08.54-1.32.42-1.14h-.18c-.42.78-.72,1.5-1.02,2.04a13.335,13.335,0,0,1-.66,1.32,3.945,3.945,0,0,0-.36.72c-.06.18-.12.24-.12.3l-.06.12c-.06.12-.06.18-.12.18A.22.22,0,0,1,489.58,260.055Zm6.6-3.84.78-.78a10.43,10.43,0,0,0,.78-.9h.3l.06-.12-.9-.48-.78,1.56a2.246,2.246,0,0,0-.36.6Zm-6.72-2.46.48.36.42.48a2.432,2.432,0,0,1,.3.54l.24.12.24-.12a.458.458,0,0,0,.12-.3.8.8,0,0,0-.18-.42,1.307,1.307,0,0,0-.54-.42,2.268,2.268,0,0,0-1.02-.36Zm2.94.36.42.54.36.66c.06.24.12.48.18.66l.12.12h.12a.312.312,0,0,0,.24-.12.507.507,0,0,0,.12-.36,1.855,1.855,0,0,0-.12-.48,1.3,1.3,0,0,0-.48-.54,3.39,3.39,0,0,0-.84-.54Zm.9,4.5h3.6V260h-3.6Zm3.6-.24h-3.6v-1.44h3.6Zm-1.5-1.68v-2.76c.18-.06.3-.06.36-.12s.12-.12.12-.18l-1.08-.06v3.12h-1.44l-.72-.3v6.42c.18,0,.36,0,.42-.06l.18-.12.06-.06v-2.34h3.6v1.68a.22.22,0,0,1-.18.06h-1.08v.12l.54.12.3.18a.7.7,0,0,1,.12.42,2.432,2.432,0,0,0,.6-.18c.18-.06.24-.18.3-.36a.89.89,0,0,0,.06-.42v-4.74a.45.45,0,0,0,.3-.06l.12-.12-.84-.66-.3.42Z"/>
  <path d="M538.6,254.175l.72,1.02a7.364,7.364,0,0,1,.48,1.5,8.394,8.394,0,0,1,.24,2.22,17.929,17.929,0,0,1-.24,2.22,8.032,8.032,0,0,1-.48,1.56,4.429,4.429,0,0,1-.72.96l.12.24a4.376,4.376,0,0,0,.66-.54,3,3,0,0,0,.66-.96,8.1,8.1,0,0,0,.48-1.44,7.053,7.053,0,0,0,.24-2.04,8.893,8.893,0,0,0-.18-1.86,6.853,6.853,0,0,0-.54-1.56c-.18-.3-.36-.6-.54-.84l-.72-.72-.18.24"/>
  <rect x="38.2" y="239.475" width="518.04" height="31.5" style="fill: none;stroke: #000;stroke-linecap: round;stroke-linejoin: round;stroke-width: 0.479999989271164px"/>
  <rect x="36.22" y="237.435" width="522" height="35.52" style="fill: none;stroke: #000;stroke-linecap: round;stroke-linejoin: round;stroke-width: 0.059999998658895px"/>
  <text transform="translate(279.58 381.555)" style="font-size: 12px;font-family: MS-PMincho, MS PMincho">振込先</text>
  <text transform="translate(279.58 381.555)" style="font-size: 12px;font-family: MS-PMincho, MS PMincho">振込先</text>
  <path d="M175.6,664.4l-.12.78-.18.6c-.06.18-.06.3-.12.36-.06.12-.06.18-.12.18l-.24.06h-2.04c-.18,0-.3,0-.36-.06s-.06-.12-.06-.3v-4.2h.18l.12-.06h2.88c.18,0,.3,0,.36-.06a.828.828,0,0,0,.18-.24l-1.14-.78-.6.78h-3.42v-2.58h3.54c.18,0,.3,0,.36-.06a.828.828,0,0,0,.18-.24l-1.08-.72-.6.72h-2.4v-1.92l.48-.12.12-.24-1.38-.12v2.4h-2.46l.3-.72.24-.72a.45.45,0,0,0,.3-.06c.06-.06.12-.12.12-.18l-1.2-.36a13.747,13.747,0,0,1-.42,1.68c-.18.54-.36,1.08-.54,1.5a5.174,5.174,0,0,1-.66,1.14l.18.12a6.168,6.168,0,0,0,.84-.9l.66-1.2h2.64v2.58h-5.1l.06.3h3.3a9.085,9.085,0,0,1-.42,2.22,4.736,4.736,0,0,1-1.02,1.86,5.733,5.733,0,0,1-1.92,1.32l.12.18a5.455,5.455,0,0,0,2.34-1.32,5.927,5.927,0,0,0,1.26-1.92,9.635,9.635,0,0,0,.48-2.28h.24l.12-.06h1.98v4.2a2.472,2.472,0,0,0,.06.72.614.614,0,0,0,.36.3,2.933,2.933,0,0,0,.78.06h2.04a3.567,3.567,0,0,0,1.02-.12.38.38,0,0,0,.3-.36l-.06-.18a2.36,2.36,0,0,1-.36-.12V664.4h-.12m-20.46-3.66-.48.66h-1.68l.06.3h1.8v3.6l-1.02.6c-.36.18-.66.3-.9.42l.6,1.02.12-.12v-.18l.54-.48.66-.6.6-.6a5.173,5.173,0,0,0,.9,1.02,2.389,2.389,0,0,0,1.26.54,16.136,16.136,0,0,0,1.86.12h4.14l.18-.48.42-.18v-.18h-1.56l-1.68.06h-1.5a12.409,12.409,0,0,1-1.74-.12,3.192,3.192,0,0,1-1.2-.3,2.657,2.657,0,0,1-.9-.72v-3.24l.36-.12.18-.12Zm-1.8-4.08.6.66.6.78a1.768,1.768,0,0,1,.3.78,309063205119.513,309063205119.513,0,0,1,.36.12.33.33,0,0,0,.3-.18.507.507,0,0,0,.12-.36,1.158,1.158,0,0,0-.18-.6,1.563,1.563,0,0,0-.72-.66,4.536,4.536,0,0,0-1.32-.6Zm10.86,7.74a6.614,6.614,0,0,1-1.86-1.56,10.166,10.166,0,0,1-1.38-2.16,9.3,9.3,0,0,1-.84-2.58v-.54l.6-.12.36-.24-1.02-.78-.42.6h-1.98l.06.3h2.04v.78a9.047,9.047,0,0,1-.78,2.76,10.438,10.438,0,0,1-1.38,2.4,7.032,7.032,0,0,1-1.8,1.74l.12.18a7.984,7.984,0,0,0,1.8-1.38,15.071,15.071,0,0,0,1.5-1.92,7.169,7.169,0,0,0,.9-2.1l.54,1.56a6.9,6.9,0,0,0,.72,1.5l.96,1.32a6.369,6.369,0,0,0,1.2,1.02l.24-.42.36-.18Zm-17.46-4.98h4.02c.18,0,.3,0,.36-.06l.18-.18-.96-.72-.54.66h-3.12Zm4.86,2.04c.18,0,.3,0,.36-.06l.24-.24-1.08-.72-.48.72h-4.5l.06-.66v-3.06h5.22c.18,0,.3,0,.36-.06l.18-.18-1.02-.78-.54.72h-4.08l-.9-.42v3.18c0,.78,0,1.56-.06,2.4a16.191,16.191,0,0,1-.36,2.46,8.211,8.211,0,0,1-.9,2.28l.24.12a6.653,6.653,0,0,0,1.02-1.8,8.312,8.312,0,0,0,.6-1.98c.06-.66.12-1.32.18-1.92h.84v4.44l-.78.12a2.251,2.251,0,0,1-.6.06l.54,1.02a.22.22,0,0,0,.18-.06l.12-.18q1.17-.45,1.98-.72c.6-.18,1.08-.36,1.5-.48l-.06-.18-1.08.18-1.02.12v-4.32h.78a13.944,13.944,0,0,0,1.08,3.48,7.205,7.205,0,0,0,1.98,2.4,1.206,1.206,0,0,1,.24-.48l.48-.24v-.12a4.94,4.94,0,0,1-1.32-.96,6.107,6.107,0,0,1-1.08-1.38l1.08-.78a7.791,7.791,0,0,1,.84-.72h.24c.06,0,.06,0,.06-.06l-.96-.6a2.246,2.246,0,0,1-.36.6l-.48.66a6.376,6.376,0,0,1-.54.66l-.54-1.2a10.817,10.817,0,0,1-.48-1.26Zm-8.16-2.34h1.26c.18,0,.3,0,.36-.06a.828.828,0,0,0,.24-.18l-.96-.72-.42.66h-.48v-2.16c.24-.06.36-.06.42-.12a.312.312,0,0,0,.12-.24l-1.26-.12v2.64h-1.74l.06.3h1.68v2.94l-1.08.24a6.227,6.227,0,0,0-.72.18l.42,1.02.18-.12.12-.18,1.08-.48v3.42a.212.212,0,0,1-.24.24h-1.32v.18a1.686,1.686,0,0,1,.9.18.632.632,0,0,1,.24.6,2.024,2.024,0,0,0,.72-.24.807.807,0,0,0,.36-.42,1.661,1.661,0,0,0,.06-.54v-3.78l1.02-.48.78-.36-.06-.18-.9.24-.84.24Z"/>
  <rect x="37" y="302.595" width="522" height="21.96" style="fill: #fff"/>
  <rect x="37" y="323.475" width="522" height="22.02" style="fill: #eee"/>
  <rect x="37" y="344.295" width="522" height="21.96" style="fill: #fff"/>
  <rect x="37" y="365.175" width="522" height="22.02" style="fill: #eee"/>
  <rect x="37" y="385.995" width="522" height="21.96" style="fill: #fff"/>
  <rect x="37" y="406.875" width="522" height="22.02" style="fill: #eee"/>
  <rect x="37" y="427.695" width="522" height="21.96" style="fill: #fff"/>
  <rect x="37" y="448.575" width="522" height="22.02" style="fill: #eee"/>
  <rect x="37" y="469.395" width="522" height="21.96" style="fill: #fff"/>
  <rect x="37" y="490.275" width="522" height="22.02" style="fill: #eee"/>
  <rect x="37" y="511.095" width="522" height="21.96" style="fill: #fff"/>
  <rect x="37" y="531.975" width="522" height="22.02" style="fill: #eee"/>
  <rect x="37" y="552.795" width="522" height="21.96" style="fill: #fff"/>
  <rect x="37" y="573.675" width="522" height="22.02" style="fill: #eee"/>
  <rect x="37" y="594.495" width="522" height="21.96" style="fill: #fff"/>
  <rect x="36.7" y="280.575" width="522" height="22.02" style="fill: #eee"/>
  <rect x="36.7" y="280.575" width="522" height="22.02" style="fill: none;stroke: #000;stroke-linecap: round;stroke-linejoin: round;stroke-width: 1.01999998092651px"/>
  <path d="M81.22,292.4h5.34v3.54H81.22Zm5.34-.3H81.22v-3.42h5.34Zm-.06-3.72H81.28l-.78-.36v9.3a1.17,1.17,0,0,0,.48-.06l.24-.24v-.78h5.34v.9c.18,0,.36,0,.42-.06l.24-.12.12-.12v-7.98l.48-.24-.96-.72Zm-17.94,5.1-.18,1.08a5.068,5.068,0,0,1-.3,1.02,3.014,3.014,0,0,1-.3.78l.18.12a3.69,3.69,0,0,0,.72-1.14,8.1,8.1,0,0,0,.48-1.44h.3a.22.22,0,0,0,.06-.18Zm2.52.06.3.66.24.72.12.72.18.12h.12a.458.458,0,0,0,.3-.12.867.867,0,0,0,.12-.42,1.6,1.6,0,0,0-.3-.78,3.621,3.621,0,0,0-.96-.96Zm2.16-1.92.6.66.48.84.24.84.18.12.18.06a.322.322,0,0,0,.24-.18,2.925,2.925,0,0,0,.18-.42,1.158,1.158,0,0,0-.18-.6,3.6,3.6,0,0,0-.66-.72,6.278,6.278,0,0,0-1.14-.72Zm-2.22-3.18-.6,1.14a6.751,6.751,0,0,1-.72,1.26l-.72,1.2-.66.06h-.48l.3.84a.22.22,0,0,0,.18-.06l.12-.18.78-.12.66-.12v4.92a1.17,1.17,0,0,0,.48-.06l.18-.12v-4.86l.6-.06.48-.12a2.925,2.925,0,0,0,.18.42.652.652,0,0,1,.06.3l.18.12.12.06c.12,0,.18-.06.24-.18a.458.458,0,0,0,.12-.3,1.855,1.855,0,0,0-.12-.48,3.882,3.882,0,0,0-.48-.54,4.547,4.547,0,0,0-.96-.54l-.06.06.3.42.3.48H70.36l-1.02.06.84-1.02.78-1.02.66-1.02.12.06h.12l.24-.12Zm5.64,1.02H73.72l.42-.84.36-.9a.45.45,0,0,0,.3-.06l.12-.12-1.14-.36a16.551,16.551,0,0,1-.48,1.62,11.332,11.332,0,0,1-.66,1.5,5.174,5.174,0,0,1-.66,1.14l.18.12.72-.84a5.945,5.945,0,0,0,.66-1.02h3.24c0,1.2,0,2.28-.06,3.24-.06.9-.12,1.68-.18,2.28a2.67,2.67,0,0,1-.3,1.14l-.18.12H74.68l-.6-.06v.24c.42.06.78.06.96.12a.923.923,0,0,1,.36.24.507.507,0,0,1,.12.36,2.663,2.663,0,0,0,.78-.12.933.933,0,0,0,.48-.36,1.921,1.921,0,0,0,.42-1.2c.06-.66.18-1.44.24-2.46.06-.96.06-2.1.06-3.36a.45.45,0,0,0,.3-.06l.18-.12-.9-.72Zm-8.88-.3a3.965,3.965,0,0,1,1.14,1.44l.12.06.12.06.24-.12a.45.45,0,0,0,.06-.3,2.36,2.36,0,0,0-.12-.36.8.8,0,0,0-.3-.36l.6-.9.66-.9c.12,0,.18,0,.24-.06.06,0,.12-.06.18-.12l-1.08-.42a6.4,6.4,0,0,1-.42,1.14l-.42,1.08-.42-.18-.48-.18Zm-1.8,4.26-.54.66H61.9l.12-.54.06-.54c.18,0,.24,0,.3-.06s.12-.12.12-.18l-1.14-.12a6.208,6.208,0,0,0,1.38-.96,6.09,6.09,0,0,0,.78-1.08,4.776,4.776,0,0,0,.42-1.2,8.951,8.951,0,0,0,.12-1.26h1.62a25.534,25.534,0,0,1-.12,2.58,3.547,3.547,0,0,1-.24,1.08.22.22,0,0,1-.18.06H63.7v.18a4.7,4.7,0,0,1,.84.18.4.4,0,0,1,.18.48,2.25,2.25,0,0,0,.66-.06l.42-.24a2.146,2.146,0,0,0,.42-1.26c.06-.66.12-1.62.18-2.82l.24-.06.18-.12-.9-.66-.3.42H61.84l.06.24h1.38a8.951,8.951,0,0,1-.12,1.26,4.572,4.572,0,0,1-.36,1.2,3.733,3.733,0,0,1-.84,1.14,7.479,7.479,0,0,1-1.44,1.08l.18.18.3-.18.3-.12-.06.72-.12.66H56.8l.06.24h4.2a3.146,3.146,0,0,1-.66,1.14,5.48,5.48,0,0,1-1.38.9,13.382,13.382,0,0,1-2.28.84l.12.18c.9-.18,1.62-.36,2.22-.54a7.99,7.99,0,0,0,1.44-.72,2.8,2.8,0,0,0,.84-.84,2.079,2.079,0,0,0,.48-.96h.24a6.235,6.235,0,0,0,1.02,1.44,5.5,5.5,0,0,0,1.5,1.02,13.552,13.552,0,0,0,1.86.6l.24-.42.42-.18v-.12a16.327,16.327,0,0,1-1.98-.42,6.215,6.215,0,0,1-1.68-.78,5.137,5.137,0,0,1-1.14-1.14h4.14c.18,0,.3,0,.36-.06l.18-.18Zm-4.26-2.16-1.08.12-1.02.18v-1.32h1.44c.18,0,.3,0,.36-.06l.18-.18-.9-.6-.42.54h-.66v-1.32h1.62c.18,0,.3,0,.36-.06l.18-.18-.9-.6-.48.6h-.78v-.78l.36-.12c.06-.06.12-.12.12-.18l-1.2-.12v1.2H56.98l.12.24h1.8v1.32H57.28l.06.3H58.9v1.38c-.42.06-.84.12-1.14.18l-.9.12.54.84.18-.06a.22.22,0,0,0,.06-.18c.96-.24,1.74-.42,2.4-.6s1.26-.36,1.74-.48Zm-13.08.36a4.01,4.01,0,0,0-.84.96l-.42.84-.06.84.12.66a1.683,1.683,0,0,0,.48.72,9.026,9.026,0,0,0,1.08.54,4.526,4.526,0,0,0,1.68.24,17.474,17.474,0,0,0,1.86-.06,5.7,5.7,0,0,0,1.2-.12c.3-.06.48-.18.48-.3a.38.38,0,0,0-.3-.36,1.994,1.994,0,0,0-.78-.24,2.364,2.364,0,0,1-.9.24,12.169,12.169,0,0,1-1.68.12,3.876,3.876,0,0,1-1.56-.24,1.7,1.7,0,0,1-1.2-1.56,2.445,2.445,0,0,1,.3-1.08,3.942,3.942,0,0,1,.72-1.02Zm3-1.98a2.246,2.246,0,0,0-.6.36l-.78.42-.66.42.18.18c.3-.18.6-.36.96-.54l1.08-.42c.36-.12.66-.18.9-.24a.89.89,0,0,0,.42-.06.322.322,0,0,0,.18-.24.453.453,0,0,0-.24-.42,1.9,1.9,0,0,0-.84-.3,1.315,1.315,0,0,1-.48.18l-.84.18-.96.12a3.983,3.983,0,0,1-.78.06,2.052,2.052,0,0,1-.66-.06l-.42-.24-.12-.24h-.06l-.12.24.12.42.42.36a1.014,1.014,0,0,0,.6.18,3.983,3.983,0,0,0,.78-.06l1.02-.18.96-.18Zm1.44-1.92a2.558,2.558,0,0,1,.72.66,3.945,3.945,0,0,1,.36.72l.12.18a.22.22,0,0,0,.18.06l.24-.12c.06-.06.06-.12.06-.24a.928.928,0,0,0-.42-.72,3.4,3.4,0,0,0-1.08-.72Zm1.26-.6a2.841,2.841,0,0,1,.78.66,3.945,3.945,0,0,1,.36.72l.12.18.18.06c.06,0,.12-.06.18-.12l.12-.24a1.126,1.126,0,0,0-.42-.78,5.174,5.174,0,0,0-1.14-.66Z"/>
  <path d="M247.3,291.555l-.42.6h-2.22l.06.24h2.94a.45.45,0,0,0,.3-.06l.18-.18-.84-.6m-2.58-.54h2.94a.45.45,0,0,0,.3-.06l.18-.18-.84-.6-.42.54h-2.22Zm2.7-1.68h-3.24l.06.24h4.02c.18,0,.24,0,.3-.06l.18-.18-.9-.6Zm-.06-2.04-.48.6h-2.16l.06.3h2.94c.18,0,.3,0,.36-.06s.12-.12.12-.18Zm-1.98,6.54h1.92V296h-1.92Zm2.1-.66-.3.42h-1.74l-.72-.36v4.08a.864.864,0,0,0,.54-.12l.12-.12v-.78h1.92v.66a1.13,1.13,0,0,0,.48-.12c.12-.06.18-.06.18-.12v-2.7a.45.45,0,0,0,.3-.06l.18-.12Zm2.52-4.86h3.18v3.36H250Zm3.18,4.38a3.825,3.825,0,0,0,.54-.12q.18-.09.18-.18v-3.9a.45.45,0,0,0,.3-.06l.18-.12-.96-.72-.36.48h-2.94l-.84-.36v3.42l-.06,2.16a8.226,8.226,0,0,1-.48,2.1,6.108,6.108,0,0,1-.96,1.86l.18.12a4.793,4.793,0,0,0,1.2-1.68,5.2,5.2,0,0,0,.6-1.86l.24-1.86h1.14a11.456,11.456,0,0,0,.36,1.98,6.046,6.046,0,0,0,.84,1.92,4.312,4.312,0,0,0,1.5,1.62c.06-.24.12-.42.24-.48l.42-.18.06-.12a5.9,5.9,0,0,1-1.74-1.38,8.037,8.037,0,0,1-1.02-1.62l-.48-1.74h1.86Zm-11.4-3.36h-3.12a4.541,4.541,0,0,0,.06-.9l.06-.9c.18-.06.24-.06.3-.12s.12-.12.12-.18l-1.2-.06v1.14a5.49,5.49,0,0,1-.06,1.02h-3l-.84-.36v8.4a1.332,1.332,0,0,0,.54-.06l.18-.12v-7.62h3.06a7.969,7.969,0,0,1-.36,1.8,6.968,6.968,0,0,1-.84,1.62,5.622,5.622,0,0,1-1.5,1.38l.12.18a14.984,14.984,0,0,0,1.44-.96,5.179,5.179,0,0,0,.96-1.08,11.992,11.992,0,0,0,.6-1.26l.96.9.9,1.02a4.543,4.543,0,0,1,.54,1.08l.12.06a.22.22,0,0,0,.18.06l.24-.12c.06-.06.06-.18.06-.36a1.612,1.612,0,0,0-.24-.78,4.858,4.858,0,0,0-.96-1.02,10.265,10.265,0,0,0-1.74-1.02l.18-.72a3.17,3.17,0,0,0,.06-.78h3.24v6.72a.212.212,0,0,1-.24.24h-1.56v.12a6.556,6.556,0,0,1,1.02.18.63.63,0,0,1,.3.54,5.143,5.143,0,0,0,.78-.18.541.541,0,0,0,.36-.36,1.13,1.13,0,0,0,.12-.48v-6.54l.24-.12c.12-.06.18-.06.18-.12l-.9-.66Zm-11.7,5.82h-2.46v-1.14h2.46Zm-2.46-2.46h2.46v1.08h-2.46Zm2.28-1.5h-2.28v-1.38h2.28Zm-5.22-1.38h2.22v1.38h-2.22Zm6.36,3.96h-.24v-.9l.3-.12.18-.12-.96-.66-.3.42h-2.4v-.96h2.28v.3a1.2,1.2,0,0,0,.54-.12c.12-.06.18-.06.18-.12v-1.44l.3-.12.18-.12-.96-.66-.36.42h-2.16v-.9h4.2c.18,0,.3,0,.36-.06l.18-.18-1.08-.72-.54.66h-3.12v-.78c.18,0,.36,0,.42-.06l.12-.24-1.26-.12v1.2h-4.62l.06.3h4.56v.9h-2.16l-.78-.36v2.76c.18,0,.36,0,.42-.06l.24-.12.06-.06v-.3h2.22v.96h-3.42l.06.3h3.36v1.08h-4.8l.06.24h4.74v1.14h-3.48l.06.24h3.42v.9a.22.22,0,0,1-.06.18c-.06.06-.12.06-.24.06h-1.68v.18l.84.12a1.434,1.434,0,0,1,.42.18.467.467,0,0,1,.18.42,2.352,2.352,0,0,0,.84-.24l.36-.36a1.661,1.661,0,0,0,.06-.54v-.9h2.46v.78a1.2,1.2,0,0,0,.54-.12c.12-.06.18-.06.18-.12v-1.92H232c.18,0,.3,0,.36-.06l.18-.18-.96-.72Zm-11.22,2.4h-3.18V289.1h3.54c.18,0,.3,0,.36-.06l.18-.18-1.08-.78-.54.72h-7.14l.12.3h3.84v7.08h-4.68l.06.24h9.6c.18,0,.3,0,.36-.06l.18-.18-1.08-.72Z"/>
  <path d="M395.26,290.475l-.48.6h-8.64l.06.24h9.54a.45.45,0,0,0,.3-.06l.18-.18-.96-.6m-6.84-1.32h5.46V290h-5.46Zm5.46-.24h-5.46v-.84h5.46Zm0,1.38v.36a1.291,1.291,0,0,0,.6-.12l.12-.12v-2.16a.45.45,0,0,0,.3-.06l.18-.12-.96-.72-.3.48h-5.34l-.78-.36v3.24c.18,0,.36,0,.42-.06l.24-.12.06-.06v-.18Zm-2.4,3.24H394v.9h-2.52Zm-3.18,0h2.46v.9H388.3Zm5.7-.24h-2.52v-.9H394Zm-3.24,0H388.3v-.9h2.46Zm4.02,3.54h-3.3v-.96h3.54c.18,0,.3,0,.36-.06l.18-.18-.9-.6-.48.6h-2.7v-.9H394v.36a.864.864,0,0,0,.54-.12c.12-.06.18-.06.18-.12v-2.22l.3-.12.18-.12-.96-.72-.36.48h-5.52l-.78-.36v3.36a1.17,1.17,0,0,0,.48-.06l.18-.12.06-.06v-.18h2.46v.9h-3.84l.06.24h3.78v.96h-4.68l.06.24h9.6c.18,0,.3,0,.36-.06l.18-.18-1.02-.66Zm-19.14-9.18.36.66a2.074,2.074,0,0,1,.18.72l.12.12a.22.22,0,0,0,.18.06l.24-.12a.507.507,0,0,0,.12-.36.733.733,0,0,0-.24-.54,2.137,2.137,0,0,0-.9-.6Zm3.18,1.62,1.14-1.14h.24l.12-.12-.96-.48-.36.9-.36.72Zm-1.38,2.82a1.505,1.505,0,0,0,.6-.06l.12-.12v-1.5l.54.36.48.48a1.061,1.061,0,0,1,.3.48l.12.06h.12l.24-.06a.45.45,0,0,0,.06-.3.8.8,0,0,0-.18-.42c-.06-.18-.24-.3-.54-.48a4.435,4.435,0,0,0-1.14-.3v-.48h2.1a.45.45,0,0,0,.3-.06c.06,0,.12-.06.18-.12l-.9-.66-.42.6h-1.26V287.6c.18-.06.24-.06.3-.12s.12-.12.12-.18l-1.14-.06v2.28H375.1l.06.24h1.98a8.194,8.194,0,0,1-.9,1.26,6.74,6.74,0,0,1-1.2,1.08l.12.18a6.424,6.424,0,0,0,1.26-.78,5.214,5.214,0,0,0,1.02-.96Zm1.5,1.5-.24.84-.36.78-.72-.3-.9-.18a2.432,2.432,0,0,0,.3-.54l.24-.6Zm1.08-.84-.48.6h-2.1l.18-.36.12-.3a.8.8,0,0,1,.3-.06c.06-.06.12-.12.12-.18l-1.02-.18a4.134,4.134,0,0,0-.18.48l-.3.6h-1.62l.06.24h1.44l-.48,1.02c-.18.3-.3.6-.42.78l.48.12h.12l.12-.06.24-.48.72.36.6.36a9.449,9.449,0,0,1-1.14.9,7.1,7.1,0,0,1-1.62.6l.06.18a7.568,7.568,0,0,0,1.86-.54,3.328,3.328,0,0,0,1.32-.84c.18.18.36.3.48.42l.36.36.06.06h.12a.424.424,0,0,0,.36-.36.717.717,0,0,0-.24-.48,1.8,1.8,0,0,0-.6-.54l.48-.84a2.57,2.57,0,0,0,.36-1.02h1.02c.06-.06.12-.12.12-.18Zm3.66-2.76a11.806,11.806,0,0,1-.36,2.1,7.98,7.98,0,0,1-.66,1.8,8.34,8.34,0,0,1-.72-1.68,14.258,14.258,0,0,1-.42-1.86l.12-.36Zm.72-.96-.48.66h-2.16l.3-.96.3-1.08a.45.45,0,0,0,.3-.06l.06-.12-1.14-.3a9.883,9.883,0,0,1-.36,1.92,14.726,14.726,0,0,1-.48,1.74,7.343,7.343,0,0,1-.6,1.38l.18.06a6.376,6.376,0,0,0,.54-.66l.48-.84a11.456,11.456,0,0,0,.36,1.98l.66,1.74a7.068,7.068,0,0,1-1.14,1.5,7.739,7.739,0,0,1-1.5,1.2l.06.18a6.6,6.6,0,0,0,1.68-1.02,4.774,4.774,0,0,0,1.2-1.26,8.194,8.194,0,0,0,.9,1.26,4.635,4.635,0,0,0,1.14,1.02l.3-.36.42-.18v-.06a7.07,7.07,0,0,1-1.32-1.02,6.74,6.74,0,0,1-1.08-1.2,8.359,8.359,0,0,0,.96-2.1c.18-.78.36-1.56.48-2.46h.42a.45.45,0,0,0,.3-.06l.18-.18Z"/>
  <path d="M489.4,295.275c-.18.18-.36.42-.6.72l-.78.72-.9.54.12.18a5.191,5.191,0,0,0,1.02-.42c.36-.18.72-.36,1.02-.54l.72-.6h.18c.12,0,.18,0,.24-.06l-1.02-.54m-2.22-5.22.42-.36.42-.42.24-.06a.22.22,0,0,0,.18-.06l-.84-.78-.42.42h-1.26v-1.2c.18,0,.36,0,.42-.06a.312.312,0,0,0,.12-.24l-1.2-.06v1.56h-1.2l-.06-.24v-.3h-.18a1.543,1.543,0,0,1-.3.84.93.93,0,0,1-.48.48l-.06.18-.06.12.12.24.24.06.36-.12a.551.551,0,0,0,.24-.36c.06-.18.12-.36.18-.6h3.18l-.12.48L487,290Zm-2.58,4.02h1.92v1.98H484.6Zm1.68-3.48-.6,1.2-.66-.18-.66-.24.3-.36.24-.42Zm.42,2.88-.3.36h-1.68l-.3-.12.78-.6.66-.6.78.54a2.291,2.291,0,0,1,.54.54h.18a.212.212,0,0,0,.24-.24c.06-.18-.06-.36-.3-.54a4.005,4.005,0,0,0-1.02-.78l.42-.6.36-.66a.8.8,0,0,1,.3-.06l.18-.12-.78-.66-.48.42h-1.2l.18-.3.18-.36.06.06a.22.22,0,0,0,.18-.06l.06-.12-.9-.3-.48,1.08a4.606,4.606,0,0,1-.6,1.08,4.531,4.531,0,0,1-.66.84l.12.12.54-.36.42-.48,1.2.6a7.138,7.138,0,0,1-1.14,1.2,10.61,10.61,0,0,1-1.32.96l.06.18,1.02-.48v3.36h.06a.867.867,0,0,0,.42-.12l.12-.12v-.84h1.92v.6a.775.775,0,0,0,.48-.12.743.743,0,0,0,.18-.12V294.2l.24-.06.12-.12Zm4.32,1.92.6.54c.24.24.42.48.6.66l.36.72.18.06h.12l.24-.12a.458.458,0,0,0,.12-.3.733.733,0,0,0-.24-.54,2.186,2.186,0,0,0-.66-.6,6.547,6.547,0,0,0-1.26-.54Zm.9-4.02h-2.88v-1.32h2.88Zm-2.88,1.92h2.88v1.38h-2.88Zm0-1.62h2.88v1.38h-2.88Zm2.76-3.6h-4.02l.06.24H490l-.12.78-.12.72h-.66l-.72-.36v6.06c.18,0,.36,0,.42-.06.12-.06.18-.06.18-.12l.06-.06v-.36h2.88v.48a1.2,1.2,0,0,0,.54-.12.743.743,0,0,0,.18-.12v-4.92l.24-.06.12-.12-.84-.66-.36.42h-1.74l.42-.72.36-.78h1.98a.45.45,0,0,0,.3-.06l.18-.18-.96-.66Zm-18,5.88.36.66.36.78a4.129,4.129,0,0,1,.12.78l.18.12.18.06a1.312,1.312,0,0,0,.3-.18.89.89,0,0,0,.06-.42,1.232,1.232,0,0,0-.3-.9,3.818,3.818,0,0,0-1.14-.96Zm5.82-.12-.36.9-.42.9-.42.72.18.12.9-.96.78-1.08a.45.45,0,0,0,.3-.06l.12-.12Zm-2.16,2.94v-3.42h4.02l.18-.18-1.02-.72-.54.66h-2.64v-1.8h1.8c.18,0,.3,0,.36-.06l.18-.18-.96-.6-.48.6h-4.02l.06.24h2.34v1.8h-4.02l.06.24h3.96v3.42h-4.5l.06.24h9.6l.18-.18-1.02-.78-.54.72Zm-5.46-4.62a10.1,10.1,0,0,0,2.04-1.2,15.279,15.279,0,0,0,1.8-1.56,10.761,10.761,0,0,0,1.32-1.68,9.379,9.379,0,0,0,1.2,1.62,18.418,18.418,0,0,0,1.56,1.5l1.86,1.2.18-.36.42-.18v-.18a11.773,11.773,0,0,1-1.92-1.02c-.66-.42-1.2-.84-1.74-1.26l-1.38-1.38.36-.12.12-.12-1.38-.3a9.821,9.821,0,0,1-.72,1.32l-1.08,1.32-1.32,1.2a10.609,10.609,0,0,1-1.44,1.02Zm-3.12,3h-2.46v-1.14h2.46Zm-2.46-2.46h2.46v1.08h-2.46Zm2.28-1.5h-2.28v-1.38h2.28Zm-5.22-1.38h2.22v1.38h-2.22Zm6.36,3.96h-.24v-.9l.3-.12.18-.12-.96-.66-.3.42h-2.4v-.96h2.28v.3a1.2,1.2,0,0,0,.54-.12c.12-.06.18-.06.18-.12v-1.44l.3-.12.18-.12-.96-.66-.36.42h-2.16v-.9h4.2c.18,0,.3,0,.36-.06l.18-.18-1.08-.72-.54.66h-3.12v-.78c.18,0,.36,0,.42-.06l.12-.24-1.26-.12v1.2h-4.62l.06.3h4.56v.9h-2.16l-.78-.36v2.76c.18,0,.36,0,.42-.06l.24-.12.06-.06v-.3h2.22v.96h-3.42l.06.3h3.36v1.08h-4.8l.06.24h4.74v1.14h-3.48l.06.24h3.42v.9a.22.22,0,0,1-.06.18c-.06.06-.12.06-.24.06h-1.68v.18l.84.12a1.434,1.434,0,0,1,.42.18.467.467,0,0,1,.18.42,2.352,2.352,0,0,0,.84-.24l.36-.36a1.661,1.661,0,0,0,.06-.54v-.9h2.46v.78a1.2,1.2,0,0,0,.54-.12c.12-.06.18-.06.18-.12v-1.92h1.2c.18,0,.3,0,.36-.06l.18-.18-.96-.72Zm-11.22,2.4h-3.18V289.1h3.54c.18,0,.3,0,.36-.06l.18-.18-1.08-.78-.54.72h-7.14l.12.3h3.84v7.08h-4.68l.06.24h9.6c.18,0,.3,0,.36-.06l.18-.18-1.08-.72Z"/>
  <path d="M542.32,293.115a6.264,6.264,0,0,1-.78,2.7,3.733,3.733,0,0,1-1.62,1.44l.12.18a3.844,3.844,0,0,0,1.92-1.32,6.139,6.139,0,0,0,1.08-2.52c.12,0,.18,0,.24-.06s.12-.12.12-.18l-1.08-.24m-1.8-2.34a.45.45,0,0,0,.3-.06l.18-.18-.84-.6-.48.6h-.48v-2.22l.54-.18.48-.18a.652.652,0,0,0,.3.06h.18l.06-.06-.9-.72a6.115,6.115,0,0,1-.9.48l-1.14.6-1.2.48.06.18.9-.18.9-.24v1.98h-1.8l.06.24h1.56a17.081,17.081,0,0,1-.66,2.34,11.53,11.53,0,0,1-1.08,2.1l.18.12c.36-.42.66-.84.96-1.26a6.276,6.276,0,0,0,.78-1.38v4.68a1.17,1.17,0,0,0,.48-.06l.18-.12.06-.06v-4.86a3.74,3.74,0,0,1,.54.72,5.254,5.254,0,0,1,.42.72l.3.12a.22.22,0,0,0,.18-.06.458.458,0,0,0,.12-.3l-.12-.48-.48-.48a2.874,2.874,0,0,0-.96-.42v-1.32Zm.84-3.42.36.6.36.66a4.557,4.557,0,0,1,.24.66l.12.06a.22.22,0,0,0,.18.06.458.458,0,0,0,.3-.12l.12-.36a1.29,1.29,0,0,0-.36-.78,4.125,4.125,0,0,0-1.2-.84Zm.54,2.46h3.54v2.76H541.9Zm4.62,5.46-.12.54-.12.42-.12.24c0,.06,0,.12-.06.12l-.18.06H544.9l-.18-.06v-3.72h.12l.12-.06h.48v.42a1.291,1.291,0,0,0,.6-.12l.12-.12v-3l.24-.06.18-.12-.84-.66-.24.42h-.96l.84-.9.66-.96.12.06h.06a.22.22,0,0,0,.18-.06c.06,0,.06,0,.06-.06l-1.08-.48-.3.78-.42.84a3.233,3.233,0,0,1-.42.78h-2.28l-.78-.36v4.14a1.17,1.17,0,0,0,.48-.06l.18-.12.06-.06v-.3H544v3.48l.06.6a.468.468,0,0,0,.24.24,1.2,1.2,0,0,0,.54.12h1.08a2.351,2.351,0,0,0,.78-.12.329.329,0,0,0,.24-.36l-.06-.12c-.06,0-.12-.06-.24-.12v-1.26Zm-14.94.78q1.17.27,1.98.54a8.705,8.705,0,0,1,1.32.72l.18.06h.18a.45.45,0,0,0,.3-.06.312.312,0,0,0,.12-.24c0-.12-.12-.24-.36-.42a4.889,4.889,0,0,0-1.2-.48,11.344,11.344,0,0,0-2.46-.36Zm-2.58-.48a5.844,5.844,0,0,1-.9.6l-1.2.6-1.32.42.06.18,1.44-.24,1.26-.36c.42-.18.78-.3,1.08-.42h.42l.12-.06Zm-1.74-6.12H529l-.12.42-.24.42h-1.5Zm4.32,0v.84h-2.22l.18-.42.12-.42Zm2.4-.24h-1.74v-.84h1.74Zm-2.4-.84v.84h-1.86l.06-.42v-.42Zm1.86,4.68h-5.46v-.9h5.46Zm-5.46.24h5.46v.9h-5.46Zm0,1.14h5.46v.9h-5.46Zm6.66-4.14h-2.4v-.84h1.74v.3a1.2,1.2,0,0,0,.54-.12c.12-.06.18-.06.18-.12V288.5l.24-.06.18-.12-.9-.6-.3.36h-1.68v-.54c.18,0,.3,0,.36-.06s.12-.12.12-.18l-1.14-.12v.9h-1.8v-.54l.36-.12c.06,0,.06-.06.06-.12l-1.08-.12v.9h-3l.06.3h2.94v.42l-.06.42H527.5l-.78-.36-.12.66-.18.72-.12.72.18.06h.36l.12-.06.06-.18.06-.24h1.38a3.882,3.882,0,0,1-.48.54l-.72.48a2.075,2.075,0,0,1-.72.42l-.9.3.06.18c.6-.18,1.14-.3,1.56-.48v4.08a1.17,1.17,0,0,0,.48-.06l.18-.12.06-.12v-.18h5.46v.3a1.332,1.332,0,0,0,.54-.06q.18-.09.18-.18v-3.3l.24-.06.12-.12-.9-.66-.3.42h-5.28l-.36-.18a5.927,5.927,0,0,0,.9-.54,3.145,3.145,0,0,0,.6-.66h2.4v1.08a.864.864,0,0,0,.54-.12c.12-.06.18-.06.12-.12v-.84h2.52a1.351,1.351,0,0,0-.06.42l-.12.18H533.5v.18a1.852,1.852,0,0,1,.66.12.363.363,0,0,1,.18.36,1.606,1.606,0,0,0,.66-.12c.18-.06.24-.24.3-.42l.12-.6.24-.06c.06,0,.12,0,.12-.06l-.78-.66Zm-19.98,0a3.145,3.145,0,0,1,.66.6,1.546,1.546,0,0,1,.48.78l.12.06h.18l.24-.12a.458.458,0,0,0,.12-.3.8.8,0,0,0-.18-.42c-.06-.18-.24-.3-.54-.42a3.456,3.456,0,0,0-1.02-.3Zm.66,4.02h-.54v.24l.48.12a.422.422,0,0,1,.24.3,2.781,2.781,0,0,1,.12.84,1.491,1.491,0,0,1-.06.48,1.661,1.661,0,0,1-.06.54c.06.18.06.36.12.42a.322.322,0,0,0,.24.18c.24,0,.42-.06.48-.18a2.925,2.925,0,0,0,.18-.42v-.3a2.472,2.472,0,0,0-.06-.72l-.18-.54-.06-.48v-.06l.06-.42.12-.48c.06-.18.18-.42.3-.78l.54-1.2.54-1.44.48-1.26h-.18c-.42.9-.84,1.62-1.14,2.22l-.72,1.44a6.86,6.86,0,0,0-.36.84l-.24.48-.18.18C515.44,294.375,515.38,294.375,515.32,294.315Zm7.26-4.2.84-.84a6.907,6.907,0,0,0,.84-1.02l.12.06h.06a.22.22,0,0,0,.18-.06c.06,0,.06-.06.06-.12l-1.02-.48-.42.9-.42.78c-.18.3-.3.48-.42.66Zm-7.44-2.64a1.417,1.417,0,0,1,.54.36l.48.54a1.226,1.226,0,0,1,.3.54l.18.12h.12a.312.312,0,0,0,.24-.12.458.458,0,0,0,.12-.3.8.8,0,0,0-.18-.48,1.739,1.739,0,0,0-.6-.48,8.7,8.7,0,0,0-1.14-.36Zm3.24.36.48.6.36.72a1.6,1.6,0,0,1,.18.72l.18.12h.18l.24-.12a.507.507,0,0,0,.12-.36,1.752,1.752,0,0,0-.12-.54,2.438,2.438,0,0,0-.54-.6,2.929,2.929,0,0,0-.96-.6Zm.96,4.92h4.02v1.56h-4.02Zm4.02-.24h-4.02v-1.56h4.02Zm-1.62-1.86V287.6c.18,0,.3,0,.36-.06a.312.312,0,0,0,.12-.24l-1.2-.06v3.42H519.4l-.72-.36v7.14a1.351,1.351,0,0,1,.42-.06l.24-.18v-2.64h4.02v1.86a.22.22,0,0,1-.18.06h-1.2v.18a1.332,1.332,0,0,1,.54.06.551.551,0,0,1,.36.24.7.7,0,0,1,.12.42,6.227,6.227,0,0,0,.72-.18.8.8,0,0,0,.3-.36,1.661,1.661,0,0,0,.06-.54v-5.16l.3-.12.18-.12-.96-.66-.36.42Z"/>
  <path d="M426.94,295.7l.18.12.12.06q.27,0,.36-.36a1.686,1.686,0,0,0,.18-.9,6.641,6.641,0,0,0-.3-1.68,7.246,7.246,0,0,0-1.08-2.16l-.18.06a11.851,11.851,0,0,1,.48,1.56l.18,1.62a12.559,12.559,0,0,1,.06,1.44v.24m4.02.84H429.4a12.55,12.55,0,0,0,.66-1.8l.54-1.92c.18-.6.3-1.14.42-1.68.18,0,.24,0,.3-.06s.12-.12.12-.18l-1.26-.24-.24,1.92-.36,2.04a18.032,18.032,0,0,1-.42,1.92h-4.2l.06.3h6.9c.18,0,.3,0,.36-.06l.18-.18-1.02-.72Zm-5.52-6.6h6.18c.18,0,.3,0,.36-.06l.18-.18-1.02-.72-.48.66h-1.74V287.6c.18,0,.3,0,.36-.06a.312.312,0,0,0,.12-.24l-1.2-.12v2.46h-2.82Zm-3.12,3,.72-.78a5.437,5.437,0,0,0,.66-.96v6.18h.12a.89.89,0,0,0,.42-.06q.18-.09.18-.18v-6.72l.24-.06.06-.12-.36-.12.54-1.14.48-1.2a.45.45,0,0,0,.3-.06l.12-.12-1.14-.42a11.406,11.406,0,0,1-.72,2.16c-.3.72-.54,1.38-.84,1.98a11.826,11.826,0,0,1-.96,1.56Zm-4.14-3.24.9-.84c.3-.3.6-.66.9-1.02h.3l.12-.12-1.08-.54a9.032,9.032,0,0,1-.66,1.32c-.24.42-.48.78-.66,1.08Zm-3.06-2.4a1.307,1.307,0,0,1,.42.54l.36.6a3.1,3.1,0,0,1,.12.66c.06.06.12.12.18.12l.18.06a.33.33,0,0,0,.3-.18.507.507,0,0,0,.12-.36,1.29,1.29,0,0,0-.36-.78,3.193,3.193,0,0,0-1.2-.78Zm-2.76.24.48.54a1.245,1.245,0,0,1,.36.6l.24.6.18.12h.12a.458.458,0,0,0,.3-.12.507.507,0,0,0,.12-.36.8.8,0,0,0-.18-.48,1.147,1.147,0,0,0-.54-.54,3.263,3.263,0,0,0-1.02-.42Zm4.32,4.26h2.46v1.44h-2.46Zm-3.06,0h2.34v1.44h-2.34Zm5.52-.24h-2.46v-1.44h2.46Zm-3.18,0h-2.34v-1.44h2.34Zm3.9,3.3h-3.18v-1.38h2.46v.54a.89.89,0,0,0,.42-.06l.24-.12.06-.06V290.3a.45.45,0,0,0,.3-.06l.18-.12-.96-.72-.36.48h-5.34l-.78-.36v4.56a1.17,1.17,0,0,0,.48-.06l.18-.12.06-.06v-.36h2.34v1.38h-4.74l.06.24h4.68v2.28h.12a1.17,1.17,0,0,0,.48-.06l.12-.18V295.1H421c.18,0,.3,0,.36-.06l.18-.18-1.08-.72Z"/>
  <polyline points="403.84 618.015 558.7 618.015 558.7 280.635" style="fill: none;stroke: #000;stroke-linecap: round;stroke-linejoin: round;stroke-width: 1.08000004291534px"/>
  <line x1="367.78" y1="618.015" x2="403.84" y2="618.015" style="fill: none;stroke: #000;stroke-linecap: round;stroke-linejoin: round;stroke-width: 1.08000004291534px"/>
  <polyline points="36.7 280.635 36.7 618.015 367.78 618.015" style="fill: none;stroke: #000;stroke-linecap: round;stroke-linejoin: round;stroke-width: 1.08000004291534px"/>
  <line x1="440.68" y1="618.015" x2="440.68" y2="280.635" style="fill: none;stroke: #000;stroke-linecap: round;stroke-linejoin: round;stroke-width: 0.059999998658895px"/>
  <line x1="403.84" y1="618.015" x2="403.84" y2="280.635" style="fill: none;stroke: #000;stroke-linecap: round;stroke-linejoin: round;stroke-width: 0.059999998658895px"/>
  <line x1="503.02" y1="618.015" x2="503.02" y2="280.635" style="fill: none;stroke: #000;stroke-linecap: round;stroke-linejoin: round;stroke-width: 0.059999998658895px"/>
  <line x1="367.78" y1="618.015" x2="367.78" y2="280.635" style="fill: none;stroke: #000;stroke-linecap: round;stroke-linejoin: round;stroke-width: 0.059999998658895px"/>
  <line x1="98.2" y1="618.015" x2="98.2" y2="280.635" style="fill: none;stroke: #000;stroke-linecap: round;stroke-linejoin: round;stroke-width: 0.059999998658895px"/>
  <rect x="36.7" y="617.775" width="522" height="22.02" style="fill: #fff"/>
  <rect x="36.7" y="617.775" width="522" height="22.02" style="fill: none;stroke: #000;stroke-linecap: round;stroke-linejoin: round;stroke-width: 1.01999998092651px"/>
  <rect x="440.68" y="617.355" width="0.06" height="22.8" style="fill: none;stroke: #000;stroke-linecap: round;stroke-linejoin: round;stroke-width: 1.01999998092651px"/>
  <rect x="503.02" y="617.355" width="0.06" height="22.8" style="fill: none;stroke: #000;stroke-linecap: round;stroke-linejoin: round;stroke-width: 1.01999998092651px"/>
  <text transform="translate(468.317 264.405)" style="font-size: 18px;fill: #222;font-family: HGMaruGothicMPRO">.-</text>
  <g id="変数">
    <text transform="translate(38.98 120.135)" style="font-size: 18px;fill: #222;font-family: MS-PMincho, MS PMincho">%%printBillLite1_1_%%</text>
    <text transform="translate(38.98 167.235)" style="font-size: 13.979999542236328px;fill: #222;font-family: MS-PMincho, MS PMincho">%%printBillLite1_3_%%</text>
    <text id="_date_-右寄" data-name="$date$-右寄" text-anchor="end" transform="translate(556.595 83.894)" style="font-size: 10.979999542236328px;font-family: MS-PMincho, MS PMincho">%%printBillLite1_2_%%</text>
    <image id="_icon_" data-name="$icon$" width="717" height="132" transform="translate(346.24 91.935) scale(0.24)" xlink:href="%%printBillLite1_14_%%"/>
    <text transform="translate(348.46 143.655)" style="font-size: 18px;fill: #222;font-family: MS-PMincho, MS PMincho">%%printBillLite1_7_%%</text>
    <text transform="translate(349.12 158.115)" style="font-size: 10.020000457763672px;font-family: MS-PMincho, MS PMincho">%%printBillLite1_8_%%</text>
    <text transform="translate(358.567 172.335)" style="font-size: 10.020000457763672px;font-family: MS-PMincho, MS PMincho;letter-spacing: 0.0020466877807485714em">%%printBillLite1_9_%%</text>
    <text transform="translate(349.12 184.875)" style="font-size: 10.020000457763672px;font-family: MS-PMincho, MS PMincho">%%printBillLite1_10_%%</text>
    <text transform="translate(375.249 197.415)" style="font-size: 10.020000457763672px;font-family: MS-PMincho, MS PMincho;letter-spacing: -0.0019492264578557825em">%%printBillLite1_11_%%</text>
    <text transform="translate(375.249 209.916)" style="font-size: 10.020000457763672px;font-family: MS-PMincho, MS PMincho;letter-spacing: -0.0019492264578557825em">%%printBillLite1_12_%%</text>
    <text transform="translate(447.4 222.495)" style="font-size: 10.020000457763672px;font-family: MS-PMincho, MS PMincho;letter-spacing: 0.0009746132289278912em">%%printBillLite1_13_%%</text>
    <text id="_totalprice_-右寄" data-name="$totalprice$-右寄" text-anchor="end" transform="translate(465.099 264.405)" style="font-size: 18px;fill: #222;font-family: HGMaruGothicMPRO">%%printBillLite1_4_%%</text>
    <g class="repeat_j" style="display: none;">
      <text transform="translate(43.552 316.678)" style="font-size: 10.020000457763672px;font-family: MS-PMincho, MS PMincho">%%printBillLite1_36_%{i}_%%</text>
      <text transform="translate(101.691 316.678)" style="font-size: 10.020000457763672px;font-family: MS-PMincho, MS PMincho">%%printBillLite1_37_%{i}_%%</text>
      <text id="_m1-3_-中央" data-name="$m1-3$-中央" text-anchor="middle" transform="translate(385.116 316.678)" style="font-size: 10.020000457763672px;font-family: MS-PMincho, MS PMincho">%%printBillLite1_38_%{i}_%%</text>
      <text id="_m1-4_-中央" data-name="$m1-4$-中央" text-anchor="middle" transform="translate(422.563 316.678)" style="font-size: 10.020000457763672px;font-family: MS-PMincho, MS PMincho">%%printBillLite1_39_%{i}_%%</text>
      <text id="_m1-5_-右寄" data-name="$m1-5$-右寄" text-anchor="end" transform="translate(498.65 316.678)" style="font-size: 10.020000457763672px;font-family: MS-PMincho, MS PMincho">%%printBillLite1_40_%{i}_%%</text>
      <text id="_m1-6_-右寄" data-name="$m1-6$-右寄" text-anchor="end" transform="translate(553.4 316.678)" style="font-size: 10.020000457763672px;font-family: MS-PMincho, MS PMincho">%%printBillLite1_41_%{i}_%%</text>
    </g>
    <text id="_price_-右寄" data-name="$price$-右寄" text-anchor="end" transform="translate(499.27 632.415)" style="font-size: 10.020000457763672px;fill: #222;font-family: MS-UIGothic, MS UI Gothic">%%printBillLite1_5_%%</text>
    <text id="_tax_-右寄" data-name="$tax$-右寄" text-anchor="end" transform="translate(554.334 632.415)" style="font-size: 10.020000457763672px;fill: #222;font-family: MS-UIGothic, MS UI Gothic">%%printBillLite1_6_%%</text>
    <g id="bank1" class="repeat_i" style="display: none;">
      <text transform="translate(42.969 680.943)" style="font-size: 9px;fill: #222;font-family: MS-PMincho, MS PMincho">%%printBillLite1_15_%{i}_%%</text>
      <text transform="translate(107.253 680.943)" style="font-size: 9px;fill: #222;font-family: MS-PMincho, MS PMincho">%%printBillLite1_16_%{i}_%%</text>
      <text transform="translate(175.226 680.944)" style="font-size: 9px;fill: #222;font-family: MS-PMincho, MS PMincho">%%printBillLite1_17_%{i}_%%</text>
      <text transform="translate(219.565 680.944)" style="font-size: 9px;fill: #222;font-family: MS-PMincho, MS PMincho">%%printBillLite1_18_%{i}_%%</text>
    </g>
    <text id="_page_-中央" data-name="$page$-中央" text-anchor="middle" transform="translate(282.913 794.835)" style="font-size: 10.020000457763672px;fill: #222;font-family: MS-UIGothic, MS UI Gothic">%%printBillLite1_35_%%</text>
  </g>
</svg>
