<svg id="内訳明細書_2" xmlns="http://www.w3.org/2000/svg" width="842" height="595.22" viewBox="0 0 842 595.22">
  <style>text{font-family: IPA Mincho, IPAMincho, MS-PMincho, MS PMincho, IPA Gothic, IPAGothic;}</style>
  <rect x="16" y="15.61" width="810" height="564" style="fill: #fff"/>
  <g transform="translate(350, 63)">
    <text transform="translate(0, 0)" font-size="30" fill="#000" font-weight="bold">内</text>
    <text transform="translate(28, 0)" font-size="30" fill="#000" font-weight="bold">訳</text>
    <text transform="translate(56, 0)" font-size="30" fill="#000" font-weight="bold">明</text>
    <text transform="translate(84, 0)" font-size="30" fill="#000" font-weight="bold">細</text>
    <text transform="translate(112, 0)" font-size="30" fill="#000" font-weight="bold">書</text>
  </g>
  <!-- ヘッダー-->
  <g>
    <path d="M468.64,137.53v0m44.64,0V115.57H38.02v21.96Zm117.9-21.96v21.96h88.74v0h84.06V115.57Zm-65.46,0v0h65.46v21.96H513.28V115.57Z" style="fill: #eee;fill-rule: evenodd"/>
    <rect x="38.02" y="115.57" width="765.96" height="21.96" style="fill: none;stroke: #000;stroke-miterlimit: 10"/>
    <line x1="565.72" y1="115.57" x2="565.72" y2="137.53" style="fill: none;stroke: #000;stroke-linecap: round;stroke-linejoin: round;stroke-width: 1px"/>
    <line x1="631.18" y1="137.53" x2="631.18" y2="115.57" style="fill: none;stroke: #000;stroke-linecap: round;stroke-linejoin: round;stroke-width: 1px"/>
    <line x1="513.28" y1="115.57" x2="513.28" y2="137.53" style="fill: none;stroke: #000;stroke-linecap: round;stroke-linejoin: round;stroke-width: 1px"/>
    <line x1="468.641" y1="137.53" x2="468.641" y2="115.57" style="fill: none;stroke: #000;stroke-linecap: round;stroke-linejoin: round;stroke-width: 1px"/>
    <line x1="719.92" y1="115.57" x2="719.92" y2="137.53" style="fill: none;stroke: #000;stroke-linecap: round;stroke-linejoin: round;stroke-width: 1px"/>
    <g transform="translate(240, 131)">
      <text transform="translate(0, 0)" font-size="12" fill="#000" font-weight="bold">明</text>
      <text transform="translate(13, 0)" font-size="12" fill="#000" font-weight="bold">細</text>
    </g>
    <g transform="translate(478, 131)">
      <text transform="translate(0, 0)" font-size="12" fill="#000" font-weight="bold">数</text>
      <text transform="translate(13, 0)" font-size="12" fill="#000" font-weight="bold">量</text>
    </g>
    <g transform="translate(526, 131)">
      <text transform="translate(0, 0)" font-size="12" fill="#000" font-weight="bold">単</text>
      <text transform="translate(13, 0)" font-size="12" fill="#000" font-weight="bold">位</text>
    </g>
    <g transform="translate(585, 131)">
      <text transform="translate(0, 0)" font-size="12" fill="#000" font-weight="bold">単</text>
      <text transform="translate(13, 0)" font-size="12" fill="#000" font-weight="bold">価</text>
    </g>
    <g transform="translate(663, 131)">
      <text transform="translate(0, 0)" font-size="12" fill="#000" font-weight="bold">金</text>
      <text transform="translate(13, 0)" font-size="12" fill="#000" font-weight="bold">額</text>
    </g>
    <g transform="translate(749, 131)">
      <text transform="translate(0, 0)" font-size="12" fill="#000" font-weight="bold">備</text>
      <text transform="translate(13, 0)" font-size="12" fill="#000" font-weight="bold">考</text>
    </g>
  </g>

  <!-- ===== template_1 ===== -->
  <g class="template_1" style="display: none;">
    <!-- template_1 -->
    <!-- 大項目 -->
    <!-- level : i -->
    <g class="hide_i">
      <rect x="38.201" y="137.59" width="765.6" height="22.02" style="fill: #fff"/>
      <line x1="565.66" y1="137.59" x2="565.66" y2="159.61" style="fill: none;stroke: #000;stroke-linecap: round;stroke-linejoin: round;stroke-width: 1px"/>
      <line x1="513.34" y1="137.59" x2="513.34" y2="159.61" style="fill: none;stroke: #000;stroke-linecap: round;stroke-linejoin: round;stroke-width: 1px"/>
      <line x1="69.46" y1="137.59" x2="69.46" y2="159.61" style="fill: none;stroke: #000;stroke-linecap: round;stroke-linejoin: round;stroke-width: 1px"/>
      <line x1="719.98" y1="159.61" x2="719.98" y2="137.59" style="fill: none;stroke: #000;stroke-linecap: round;stroke-linejoin: round;stroke-width: 1px"/>
      <line x1="631.24" y1="137.59" x2="631.24" y2="159.61" style="fill: none;stroke: #000;stroke-linecap: round;stroke-linejoin: round;stroke-width: 1px"/>
      <line x1="468.82" y1="159.61" x2="468.82" y2="137.59" style="fill: none;stroke: #000;stroke-linecap: round;stroke-linejoin: round;stroke-width: 1px"/>
      <line x1="804.04" y1="137.59" x2="804.04" y2="159.61" style="fill: none;stroke: #000;stroke-linecap: round;stroke-linejoin: round;stroke-width: 1px"/>
      <line x1="38.02" y1="159.61" x2="38.02" y2="137.59" style="fill: none;stroke: #000;stroke-linecap: round;stroke-linejoin: round;stroke-width: 1px"/>
      <line x1="804.04" y1="137.59" x2="38.02" y2="137.59" style="fill: none;stroke: #000;stroke-linecap: round;stroke-linejoin: round;stroke-width: 1px"/>
      <line x1="804.04" y1="159.61" x2="38.02" y2="159.61" style="fill: none;stroke: #000;stroke-linecap: round;stroke-linejoin: round;stroke-width: 1px"/>
      <text id="_line1-1_-中央" text-anchor="middle" transform="translate(53.851 152.281)" style="font-size: 10px;">%%printKouji3_1_%{i}_%%</text>
      <text transform="translate(74.22 152.281)" style="font-size: 10px;">%%printKouji3_2_%{i}_%%</text>
    </g>
    <!-- level : i -->
  </g>

  <!-- ===== template_2 ===== -->
  <g class="template_2" style="display: none;">
    <!-- template_2 -->
    <!-- 中計 -->
    <!-- level : i -->
    <g transform="translate(0 -88)">
      <polygon points="493.18 226.229 433.42 226.229 381.4 226.229 69.46 226.229 38.02 226.229 38.02 248.189 493.18 248.189 582.22 248.189 803.98 248.189 803.98 226.229 493.18 226.229" style="fill: #eee;fill-rule: evenodd"/>
      <rect x="38.02" y="226.229" width="765.96" height="21.96" style="fill: none;stroke: #000;stroke-miterlimit: 10;stroke-width: 1px"/>
      <line x1="631.18" y1="248.189" x2="631.18" y2="226.229" style="fill: none;stroke: #000;stroke-linecap: round;stroke-linejoin: round;stroke-width: 1px"/>
      <line x1="719.98" y1="226.229" x2="719.98" y2="248.189" style="fill: none;stroke: #000;stroke-linecap: round;stroke-linejoin: round;stroke-width: 1px"/>
      <line x1="202.66" y1="248.169" x2="202.66" y2="226.149" style="fill: none;stroke: #000;stroke-linecap: round;stroke-linejoin: round;stroke-width: 1px"/>
      <line x1="468.64" y1="226.229" x2="468.64" y2="248.189" style="fill: none;stroke: #000;stroke-linecap: round;stroke-linejoin: round;stroke-width: 1px"/>
      <text id="_intermediate_右寄" text-anchor="end" transform="translate(715.672 240.359)" style="font-size: 10px;">%%printKouji3_24_%{i}_%%</text>
<!--      <text id="_intermediate-note_" transform="translate(723.814 240.36)" style="font-size: 10px;">%%printKouji3_25_%{i}_%%</text>-->
      <g transform="translate(322 242)">
        <text transform="translate(0, 0)" font-size="14" font-weight="bold">中</text>
        <text transform="translate(12, 0)" font-size="14" font-weight="bold">計</text>
      </g>
    </g>
    <!-- level : i -->
  </g>

  <!-- ===== template_3 ===== -->
  <g class="template_3" style="display: none;">
    <!-- template_3 -->
    <!-- 中項目 -->
    <!-- level : j -->
    <g transform="translate(0, -22)">
      <g class="hide_j">
        <rect x="38.201" y="159.61" width="765.6" height="22.02" style="fill: #fff"/>
        <line x1="565.66" y1="159.61" x2="565.66" y2="181.63" style="fill: none;stroke: #000;stroke-linecap: round;stroke-linejoin: round;stroke-width: 1px"/>
        <line x1="513.34" y1="159.61" x2="513.34" y2="181.63" style="fill: none;stroke: #000;stroke-linecap: round;stroke-linejoin: round;stroke-width: 1px"/>
        <line x1="69.46" y1="159.61" x2="69.46" y2="181.63" style="fill: none;stroke: #000;stroke-linecap: round;stroke-linejoin: round;stroke-width: 1px"/>
        <line x1="719.98" y1="181.63" x2="719.98" y2="159.61" style="fill: none;stroke: #000;stroke-linecap: round;stroke-linejoin: round;stroke-width: 1px"/>
        <line x1="631.24" y1="159.61" x2="631.24" y2="181.63" style="fill: none;stroke: #000;stroke-linecap: round;stroke-linejoin: round;stroke-width: 1px"/>
        <line x1="468.82" y1="181.63" x2="468.82" y2="159.61" style="fill: none;stroke: #000;stroke-linecap: round;stroke-linejoin: round;stroke-width: 1px"/>
        <line x1="804.04" y1="159.61" x2="804.04" y2="181.63" style="fill: none;stroke: #000;stroke-linecap: round;stroke-linejoin: round;stroke-width: 1px"/>
        <line x1="38.02" y1="181.63" x2="38.02" y2="159.61" style="fill: none;stroke: #000;stroke-linecap: round;stroke-linejoin: round;stroke-width: 1px"/>
        <line x1="804.04" y1="159.61" x2="38.02" y2="159.61" style="fill: none;stroke: #000;stroke-linecap: round;stroke-linejoin: round;stroke-width: 1px"/>
        <line x1="804.04" y1="181.63" x2="38.02" y2="181.63" style="fill: none;stroke: #000;stroke-linecap: round;stroke-linejoin: round;stroke-width: 1px"/>
        <text id="_line2-2_" transform="translate(83.88 174.301)" style="font-size: 10px;">%%printKouji3_9_%{i}_%{j}_%%</text>
      </g>
    </g>
    <!-- level : j -->
  </g>

  <!-- ===== template_4 ===== -->
  <g class="template_4" style="display: none;">
    <!-- template_4 -->
    <!-- 小計 -->
    <!-- level : j -->
    <g transform="translate(0, -66)">
      <polygon points="493.18 204.269 433.42 204.269 381.4 204.269 69.46 204.269 38.02 204.269 38.02 226.229 493.18 226.229 582.22 226.229 803.98 226.229 803.98 204.269 493.18 204.269" style="fill: #eee;fill-rule: evenodd"/>
      <rect x="38.02" y="204.269" width="765.96" height="21.96" style="fill: none;stroke: #000;stroke-miterlimit: 10;stroke-width: 1px"/>
      <line x1="631.18" y1="226.229" x2="631.18" y2="204.269" style="fill: none;stroke: #000;stroke-linecap: round;stroke-linejoin: round;stroke-width: 1px"/>
      <line x1="719.98" y1="204.269" x2="719.98" y2="226.229" style="fill: none;stroke: #000;stroke-linecap: round;stroke-linejoin: round;stroke-width: 1px"/>
      <line x1="202.66" y1="226.209" x2="202.66" y2="204.189" style="fill: none;stroke: #000;stroke-linecap: round;stroke-linejoin: round;stroke-width: 1px"/>
      <line x1="468.64" y1="204.269" x2="468.64" y2="226.229" style="fill: none;stroke: #000;stroke-linecap: round;stroke-linejoin: round;stroke-width: 1px"/>
      <g transform="translate(322 219)">
        <text transform="translate(0, 0)" font-size="13" font-weight="bold">小</text>
        <text transform="translate(13, 0)" font-size="13" font-weight="bold">計</text>
      </g>
      <text id="_subtotal_右寄" text-anchor="end" transform="translate(715.671 218.399)" style="font-size: 10px;">%%printKouji3_22_%{i}_%{j}_%%</text>
<!--        <text id="_subtotal-note_" transform="translate(723.814 218.4)" style="font-size: 10px;">%%printKouji3_23_%{i}_%{j}_%%</text>-->
    </g>
    <!-- level : j -->
  </g>

  <!-- ===== template_5 ===== -->
  <g class="template_5" style="display: none;">
    <!-- template_5 -->
    <!-- 小項目 -->
    <!-- level : k -->
    <g transform="translate(0, -44)">
      <rect x="38.201" y="181.63" width="765.6" height="22.02" style="fill: #fff"/>
      <line x1="565.66" y1="181.63" x2="565.66" y2="203.65" style="fill: none;stroke: #000;stroke-linecap: round;stroke-linejoin: round;stroke-width: 1px"/>
      <line x1="513.34" y1="181.63" x2="513.34" y2="203.65" style="fill: none;stroke: #000;stroke-linecap: round;stroke-linejoin: round;stroke-width: 1px"/>
      <line x1="69.46" y1="181.63" x2="69.46" y2="203.65" style="fill: none;stroke: #000;stroke-linecap: round;stroke-linejoin: round;stroke-width: 1px"/>
      <line x1="719.98" y1="203.65" x2="719.98" y2="181.63" style="fill: none;stroke: #000;stroke-linecap: round;stroke-linejoin: round;stroke-width: 1px"/>
      <line x1="631.24" y1="181.63" x2="631.24" y2="203.65" style="fill: none;stroke: #000;stroke-linecap: round;stroke-linejoin: round;stroke-width: 1px"/>
      <line x1="468.82" y1="203.65" x2="468.82" y2="181.63" style="fill: none;stroke: #000;stroke-linecap: round;stroke-linejoin: round;stroke-width: 1px"/>
      <line x1="804.04" y1="181.63" x2="804.04" y2="203.65" style="fill: none;stroke: #000;stroke-linecap: round;stroke-linejoin: round;stroke-width: 1px"/>
      <line x1="38.02" y1="203.65" x2="38.02" y2="181.63" style="fill: none;stroke: #000;stroke-linecap: round;stroke-linejoin: round;stroke-width: 1px"/>
      <line x1="804.04" y1="181.63" x2="38.02" y2="181.63" style="fill: none;stroke: #000;stroke-linecap: round;stroke-linejoin: round;stroke-width: 1px"/>
      <line x1="804.04" y1="203.65" x2="38.02" y2="203.65" style="fill: none;stroke: #000;stroke-linecap: round;stroke-linejoin: round;stroke-width: 1px"/>
      <text id="_line3-2_" transform="translate(95.201 196.321)" style="font-size: 10px;">%%printKouji3_16_%{i}_%{j}_%{k}_%%</text>
      <text id="_line3-3_-中央" text-anchor="middle" transform="translate(492.414 196.198)" style="font-size: 10px;">%%printKouji3_17_%{i}_%{j}_%{k}_%%</text>
      <text id="_line3-4_-中央" text-anchor="middle" transform="translate(538.913 196.321)" style="font-size: 10px;">%%printKouji3_18_%{i}_%{j}_%{k}_%%</text>
      <text id="_line3-5_-右寄" text-anchor="end" transform="translate(627.706 196.321)" style="font-size: 10px;">%%printKouji3_19_%{i}_%{j}_%{k}_%%</text>
      <text id="_line3-6_右寄" text-anchor="end" transform="translate(715.672 196.321)" style="font-size: 10px;">%%printKouji3_20_%{i}_%{j}_%{k}_%%</text>
      <text id="_line3-7_" transform="translate(723.814 196.321)" style="font-size: 10px;">%%printKouji3_21_%{i}_%{j}_%{k}_%%</text>
    </g>
    <!-- level : k -->
  </g>

  <!-- ===== template_6 ===== -->
  <g class="template_6" style="display:none;">
    <!-- template_6 -->
    <!-- 合計 -->
    <g transform="translate(0 -110)">
      <polygon points="493.18 247.972 433.42 247.972 381.4 247.972 69.46 247.972 38.02 247.972 38.02 269.932 493.18 269.932 582.22 269.932 803.98 269.932 803.98 247.972 493.18 247.972" style="fill: #eee;fill-rule: evenodd"/>
      <rect x="38.02" y="247.972" width="765.96" height="21.96" style="fill: none;stroke: #000;stroke-miterlimit: 10;stroke-width: 1px"/>
      <line x1="631.18" y1="269.932" x2="631.18" y2="247.972" style="fill: none;stroke: #000;stroke-linecap: round;stroke-linejoin: round;stroke-width: 1px"/>
      <line x1="719.98" y1="247.972" x2="719.98" y2="269.932" style="fill: none;stroke: #000;stroke-linecap: round;stroke-linejoin: round;stroke-width: 1px"/>
      <line x1="202.66" y1="269.912" x2="202.66" y2="247.892" style="fill: none;stroke: #000;stroke-linecap: round;stroke-linejoin: round;stroke-width: 1px"/>
      <line x1="468.64" y1="247.972" x2="468.64" y2="269.932" style="fill: none;stroke: #000;stroke-linecap: round;stroke-linejoin: round;stroke-width: 1px"/>
      <text id="_total_右寄" text-anchor="end" transform="translate(715.672 262.103)" style="font-size: 10px;">%%printKouji3_26_%%</text>
      <g transform="translate(322 263)">
        <text transform="translate(0, 0)" font-size="13" font-weight="bold">合</text>
        <text transform="translate(13, 0)" font-size="13" font-weight="bold">計</text>
      </g>
    </g>
  </g>
  <!-- ===== template_7 ===== -->
  <g class="template_7" style="display:none;">
    <!-- template_7 -->
    <!-- 税抜合計金額: 請求書用 -->
    <g transform="translate(0 -132)">
      <polygon points="493.18 269.616 433.42 269.616 381.4 269.616 69.46 269.616 38.02 269.616 38.02 291.575 493.18 291.575 582.22 291.575 803.98 291.575 803.98 269.616 493.18 269.616" style="fill: #ccc;fill-rule: evenodd"/>
      <rect x="38.02" y="269.616" width="765.96" height="21.96" style="fill: none;stroke: #000;stroke-miterlimit: 10;stroke-width: 1px"/>
      <line x1="631.18" y1="291.575" x2="631.18" y2="269.615" style="fill: none;stroke: #000;stroke-linecap: round;stroke-linejoin: round;stroke-width: 1px"/>
      <line x1="719.98" y1="269.615" x2="719.98" y2="291.575" style="fill: none;stroke: #000;stroke-linecap: round;stroke-linejoin: round;stroke-width: 1px"/>
      <line x1="202.66" y1="292.555" x2="202.66" y2="270.535" style="fill: none;stroke: #000;stroke-linecap: round;stroke-linejoin: round;stroke-width: 1px"/>
      <line x1="468.64" y1="269.615" x2="468.64" y2="291.575" style="fill: none;stroke: #000;stroke-linecap: round;stroke-linejoin: round;stroke-width: 1px"/>
      <text id="_total_右寄-2" text-anchor="end" transform="translate(715.671 283.746)" style="font-size: 10px;">%%printKouji3_28_%%</text>
      <g transform="translate(299 285)">
        <text transform="translate(0, 0)" font-size="13" font-weight="bold">税</text>
        <text transform="translate(11.8, 0)" font-size="13" font-weight="bold">抜</text>
        <text transform="translate(23.6, 0)" font-size="13" font-weight="bold">合</text>
        <text transform="translate(35.4, 0)" font-size="13" font-weight="bold">計</text>
        <text transform="translate(47.2, 0)" font-size="13" font-weight="bold">金</text>
        <text transform="translate(59, 0)" font-size="13" font-weight="bold">額</text>
      </g>
    </g>
  </g>
  <!-- ===== template_12 ===== -->
  <g class="template_12" style="display:none;">
    <!-- template_12 -->
    <!-- 税抜見積金額: 見積書用 -->
    <g transform="translate(0 -132)">
      <polygon points="493.18 269.616 433.42 269.616 381.4 269.616 69.46 269.616 38.02 269.616 38.02 291.575 493.18 291.575 582.22 291.575 803.98 291.575 803.98 269.616 493.18 269.616" style="fill: #ccc;fill-rule: evenodd"/>
      <rect x="38.02" y="269.616" width="765.96" height="21.96" style="fill: none;stroke: #000;stroke-miterlimit: 10;stroke-width: 1px"/>
      <line x1="631.18" y1="291.575" x2="631.18" y2="269.615" style="fill: none;stroke: #000;stroke-linecap: round;stroke-linejoin: round;stroke-width: 1px"/>
      <line x1="719.98" y1="269.615" x2="719.98" y2="291.575" style="fill: none;stroke: #000;stroke-linecap: round;stroke-linejoin: round;stroke-width: 1px"/>
      <line x1="202.66" y1="292.555" x2="202.66" y2="270.535" style="fill: none;stroke: #000;stroke-linecap: round;stroke-linejoin: round;stroke-width: 1px"/>
      <line x1="468.64" y1="269.615" x2="468.64" y2="291.575" style="fill: none;stroke: #000;stroke-linecap: round;stroke-linejoin: round;stroke-width: 1px"/>
      <text id="_total_右寄-2" text-anchor="end" transform="translate(715.671 283.746)" style="font-size: 10px;">%%printKouji3_36_%%</text>
      <g transform="translate(299 285)">
        <text transform="translate(0, 0)" font-size="13" font-weight="bold">税</text>
        <text transform="translate(11.8, 0)" font-size="13" font-weight="bold">抜</text>
        <text transform="translate(23.6, 0)" font-size="13" font-weight="bold">見</text>
        <text transform="translate(35.4, 0)" font-size="13" font-weight="bold">積</text>
        <text transform="translate(47.2, 0)" font-size="13" font-weight="bold">金</text>
        <text transform="translate(59, 0)" font-size="13" font-weight="bold">額</text>
      </g>
    </g>
  </g>
  <!-- ===== template_8 ===== -->
  <g class="template_8" style="display:none;">
    <!-- template_8 -->
    <!-- 消費税 -->
    <g transform="translate(0 -154)">
      <polygon points="493.18 291.259 433.42 291.259 381.4 291.259 69.46 291.259 38.02 291.259 38.02 313.219 493.18 313.219 582.22 313.219 803.98 313.219 803.98 291.259 493.18 291.259" style="fill: #ccc;fill-rule: evenodd"/>
      <rect x="38.02" y="291.259" width="765.96" height="21.96" style="fill: none;stroke: #000;stroke-miterlimit: 10;stroke-width: 1px"/>
      <line x1="631.18" y1="313.219" x2="631.18" y2="291.259" style="fill: none;stroke: #000;stroke-linecap: round;stroke-linejoin: round;stroke-width: 1px"/>
      <line x1="719.98" y1="291.259" x2="719.98" y2="313.219" style="fill: none;stroke: #000;stroke-linecap: round;stroke-linejoin: round;stroke-width: 1px"/>
      <line x1="202.66" y1="314.199" x2="202.66" y2="292.179" style="fill: none;stroke: #000;stroke-linecap: round;stroke-linejoin: round;stroke-width: 1px"/>
      <line x1="468.64" y1="291.259" x2="468.64" y2="313.219" style="fill: none;stroke: #000;stroke-linecap: round;stroke-linejoin: round;stroke-width: 1px"/>
      <text id="_total_右寄-3" text-anchor="end" transform="translate(715.672 305.389)" style="font-size: 10px;">%%printKouji3_30_%%</text>
      <g transform="translate(317 307)">
        <text transform="translate(0, 0)" font-size="13" font-weight="bold">消</text>
        <text transform="translate(11.5, 0)" font-size="13" font-weight="bold">費</text>
        <text transform="translate(23, 0)" font-size="13" font-weight="bold">税</text>
      </g>
    </g>
  </g>
  <!-- ===== template_9 ===== -->
  <g class="template_9" style="display:none;">
    <!-- template_9 -->
    <!-- 税込合計金額: 請求書用 -->
    <g transform="translate(0 -176)">
      <polygon points="493.18 313.219 433.42 313.219 381.4 313.219 69.46 313.219 38.02 313.219 38.02 335.179 493.18 335.179 582.22 335.179 803.98 335.179 803.98 313.219 493.18 313.219" style="fill: #ccc;fill-rule: evenodd"/>
      <rect x="38.02" y="313.219" width="765.96" height="21.96" style="fill: none;stroke: #000;stroke-miterlimit: 10;stroke-width: 1px"/>
      <line x1="631.18" y1="335.179" x2="631.18" y2="313.219" style="fill: none;stroke: #000;stroke-linecap: round;stroke-linejoin: round;stroke-width: 1px"/>
      <line x1="719.98" y1="313.219" x2="719.98" y2="335.179" style="fill: none;stroke: #000;stroke-linecap: round;stroke-linejoin: round;stroke-width: 1px"/>
      <line x1="202.66" y1="336.159" x2="202.66" y2="314.139" style="fill: none;stroke: #000;stroke-linecap: round;stroke-linejoin: round;stroke-width: 1px"/>
      <line x1="468.64" y1="313.219" x2="468.64" y2="335.179" style="fill: none;stroke: #000;stroke-linecap: round;stroke-linejoin: round;stroke-width: 1px"/>
      <text id="_tax-included_右寄" text-anchor="end" transform="translate(715.671 327.349)" style="font-size: 10px;">%%printKouji3_32_%%</text>
      <g transform="translate(298 329)">
        <text transform="translate(0, 0)" font-size="13" font-weight="bold">税</text>
        <text transform="translate(12, 0)" font-size="13" font-weight="bold">込</text>
        <text transform="translate(24, 0)" font-size="13" font-weight="bold">合</text>
        <text transform="translate(36, 0)" font-size="13" font-weight="bold">計</text>
        <text transform="translate(48, 0)" font-size="13" font-weight="bold">金</text>
        <text transform="translate(60, 0)" font-size="13" font-weight="bold">額</text>
      </g>
    </g>
  </g>
  <!-- ===== template_11 ===== -->
  <g class="template_11" style="display:none;">
    <!-- template_11 -->
    <!-- 税込見積金額: 見積書用 -->
    <g transform="translate(0 -176)">
      <polygon points="493.18 313.219 433.42 313.219 381.4 313.219 69.46 313.219 38.02 313.219 38.02 335.179 493.18 335.179 582.22 335.179 803.98 335.179 803.98 313.219 493.18 313.219" style="fill: #ccc;fill-rule: evenodd"/>
      <rect x="38.02" y="313.219" width="765.96" height="21.96" style="fill: none;stroke: #000;stroke-miterlimit: 10;stroke-width: 1px"/>
      <line x1="631.18" y1="335.179" x2="631.18" y2="313.219" style="fill: none;stroke: #000;stroke-linecap: round;stroke-linejoin: round;stroke-width: 1px"/>
      <line x1="719.98" y1="313.219" x2="719.98" y2="335.179" style="fill: none;stroke: #000;stroke-linecap: round;stroke-linejoin: round;stroke-width: 1px"/>
      <line x1="202.66" y1="336.159" x2="202.66" y2="314.139" style="fill: none;stroke: #000;stroke-linecap: round;stroke-linejoin: round;stroke-width: 1px"/>
      <line x1="468.64" y1="313.219" x2="468.64" y2="335.179" style="fill: none;stroke: #000;stroke-linecap: round;stroke-linejoin: round;stroke-width: 1px"/>
      <text id="_tax-included_右寄" text-anchor="end" transform="translate(715.671 327.349)" style="font-size: 10px;">%%printKouji3_37_%%</text>
      <g transform="translate(298 329)">
        <text transform="translate(0, 0)" font-size="13" font-weight="bold">税</text>
        <text transform="translate(12, 0)" font-size="13" font-weight="bold">込</text>
        <text transform="translate(24, 0)" font-size="13" font-weight="bold">見</text>
        <text transform="translate(36, 0)" font-size="13" font-weight="bold">積</text>
        <text transform="translate(48, 0)" font-size="13" font-weight="bold">金</text>
        <text transform="translate(60, 0)" font-size="13" font-weight="bold">額</text>
      </g>
    </g>
  </g>

  <!-- ===== template_10 ===== -->
  <g class="template_10" style="display:none;">
    <!-- template_9 -->
    <!-- 調整金額 -->
    <g transform="translate(0 -131)">
      <polygon points="582.28 268.596 493.24 268.596 433.48 268.596 381.46 268.596 69.52 268.596 38.08 268.596 38.08 290.556 493.24 290.556 804.04 290.556 804.04 268.596 582.28 268.596" style="fill: #ccc"/>
      <line x1="720.04" y1="268.596" x2="720.04" y2="290.556" style="fill: none;stroke: #000;stroke-linecap: round;stroke-linejoin: round;stroke-width: 1px"/>
      <line x1="631.24" y1="268.596" x2="631.24" y2="290.556" style="fill: none;stroke: #000;stroke-linecap: round;stroke-linejoin: round;stroke-width: 1px"/>
      <line x1="468.88" y1="290.556" x2="468.88" y2="268.596" style="fill: none;stroke: #000;stroke-linecap: round;stroke-linejoin: round;stroke-width: 1px"/>
      <line x1="202.72" y1="268.596" x2="202.72" y2="290.556" style="fill: none;stroke: #000;stroke-linecap: round;stroke-linejoin: round;stroke-width: 1px"/>
      <rect x="38.08" y="268.596" width="765.96" height="21.96" style="fill: none;stroke: #000;stroke-linecap: round;stroke-linejoin: round;stroke-width: 1px"/>
      <g transform="translate(311 284)">
        <text transform="translate(0, 0)" font-size="13" font-weight="bold">調</text>
        <text transform="translate(12, 0)" font-size="13" font-weight="bold">整</text>
        <text transform="translate(24, 0)" font-size="13" font-weight="bold">金</text>
        <text transform="translate(36, 0)" font-size="13" font-weight="bold">額</text>
      </g>
      <text id="_adjustment_右寄" text-anchor="end" transform="translate(714.301 282.997)" style="font-size: 10px;">%%printKouji3_34_%%</text>
    </g>
  </g>
</svg>
