<svg id="print_estimate_genka" xmlns="http://www.w3.org/2000/svg" xmlns:xlink="http://www.w3.org/1999/xlink" width="842" height="595.22" viewBox="0 0 842 595.22">
  <rect x="16" y="15.61" width="810" height="564" style="fill: #fff"/>
  <path d="M216.1,68.89H56.14q-18.36,0-19.86,16.8l-.18,2.4V538.93q0,19.98,20.04,19.98h729.9q20.07,0,20.04-19.98V88.09l-.12-2.4a27.1,27.1,0,0,0-1.02-5.16c-2.4-7.74-8.7-11.64-18.9-11.64H612.1" style="fill: none;stroke: #000;stroke-linecap: round;stroke-linejoin: round;stroke-width: 1.0199999809265137px"/>
  <path d="M402.34,84.55V81.13H387.4v3.42Zm0-4.2V77.23H387.4v3.12Zm-18.3-5.64,3.96,1.8h14.04l1.68-1.86,2.58,1.8q.36.36.36.54c0,.18-.12.3-.3.48a6.632,6.632,0,0,1-.78.42q0,4.95.18,8.28a1.128,1.128,0,0,1-.24.6,6.071,6.071,0,0,1-2.4.3,1.17,1.17,0,0,1-.48-.06c-.18-.06-.24-.18-.3-.42V85.33H387.4v.9q0,.45-.18.54a6.126,6.126,0,0,1-2.34.24c-.42,0-.66-.06-.78-.24-.06-.06-.06-.24-.06-.48.06-2.04.12-4.44.12-7.2C384.16,77.53,384.1,76.09,384.04,74.71Zm18.6-8.82V62.83h-6.6v3.06Zm0-3.84V59.23h-6.6v2.82Zm1.74,5.46h-.84a2.052,2.052,0,0,1-.66-.06.551.551,0,0,1-.24-.36v-.42h-6.6v2.76h6.54a19.984,19.984,0,0,1,1.44-1.56Zm1.44-5.46h1.02l1.8-1.98a31.324,31.324,0,0,1,2.58,2.34l.12.24q0,.18-.36.18h-5.16c0,1.02.06,2.34.12,3.84q-.09.45-.36.54a2.6,2.6,0,0,1-.66.24l2.88,2.28c.06.12.12.18.12.24,0,.12-.12.18-.3.18H396.04v3h8.88l2.16-2.4c1.14.84,2.28,1.74,3.36,2.64a1.014,1.014,0,0,1,.12.3c0,.12-.12.18-.42.18H383.62a27.642,27.642,0,0,0-3.84.3l-.3-1.38a18.851,18.851,0,0,0,4.14.36h9.3v-3h-7.98a21.135,21.135,0,0,0-2.7.24L382,69.13a13.442,13.442,0,0,0,2.94.3h7.98V66.67h-7.38a17.416,17.416,0,0,0-2.58.18l-.24-1.2a13.831,13.831,0,0,0,2.94.24h7.26V62.83H382.6a23.363,23.363,0,0,0-3.18.18l-.24-1.26a18.779,18.779,0,0,0,3.48.3h10.26V59.23h-6.84a13.586,13.586,0,0,0-2.52.18l-.24-1.26a13.889,13.889,0,0,0,2.76.3h6.84l-.12-3.12c1.8.18,3.12.3,3.9.42.42.06.66.18.66.42,0,.18-.12.3-.36.42a8.975,8.975,0,0,1-.96.36v1.5h6.36l1.74-1.74,2.34,1.68a.726.726,0,0,1,.36.54.875.875,0,0,1-.3.48l-.72.36ZM353.44,83.59a32.869,32.869,0,0,1-4.08,1.86,36.6,36.6,0,0,1-5.46,1.5l-.12-.36a28.847,28.847,0,0,0,4.98-3,19.557,19.557,0,0,0,1.8-1.5,6.932,6.932,0,0,0,.78-.9c.84.42,1.92.9,3.3,1.5.36.18.54.3.54.48s-.12.3-.42.36C354.64,83.53,354.22,83.53,353.44,83.59Zm3.9-1.62.18-.36c3.96.48,6.36.96,7.2,1.5a2.024,2.024,0,0,1,1.02,1.32l.12.9a2.435,2.435,0,0,1-.24,1.14c-.18.42-.42.6-.72.6a1.8,1.8,0,0,1-1.08-.66,26.755,26.755,0,0,0-2.4-2.04,15.439,15.439,0,0,0-2.28-1.5Q358.69,82.6,357.34,81.97Zm3.36-2.34V76.75h-9.66v2.88Zm0-3.6V73.39h-9.66v2.64Zm0-3.42V70.15h-9.66v2.46Zm-12.72-4.74c1.08.42,2.22.96,3.42,1.5h9.06l1.5-1.5c.78.48,1.56,1.02,2.34,1.56.24.18.36.3.36.48s-.12.3-.36.48a6.459,6.459,0,0,1-.66.48v2.7c0,2.34.06,4.62.12,6.84q0,.63-.36.72a7.026,7.026,0,0,1-1.92.18,1.332,1.332,0,0,1-.54-.06.649.649,0,0,1-.24-.3v-.54h-9.66v.48c-.06.18-.12.36-.3.42a6.668,6.668,0,0,1-1.98.18,1.2,1.2,0,0,1-.54-.12c-.12-.06-.18-.18-.24-.42.06-1.8.12-3.48.12-5.04C348.1,71.71,348.04,69.01,347.98,67.87Zm9.18-8.46h4.02l2.16-2.16,3,2.34a.548.548,0,0,1,.18.3c0,.18-.12.24-.42.24h-8.94v2.64h3.54l1.02-.96.96-.9c.9.66,1.86,1.38,2.82,2.16l.12.24c0,.18-.12.24-.42.24h-8.04v2.94h4.98c.66-.66,1.32-1.38,2.1-2.16l2.94,2.4a.548.548,0,0,1,.18.3q0,.18-.36.18H348.4a5.176,5.176,0,0,0-1.68.24l-.24-1.2a15.193,15.193,0,0,0,1.92.24h5.76V63.55h-4.2a7.33,7.33,0,0,0-1.56.18l-.24-1.2a7.967,7.967,0,0,0,1.92.24h4.08V60.13h-5.04a8.439,8.439,0,0,0-1.68.18l-.24-1.2a7.714,7.714,0,0,0,2.1.3h4.86c-.06-1.14-.12-2.4-.18-3.66,1.68.18,3,.3,3.9.48.42.06.6.18.6.42s-.42.48-1.32.78Zm-14.1.12v5.7h.66l1.62-1.86,2.52,2.1a.548.548,0,0,1,.18.3c0,.18-.18.24-.48.24h-4.5v2.76a12.13,12.13,0,0,1,2.22,1.26c1.2.78,1.8,1.5,1.8,2.28a3.121,3.121,0,0,1-.6,1.86,1.344,1.344,0,0,1-.96.66c-.24,0-.42-.18-.48-.6a19.937,19.937,0,0,0-.66-2.34,6.109,6.109,0,0,0-1.32-2.4V86.23a.585.585,0,0,1-.24.54,6.888,6.888,0,0,1-2.04.18,1.291,1.291,0,0,1-.6-.12c-.12-.06-.18-.18-.24-.42.06-1.5.18-4.56.24-9.18l.06-5.28a27.875,27.875,0,0,1-5.04,7.62l-.3-.24a35.919,35.919,0,0,0,2.1-4.32,51.624,51.624,0,0,0,2.76-9h-2.58a7.386,7.386,0,0,0-1.74.18l-.3-1.2a8.682,8.682,0,0,0,2.1.24h2.82V60.25c-1.38.3-2.94.48-4.56.66l-.18-.42a35.378,35.378,0,0,0,6.12-2.58c.96-.54,1.68-1.02,2.22-1.38a8.488,8.488,0,0,0,.96-.84c1.32.78,2.34,1.44,3.12,1.98.3.18.42.36.42.54s-.12.3-.42.3c-.24,0-.66-.06-1.2-.12C345.28,58.87,344.14,59.23,343.06,59.53ZM313.48,74.47V69.49h-13.2v4.98Zm0-5.7V64.09h-13.2v4.68Zm0-5.46V58.69h-13.2v4.62Zm-2.1,11.94v7.2c0,.42,0,.66.06.72.06.12.42.18.96.24.6.06,1.32.06,2.22.06,1.68,0,2.7,0,3.12-.06a1.294,1.294,0,0,0,.96-.54q.54-.72,2.16-6.66h.36l-.24,5.76v.72a.622.622,0,0,0,.48.36,1.327,1.327,0,0,1,.78.42,1.434,1.434,0,0,1,.3.84,1.506,1.506,0,0,1-.72,1.32,3.9,3.9,0,0,1-1.92.48c-1.08.06-2.58.12-4.56.12-2.7,0-4.32,0-4.92-.06a3.122,3.122,0,0,1-1.74-.6,2.082,2.082,0,0,1-.6-1.26v-.72c0-1.5,0-2.52.06-3V75.25H305.5c-.18.9-.3,1.68-.42,2.34-1.38,5.46-6,8.64-13.92,9.54l-.12-.48c4.62-1.26,7.86-3.54,9.66-6.84a14.072,14.072,0,0,0,1.44-4.56h-1.86v.84c0,.24-.06.42-.18.48a4.165,4.165,0,0,1-2.1.3,2.972,2.972,0,0,1-.9-.06c-.18-.06-.3-.24-.3-.54.12-4.62.18-8.64.18-12,0-3.66-.06-6.42-.18-8.34.96.42,1.56.72,1.86.84.3.18.96.6,1.92,1.2h12.48l1.86-1.92,2.46,1.86c.3.24.48.48.48.66,0,.12-.12.3-.36.48a5.361,5.361,0,0,0-.78.48v3.72c0,5.46.06,9.6.18,12.54a.748.748,0,0,1-.24.66,4.715,4.715,0,0,1-1.98.24,1.875,1.875,0,0,1-1.08-.18.507.507,0,0,1-.12-.36v-.9ZM247.12,65.23l-.36-.36a32.278,32.278,0,0,0,4.08-5.94,15.3,15.3,0,0,0,1.44-3.48c1.5.54,2.82,1.02,3.9,1.44.3.12.48.3.48.48,0,.3-.54.48-1.56.54A32.421,32.421,0,0,1,247.12,65.23Zm24.36-6V79.39c.84.06,1.68.06,2.46.06h.12c.24,0,.36-.12.36-.42V59.23ZM255.7,64.27a22.54,22.54,0,0,0,1.44-3.42c.24-.66.54-1.74.96-3.12a9.3,9.3,0,0,0,.42-2.1c1.68.42,2.94.84,3.78,1.14.3.12.48.24.48.42s-.18.36-.48.48c-.06,0-.42.06-1.02.18a22.636,22.636,0,0,1-2.04,3.24h4.74c.54-.78,1.08-1.56,1.68-2.28l2.58,2.58a.22.22,0,0,1,.06.18c0,.18-.06.24-.24.24h-4.38v5.1h1.08l.78-.96.78-1.02c.78.78,1.5,1.5,2.16,2.22l.12.12V63.73c-.06-3.36-.06-5.7-.12-7.08l3.36,1.86h2.34l1.62-1.86,2.52,1.98c.18.18.3.3.3.42s-.12.3-.42.48l-.18.06a2.246,2.246,0,0,0-.6.36V77.23l.06,2.76a3.225,3.225,0,0,1-.36,1.38,2.973,2.973,0,0,1-1.44,1.02,11.6,11.6,0,0,1-2.28.48,3.8,3.8,0,0,0-.18-1.38,2.082,2.082,0,0,0-.9-1.2,2.867,2.867,0,0,0-.84-.36v1.26c.06,1.8.06,3.42.06,4.92a.864.864,0,0,1-.36.6,7.6,7.6,0,0,1-1.62.24h-.42c-.42,0-.66-.24-.66-.72.06-4.98.12-9.36.12-13.14V67.45l-.3.18h-4.62v5.34h.78l1.5-1.92,2.34,2.22.12.24q0,.18-.36.18h-4.38v6c1.44-.24,2.88-.54,4.26-.9l.06.36a67.27,67.27,0,0,1-12,4.68,5.349,5.349,0,0,0-.12.66c-.06.42-.24.6-.42.6-.24,0-.42-.18-.54-.6-.24-.78-.54-1.98-.96-3.54.72-.06,1.38-.06,1.92-.12V72.97a24.313,24.313,0,0,0-.18-3.12c1.32.12,2.46.24,3.48.42q.54.09.54.36c0,.24-.36.54-1.08.84v9l2.28-.3V67.63h-3.54l-1.98.18-.24-1.2a9.911,9.911,0,0,0,2.22.3h3.54v-5.1h-2.28c-.84,1.02-1.68,1.92-2.46,2.7.3.18.42.3.42.48,0,.12-.12.24-.3.3a9.227,9.227,0,0,1-1.14.12,37.425,37.425,0,0,1-2.94,4.14c.54.06,1.02.18,1.32.24.36.06.54.24.54.42q0,.36-1.08.72v15c-.06.3-.12.48-.24.54a3.8,3.8,0,0,1-2.04.36,1.852,1.852,0,0,1-.66-.12.632.632,0,0,1-.24-.6c.12-2.94.18-5.7.18-8.16v-6l-1.5,1.44a13.316,13.316,0,0,1-1.86,1.56l-.3-.36a43.694,43.694,0,0,0,4.2-6.6,35.922,35.922,0,0,0,2.1-4.98A30.518,30.518,0,0,1,255.7,64.27Z"/>
  <path d="M431.32,90.13a23.933,23.933,0,0,1-3.3-3.84,22.655,22.655,0,0,1-2.88-5.94,21.85,21.85,0,0,1-.96-6.54,22.758,22.758,0,0,1,2.7-10.68,21.72,21.72,0,0,1,2.22-3.36,24.6,24.6,0,0,1,2.22-2.34l.72.42a23.774,23.774,0,0,0-2.16,3.6,29.021,29.021,0,0,0-2.34,12.18,33.786,33.786,0,0,0,1.44,10.2,18.663,18.663,0,0,0,1.56,3.54,14.7,14.7,0,0,0,1.5,2.34l-.72.42"/>
  <path d="M546.34,65.29V58.75h-7.08v6.54Zm3.36-6.54v6.54h7.56V58.75Zm-3.36,14.34V66.07h-7.08c-.06,3-.12,5.34-.24,7.02Zm3.36-7.02v7.02h7.56V66.07Zm0,7.74v5.16c.06,2.46.06,4.26.12,5.28q-.09.45-.36.54a4.43,4.43,0,0,1-1.98.3,2.727,2.727,0,0,1-.84-.06c-.24-.06-.36-.3-.42-.66.06-1.92.12-4.5.12-7.74V73.81H538.9a21.37,21.37,0,0,1-2.04,6.96,17.809,17.809,0,0,1-3.42,4.74c-.42.42-1.02.9-1.68,1.44l-.3-.3a23.252,23.252,0,0,0,2.58-4.98,32.669,32.669,0,0,0,1.8-9.78c.06-2.28.12-5.64.12-10.14a48.366,48.366,0,0,0-.24-5.76c1.38.66,2.64,1.32,3.84,2.04h17.4l1.8-1.98,1.26.96,1.32.96a.754.754,0,0,1,.42.6c0,.18-.12.36-.42.54a7.468,7.468,0,0,1-.78.6v17.7c.06,2.58.06,4.62.06,6.12a3.551,3.551,0,0,1-.36,1.44,4.2,4.2,0,0,1-1.8,1.08,12.33,12.33,0,0,1-2.64.48,5.34,5.34,0,0,0-.3-1.5,2.387,2.387,0,0,0-.72-.96,7.134,7.134,0,0,0-1.92-.72c-.42-.06-.9-.18-1.5-.3v-.42l1.68.12,2.28.12,1.2.06h.3l.36-.12c.06-.06.06-.18.06-.42V73.81Zm-45.48-6.3a41.863,41.863,0,0,1,6.3,3.66,5.745,5.745,0,0,1,1.8,2.16,3.493,3.493,0,0,1,.18,1.14,2.877,2.877,0,0,1-.72,2.1,1.29,1.29,0,0,1-.78.36.829.829,0,0,1-.54-.3,7.13,7.13,0,0,1-.84-1.32,27.634,27.634,0,0,0-5.58-7.26,15.246,15.246,0,0,1-3.9,6.18,19.413,19.413,0,0,1-3.72,2.82,17.711,17.711,0,0,1-1.68,1.02l-.24-.42a17.334,17.334,0,0,0,3.06-3.18,19.622,19.622,0,0,0,2.88-4.98,25.1,25.1,0,0,0,1.38-6.84h-7.86V78.43c0,2.46.06,4.8.12,7.02,0,.36-.06.6-.18.66a4.355,4.355,0,0,1-2.34.42,1.018,1.018,0,0,1-.78-.24,1.382,1.382,0,0,1-.24-.66c.06-1.08.12-3.48.24-7.26V62.17c-.06-.66-.12-1.38-.18-2.28a19.762,19.762,0,0,1,1.92.84c.3.18.96.54,1.86,1.14h7.5c.06-1.44.12-2.7.12-3.78,0-.78-.06-1.68-.12-2.58a33.3,33.3,0,0,1,4.68.6c.3.12.42.24.42.42s-.18.36-.48.54c-.12.06-.54.18-1.2.42-.06,1.56-.12,3-.24,4.38h8.34c.6-.66,1.2-1.32,1.74-1.98l1.38,1.02,1.32.9c.3.24.48.42.48.6a.859.859,0,0,1-.48.6,5.129,5.129,0,0,1-.84.54V75.61c.06,2.4.06,4.5.06,6.3l.06,1.5a2.333,2.333,0,0,1-.48,1.5,3.414,3.414,0,0,1-1.86,1.26,20.465,20.465,0,0,1-2.76.48,3.9,3.9,0,0,0-.36-1.5,2.719,2.719,0,0,0-.78-1.02,6.717,6.717,0,0,0-2.04-.84,14.236,14.236,0,0,1-1.86-.36v-.42c1.86.12,3.84.24,5.94.42.18,0,.36,0,.42-.06.18-.06.24-.18.24-.48l.06-19.74H505A21.673,21.673,0,0,1,504.22,67.51Zm-40.86.72H459.1a13.605,13.605,0,0,0-2.52.24l-.3-1.26a15.554,15.554,0,0,0,2.82.3h4.26V60.19a34.187,34.187,0,0,0-.24-4.44c2.1.18,3.54.36,4.32.48.42.06.66.24.66.48,0,.18-.12.3-.42.48-.18.06-.48.24-1.02.42v9.9h2.64l2.34-2.88a35.928,35.928,0,0,1,3.66,3.12l.12.24-.06.18-.24.06h-8.46V84.25h3.12l2.58-2.94c1.2,1.02,2.4,2.1,3.54,3.24a.322.322,0,0,1,.18.24c0,.18-.12.24-.3.24H457.6a20.551,20.551,0,0,0-2.88.18l-.3-1.26a14.414,14.414,0,0,0,3.12.3h5.82Zm-11.1,2.04a18.987,18.987,0,0,1,4.38,1.68,3.631,3.631,0,0,1,1.68,1.62l.12.72a3.665,3.665,0,0,1-.48,1.8,1.25,1.25,0,0,1-1.02.66.8.8,0,0,1-.42-.18,4.4,4.4,0,0,1-.78-1.14,11.192,11.192,0,0,0-3.48-4.56v7.44c0,1.86,0,3.48.06,4.86.06.96.06,1.92.06,2.82-.06.3-.18.54-.48.6a9.356,9.356,0,0,1-2.1.18,1.171,1.171,0,0,1-.42-.06q-.27-.09-.36-.54c0-.96,0-2.52.06-4.62l.06-3V73.21a31.359,31.359,0,0,1-4.98,3.54l-.36-.42a31.487,31.487,0,0,0,5.34-6,33.873,33.873,0,0,0,4.02-7.08H446.8a18.04,18.04,0,0,0-2.34.18l-.24-1.26a13.88,13.88,0,0,0,2.58.3h2.34V58.69a15.554,15.554,0,0,0-.24-2.88c1.86.18,3.24.3,4.02.42.42.06.6.24.6.48,0,.18-.12.3-.42.48-.12.06-.42.18-.84.36v4.92h1.26l1.68-1.86,2.52,2.16c.24.24.36.42.36.6a.306.306,0,0,1-.24.3,10.926,10.926,0,0,1-1.44.36,37.135,37.135,0,0,1-4.14,5.94Z"/>
  <path d="M577.24,90.13l-.72-.42a20.673,20.673,0,0,0,2.22-3.78,22.994,22.994,0,0,0,1.62-5.52,36.079,36.079,0,0,0,.66-6.78,31.663,31.663,0,0,0-1.56-10.2,19.022,19.022,0,0,0-1.5-3.36,11.366,11.366,0,0,0-1.44-2.22l.72-.42a28.465,28.465,0,0,1,3.3,3.84,22.64,22.64,0,0,1,2.46,4.8,22.372,22.372,0,0,1,1.38,7.74,21.223,21.223,0,0,1-2.4,9.96,19.177,19.177,0,0,1-2.1,3.48,36.24,36.24,0,0,1-2.64,2.88"/>
  <line x1="656.08" y1="92.89" x2="796.06" y2="92.89" style="fill: none;stroke: #000;stroke-linecap: round;stroke-linejoin: round;stroke-width: 1.01999998092651px"/>
  <line x1="564.04" y1="323.59" x2="791.08" y2="323.59" style="fill: none;stroke: #000;stroke-linecap: round;stroke-linejoin: round;stroke-width: 1.01999998092651px"/>
  <line x1="564.04" y1="303.49" x2="791.08" y2="303.49" style="fill: none;stroke: #000;stroke-linecap: round;stroke-linejoin: round;stroke-width: 1.01999998092651px"/>
  <line x1="151.06" y1="420.61" x2="791.08" y2="420.61" style="fill: none;stroke: #000;stroke-linecap: round;stroke-linejoin: round;stroke-width: 1.01999998092651px"/>
  <line x1="646.06" y1="178.69" x2="196.06" y2="178.69" style="fill: none;stroke: #000;stroke-linecap: round;stroke-linejoin: round;stroke-width: 1.01999998092651px"/>
  <line x1="56.141" y1="123.97" x2="451.061" y2="123.97" style="fill: none;stroke: #000;stroke-linecap: round;stroke-linejoin: round;stroke-width: 1.01999998092651px"/>
  <line x1="151.061" y1="278.59" x2="461.08" y2="278.59" style="fill: none;stroke: #000;stroke-linecap: round;stroke-linejoin: round;stroke-width: 1.01999998092651px"/>
  <line x1="151.061" y1="323.47" x2="461.08" y2="323.47" style="fill: none;stroke: #000;stroke-linecap: round;stroke-linejoin: round;stroke-width: 1.01999998092651px"/>
  <line x1="151.061" y1="303.61" x2="461.08" y2="303.61" style="fill: none;stroke: #000;stroke-linecap: round;stroke-linejoin: round;stroke-width: 1.01999998092651px"/>
  <path d="M670.779,85.81v1.26h-1.26V85.81Zm-4.26-3.54a.733.733,0,0,0-.54.18,2.44,2.44,0,0,0-.48,1.68,2.408,2.408,0,0,0,.48,1.74.585.585,0,0,0,.54.24.733.733,0,0,0,.54-.24,3.69,3.69,0,0,0,0-3.42A.968.968,0,0,0,666.519,82.27Zm-2.1,1.86a3.217,3.217,0,0,1,.78-2.4,1.977,1.977,0,0,1,1.32-.48,1.719,1.719,0,0,1,1.26.48,3.217,3.217,0,0,1,.78,2.4,3.278,3.278,0,0,1-.78,2.46,1.55,1.55,0,0,1-1.26.54,1.764,1.764,0,0,1-1.32-.54A3.278,3.278,0,0,1,664.419,84.13Zm-2.04-5.04h1.02v7.98h-1.02l-2.7-5.7v5.7h-1.02V79.09h1.02l2.7,5.7Z"/>
  <path d="M679.9,108.01a17.9,17.9,0,0,0-1.32-2.1l.9-.6a8.42,8.42,0,0,1,1.44,1.98l-1.02.72m2.64-6.72c.3.06.36.12.18.3v1.92h1.62v1.02h-1.62v4.8l-.06.36c-.06.3-.3.48-.72.48H680.5l-.12-1.08h1.02c.06,0,.12-.06.18-.12a.22.22,0,0,0,.06-.18v-4.26h-3.48v-1.02h3.48v-2.22Zm-4.26.3.18.18v.18a.464.464,0,0,0-.18.06,8.5,8.5,0,0,1-.66,1.86c.3.12.3.24.06.3v6H676.6v-4.56a10.43,10.43,0,0,1-.78.9l-.72-.96a3.623,3.623,0,0,0,1.02-1.26,7.519,7.519,0,0,0,1.2-3ZM661,105.97v1.98h4.14v-1.98Zm0-3v1.86h4.14v-1.86Zm5.28,6.54h-1.14v-.48H661v.66h-1.14v-7.8h6.42Z"/>
  <path d="M588.34,168.25a5.8,5.8,0,0,0,0,8.4l-.66.66a6.809,6.809,0,0,1,0-9.72l.66.66"/>
  <path d="M605.38,169.51l.06.54a5.5,5.5,0,0,0,.84,2.4,4.412,4.412,0,0,0,1.74,1.74l-.78,1.08a5.967,5.967,0,0,1-2.4-3.24,6.022,6.022,0,0,1-2.52,3.42l-.6-1.02a3.79,3.79,0,0,0,1.98-2.1,6.625,6.625,0,0,0,.6-2.82h-1.62v-1.14h2.7v1.14m-5.04-1.32c.24.18.54.36.84.6l.96.96-.84.9a20.619,20.619,0,0,0-1.62-1.62Zm7.86,7.44-.12,1.14h-5.16a2.416,2.416,0,0,1-1.8-.78l-1.62,1.08-.54-1.14,1.62-.72v-2.28h-1.5v-1.2h2.58v3.48a1.061,1.061,0,0,0,.48.3,2.238,2.238,0,0,0,.72.12Zm-14.1-4.68v1.44h2.52v-1.44Zm-1.32-2.22c.18.3.06.36-.24.24l-.9.24v1.08h1.14v1.02h-1.14v.54a10.3,10.3,0,0,1,1.32,1.02l-.54,1.02-.78-.78v3.9h-1.08v-3.24l-1.02,1.44-.78-.9a5.812,5.812,0,0,0,1.68-3H589v-1.02h1.56v-.9l-1.14.18-.36-1.02a12.7,12.7,0,0,0,3.3-.66Zm4.2-.6.24.18-.06.12c0,.06-.06.06-.18.06a7.021,7.021,0,0,1-.66,1.5h1.38v3.36h-1.2v2.16l.06.18c0,.06.06.06.18.06h.24c.06,0,.06-.06.06-.12a.22.22,0,0,0,.06-.18l.06-.66,1.08.3-.12.9c-.06.54-.3.78-.84.78H596.2c-.54,0-.78-.24-.78-.78v-2.64h-.48v.9a2.482,2.482,0,0,1-.3,1.14,4.4,4.4,0,0,1-2.1,1.74l-.66-1.02a11.41,11.41,0,0,0,1.26-.66,2.126,2.126,0,0,0,.6-.72,2.157,2.157,0,0,0,.12-.66v-.72h-.84v-3.36h1.08a7.645,7.645,0,0,0-.96-1.5l.84-.6a7.854,7.854,0,0,1,1.14,1.62l-.84.48h1.8l-.72-.36a7.513,7.513,0,0,0,.72-1.86Z"/>
  <path d="M611.5,172.45a6.623,6.623,0,0,1-2.04,4.86l-.72-.66a5.672,5.672,0,0,0,0-8.4l.72-.66a6.623,6.623,0,0,1,2.04,4.86"/>
  <path d="M290.8,173.29v1.26h1.56v-1.26Zm4.92-.9v.72h2.22v-.72Zm-1.5.48-.66-.3v2.64l.42-.12a7.327,7.327,0,0,0,1.68-.84h-1.14v-2.46Zm-1.5-.72a8.162,8.162,0,0,1-1.02-.72,6.087,6.087,0,0,1-.84.72Zm3-1.56v.72h2.22v-.72Zm-4.74-1.26.3.36.36.36.3-.24.18-.3.12-.18Zm4.74-.54v.66h2.22v-.66Zm-3.6-3.54q.63.09.18.36v.84h2.04v1.86H293.2v-.72h-1.56l.18.12q.18.09.18.18c0,.06-.06.12-.12.18h-.12l-.18.3h1.32l.12-.12.96.72-.3.24a11.957,11.957,0,0,1-1.14,1.44,3.892,3.892,0,0,0,1.14.6c.36.12.66.18.84.24v-3.84h1.44l.24-.84h-1.8v-1.26h5.16v1.26h-2.1l-.3.84h1.98v6.6h-1.08a5.373,5.373,0,0,0,1.86.9l-.54,1.08-.54-.18a8.188,8.188,0,0,1-1.86-1.14l.66-.66H295.9l.66.72a6.991,6.991,0,0,1-2.34,1.38l-.66-.96v.48h-1.2v-.24H290.8v.48h-1.26v-3.24l-.6.3-.54-1.08a9.845,9.845,0,0,0,1.98-.96,1.485,1.485,0,0,0,.54-.42l-.42-.42-.12-.18a3.75,3.75,0,0,1-1.26,1.08l-.6-1.08a4.676,4.676,0,0,0,1.74-1.68,1.787,1.787,0,0,0,.3-.84h-.48v.96h-1.14v-2.1h2.04v-1.2Zm-18.84,9.12a21.106,21.106,0,0,0,.96-2.34h-1.56v2.76h1.74Zm-1.26-7.56a5.844,5.844,0,0,1-.6.9,7.193,7.193,0,0,1-.96.96h3.3A7.231,7.231,0,0,1,272.02,166.81Zm.66-1.32.12.06.24.06v.18l-.18.12a6.3,6.3,0,0,0,1.92,1.86,8.441,8.441,0,0,0,2.88,1.26l-.66,1.44a15.43,15.43,0,0,1-2.46-1.26v.66h-1.86v.96h3.96v1.2h-2.16l.9.36a.641.641,0,0,1,.3.18.182.182,0,0,1,0,.24c-.06.06-.12.06-.24.06-.3.78-.6,1.44-.84,1.92h2.46v1.2H267.1v-1.2h2.52a10.443,10.443,0,0,0-1.08-1.98l1.14-.6a6.464,6.464,0,0,1,1.2,1.98l-1.08.6h1.56v-2.76h-3.9v-1.2h3.9v-.96H269.5v-.48a11.585,11.585,0,0,1-2.46,1.38l-.66-1.38a7.4,7.4,0,0,0,4.98-4.14Zm-22.08,7.74v.24h2.76v-.24Zm0-1.26v.3h2.76v-.3Zm0-1.2v.3h2.76v-.3Zm4.08,3.66h-1.02l.84.36a8.181,8.181,0,0,0,1.02.24l-.42,1.26a4.776,4.776,0,0,1-1.2-.42,6.794,6.794,0,0,1-1.62-.96l.54-.48h-1.86l.6.54a4.378,4.378,0,0,1-.78.54,8.935,8.935,0,0,1-2.1.96l-.54-1.2a6.324,6.324,0,0,0,2.04-.84h-.9v-4.5h5.4Zm-2.28-9.3c.36.06.42.18.18.42v.54h2.58v.96h-2.58v.36h2.04v.84h-2.04v.36h2.94v.96h-6.84v-.96h2.58v-.36H249.4v-.84h1.86v-.36h-2.4v-.96h2.4v-.96Zm-3.66.9.12.36-.12.06a.454.454,0,0,1-.24-.06l-.9.24v1.32h.96v1.26h-.96v1.02a7.567,7.567,0,0,1,1.5,1.14l-.66,1.14a3.7,3.7,0,0,0-.84-.84v4.62h-1.32v-4.26a10.16,10.16,0,0,1-1.2,1.68l-.84-.96.72-.84a6.7,6.7,0,0,0,1.2-2.7h-1.5v-1.26h1.62v-.96l-1.5.24-.36-1.26a12.588,12.588,0,0,0,3.84-.84Zm-23.1,4.44v.66h4.92v-.66Zm0-1.8v.6h4.92v-.6Zm0-1.86v.66h4.92v-.66Zm6.24,5.88h-1.32v-.3h-.72v2.1l.06.24c0,.06.06.06.24.06h1.56l.24-.06.12-.36.18-.66,1.32.3-.18.96a.8.8,0,0,1-.18.48.945.945,0,0,1-.42.42.958.958,0,0,1-.48.18h-2.82c-.66-.06-.96-.36-.96-1.02v-2.64h-.78a3.705,3.705,0,0,1-.3,1.5q-.99,2.07-4.5,2.52l-.3-1.44a5.894,5.894,0,0,0,2.88-.78,1.828,1.828,0,0,0,.9-1.8h-.78v.3h-1.26v-7.08h7.5Zm-25.92-7.08c.3.06.36.18.3.3l-.18.12-.3.72h2.04v1.14H206.8v1.14h1.38v1.14H206.8v.9h1.08v1.14H206.8v1.26l1.44-.3v1.14l-4.32.96v.12q-.09.18-.18.18c-.06,0-.12,0-.12-.06l-.18-.3-.24-1.2.72-.06v-3.48h1.02c.42.06.48.18.18.42v2.88l.42-.06v-3.54h-1.8v-1.14h1.8v-1.14h-.36a4.986,4.986,0,0,1-.72,1.02l-.84-.78.42-.6a12.1,12.1,0,0,0,1.08-2.16Zm-2.52.3c.3.24.36.42.3.48s-.12.06-.3,0a14.5,14.5,0,0,1-2.16,2.58l-.84-1.14a10.137,10.137,0,0,0,2.22-2.52Zm8.1.48v7.08l-.06.36a.812.812,0,0,1-.9.6h-.78l-.18-1.2h.42a.312.312,0,0,0,.24-.12v-5.58h-.66v8.82h-1.26v-9.96Zm-7.98,1.92.18.12a.186.186,0,0,1,.06.12c0,.18-.06.24-.18.24l-.72,1.2v6.42h-1.2v-4.92a10.706,10.706,0,0,1-.84.84l-.48-1.2a8.168,8.168,0,0,0,2.34-3.36Z"/>
  <path d="M348.76,194.59v1.26h1.56v-1.26Zm4.92-.9v.72h2.22v-.72Zm-1.5.48-.66-.3v2.64l.42-.12a7.327,7.327,0,0,0,1.68-.84h-1.14v-2.46Zm-1.5-.72a8.162,8.162,0,0,1-1.02-.72,6.087,6.087,0,0,1-.84.72Zm3-1.56v.72h2.22v-.72Zm-4.74-1.26.3.36.36.36.3-.24.18-.3.12-.18Zm4.74-.54v.66h2.22v-.66Zm-3.6-3.54q.63.09.18.36v.84h2.04v1.86h-1.14v-.72H349.6l.18.12q.18.09.18.18c0,.06-.06.12-.12.18h-.12l-.18.3h1.32l.12-.12.96.72-.3.24a11.957,11.957,0,0,1-1.14,1.44,3.892,3.892,0,0,0,1.14.6c.36.12.66.18.84.24v-3.84h1.44l.24-.84h-1.8v-1.26h5.16v1.26h-2.1l-.3.84h1.98v6.6h-1.08a5.373,5.373,0,0,0,1.86.9l-.54,1.08-.54-.18a8.188,8.188,0,0,1-1.86-1.14l.66-.66h-1.74l.66.72a6.991,6.991,0,0,1-2.34,1.38l-.66-.96v.48h-1.2v-.24h-1.56v.48H347.5v-3.24l-.6.3-.54-1.08a9.845,9.845,0,0,0,1.98-.96,1.485,1.485,0,0,0,.54-.42l-.42-.42-.12-.18a3.75,3.75,0,0,1-1.26,1.08l-.6-1.08a4.676,4.676,0,0,0,1.74-1.68,1.787,1.787,0,0,0,.3-.84h-.48v.96H346.9v-2.1h2.04v-1.2Zm-8.82,9.12a21.106,21.106,0,0,0,.96-2.34h-1.56v2.76h1.74ZM340,188.11a5.844,5.844,0,0,1-.6.9,7.193,7.193,0,0,1-.96.96h3.3A7.231,7.231,0,0,1,340,188.11Zm.66-1.32.12.06.24.06v.18l-.18.12a6.3,6.3,0,0,0,1.92,1.86,8.441,8.441,0,0,0,2.88,1.26l-.66,1.44a15.43,15.43,0,0,1-2.46-1.26v.66h-1.86v.96h3.96v1.2h-2.16l.9.36a.641.641,0,0,1,.3.18.182.182,0,0,1,0,.24c-.06.06-.12.06-.24.06-.3.78-.6,1.44-.84,1.92h2.46v1.2h-9.96v-1.2h2.52a10.443,10.443,0,0,0-1.08-1.98l1.14-.6a6.464,6.464,0,0,1,1.2,1.98l-1.08.6h1.56v-2.76h-3.9v-1.2h3.9v-.96h-1.86v-.48a11.585,11.585,0,0,1-2.46,1.38l-.66-1.38a7.4,7.4,0,0,0,4.98-4.14Zm-12.06,7.74v.24h2.76v-.24Zm0-1.26v.3h2.76v-.3Zm0-1.2v.3h2.76v-.3Zm4.08,3.66h-1.02l.84.36a8.181,8.181,0,0,0,1.02.24l-.42,1.26a4.776,4.776,0,0,1-1.2-.42,6.794,6.794,0,0,1-1.62-.96l.54-.48h-1.86l.6.54a4.378,4.378,0,0,1-.78.54,8.935,8.935,0,0,1-2.1.96l-.54-1.2a6.324,6.324,0,0,0,2.04-.84h-.9v-4.5h5.4Zm-2.28-9.3c.36.06.42.18.18.42v.54h2.58v.96h-2.58v.36h2.04v.84h-2.04v.36h2.94v.96h-6.84v-.96h2.58v-.36H327.4v-.84h1.86v-.36h-2.4v-.96h2.4v-.96Zm-3.66.9.12.36-.12.06a.454.454,0,0,1-.24-.06l-.9.24v1.32h.96v1.26h-.96v1.02a7.567,7.567,0,0,1,1.5,1.14l-.66,1.14a3.7,3.7,0,0,0-.84-.84v4.62h-1.32v-4.26a10.16,10.16,0,0,1-1.2,1.68l-.84-.96.72-.84a6.7,6.7,0,0,0,1.2-2.7h-1.5v-1.26h1.62v-.96l-1.5.24-.36-1.26a12.588,12.588,0,0,0,3.84-.84Zm-13.14,4.44v.66h4.92v-.66Zm0-1.8v.6h4.92v-.6Zm0-1.86v.66h4.92v-.66Zm6.24,5.88h-1.32v-.3h-.72v2.1l.06.24c0,.06.06.06.24.06h1.56l.24-.06.12-.36.18-.66,1.32.3-.18.96a.8.8,0,0,1-.18.48.945.945,0,0,1-.42.42.958.958,0,0,1-.48.18h-2.82c-.66-.06-.96-.36-.96-1.02v-2.64h-.78a3.705,3.705,0,0,1-.3,1.5q-.99,2.07-4.5,2.52l-.3-1.44a5.894,5.894,0,0,0,2.88-.78,1.828,1.828,0,0,0,.9-1.8h-.78v.3h-1.26v-7.08h7.5Zm-13.68-1.86.54,1.8a7.056,7.056,0,0,0,.6-1.8Zm-.9-5.46q.54,0,.18.36v1.56h3.84v1.2h-3.84v1.08h2.34l.12-.18.78.78a.548.548,0,0,1,.18.3l-.18.06-.24.84a5.658,5.658,0,0,1-1.02,2.28,10.166,10.166,0,0,0,2.16,1.38l-.72,1.26a9,9,0,0,1-2.1-1.74,3.438,3.438,0,0,1-.66.66,12.45,12.45,0,0,1-1.98,1.2l-.54-1.26a7.58,7.58,0,0,0,2.4-1.44,13.534,13.534,0,0,1-.9-2.34,8.026,8.026,0,0,1-2.4,4.68l-.96-1.02a6.27,6.27,0,0,0,1.5-2.22,10.316,10.316,0,0,0,.9-4.32H302.8v-1.2h1.32v-1.92Zm-3.84-.18q.63.09.18.36v1.92h1.08v1.2H301.6v1.92l1.26-.3.24,1.26-1.5.42v3.66a.953.953,0,0,1-.9.66h-1.14l-.12-1.32h.6a.312.312,0,0,0,.24-.12c.06-.06.06-.12.06-.24v-2.28l-.9.3c0,.12-.06.18-.18.24h-.12l-.18-.24-.48-1.26,1.86-.48v-2.22h-1.5v-1.2h1.5v-2.28Zm-8.7,3.78v1.74h3v-1.74Zm-1.62-2.7c.18.36.12.48-.3.36l-1.08.24v1.26h1.38v1.26h-1.38v.66a6.869,6.869,0,0,1,1.62,1.26l-.66,1.2-.96-.96v4.74H288.4v-3.96c-.42.66-.78,1.2-1.2,1.74l-.9-1.02a7.7,7.7,0,0,0,2.04-3.66H286.6v-1.26h1.8v-1.02l-1.38.18-.36-1.2a12.428,12.428,0,0,0,3.96-.78Zm5.04-.72a.649.649,0,0,1,.3.24.22.22,0,0,1-.06.18l-.24.06a12.488,12.488,0,0,1-.78,1.8h1.68v4.02H295.6v2.82a.312.312,0,0,0,.24.12h.3a.312.312,0,0,0,.12-.24v-.18l.12-.84,1.32.36-.18,1.08a.975.975,0,0,1-1.02,1.02h-1.32a.887.887,0,0,1-.9-1.02v-3.12h-.6v1.08a2.63,2.63,0,0,1-.36,1.38,5.639,5.639,0,0,1-2.46,2.04l-.84-1.2a4.314,4.314,0,0,0,1.5-.78,2.376,2.376,0,0,0,.72-.9,3.04,3.04,0,0,0,.12-.78v-.84h-.96v-4.02h1.26a7.964,7.964,0,0,0-1.14-1.8l1.02-.72a9.957,9.957,0,0,1,1.32,1.92l-.96.6h2.16l-.9-.48a10.714,10.714,0,0,0,.9-2.22Z"/>
  <path d="M324.76,213.55v1.26h1.56v-1.26Zm4.92-.9v.72h2.22v-.72Zm-1.5.48-.66-.3v2.64l.42-.12a7.327,7.327,0,0,0,1.68-.84h-1.14v-2.46Zm-1.5-.72a8.162,8.162,0,0,1-1.02-.72,6.087,6.087,0,0,1-.84.72Zm3-1.56v.72h2.22v-.72Zm-4.74-1.26.3.36.36.36.3-.24.18-.3.12-.18Zm4.74-.54v.66h2.22v-.66Zm-3.6-3.54q.63.09.18.36v.84h2.04v1.86h-1.14v-.72H325.6l.18.12q.18.09.18.18c0,.06-.06.12-.12.18h-.12l-.18.3h1.32l.12-.12.96.72-.3.24a11.957,11.957,0,0,1-1.14,1.44,3.892,3.892,0,0,0,1.14.6c.36.12.66.18.84.24v-3.84h1.44l.24-.84h-1.8v-1.26h5.16v1.26h-2.1l-.3.84h1.98v6.6h-1.08a5.373,5.373,0,0,0,1.86.9l-.54,1.08-.54-.18a8.188,8.188,0,0,1-1.86-1.14l.66-.66h-1.74l.66.72a6.991,6.991,0,0,1-2.34,1.38l-.66-.96v.48h-1.2v-.24h-1.56v.48H323.5v-3.24l-.6.3-.54-1.08a9.845,9.845,0,0,0,1.98-.96,1.485,1.485,0,0,0,.54-.42l-.42-.42-.12-.18a3.75,3.75,0,0,1-1.26,1.08l-.6-1.08a4.676,4.676,0,0,0,1.74-1.68,1.787,1.787,0,0,0,.3-.84h-.48v.96H322.9v-2.1h2.04v-1.2Zm-9.36,3.72v1.74h3v-1.74Zm-1.62-2.7c.18.36.12.48-.3.36l-1.08.24v1.26h1.38v1.26h-1.38v.66a6.869,6.869,0,0,1,1.62,1.26l-.66,1.2-.96-.96v4.74H312.4v-3.96c-.42.66-.78,1.2-1.2,1.74l-.9-1.02a7.7,7.7,0,0,0,2.04-3.66H310.6v-1.26h1.8v-1.02l-1.38.18-.36-1.2a12.428,12.428,0,0,0,3.96-.78Zm5.04-.72a.649.649,0,0,1,.3.24.22.22,0,0,1-.06.18l-.24.06a12.488,12.488,0,0,1-.78,1.8h1.68v4.02H319.6v2.82a.312.312,0,0,0,.24.12h.3a.312.312,0,0,0,.12-.24v-.18l.12-.84,1.32.36-.18,1.08a.975.975,0,0,1-1.02,1.02h-1.32a.887.887,0,0,1-.9-1.02v-3.12h-.6v1.08a2.63,2.63,0,0,1-.36,1.38,5.639,5.639,0,0,1-2.46,2.04l-.84-1.2a4.314,4.314,0,0,0,1.5-.78,2.376,2.376,0,0,0,.72-.9,3.04,3.04,0,0,0,.12-.78v-.84h-.96v-4.02h1.26a7.964,7.964,0,0,0-1.14-1.8l1.02-.72a9.957,9.957,0,0,1,1.32,1.92l-.96.6h2.16l-.9-.48a10.714,10.714,0,0,0,.9-2.22Zm-18.24,7.86v.42h4.32v-.42Zm0-1.2v.36h4.32v-.36Zm0-1.26v.42h4.32v-.42Zm4.08-1.62v.72h1.26l-.06-.42h.72a.129.129,0,0,0,.12-.12v-.18Zm-2.88,0a3.554,3.554,0,0,0-.24.36l-.3.36h2.22v-.72Zm.24-1.2v.24h1.44v-.24Zm-2.58.24h1.26v-.24h-1.2Zm5.22-1.56v.42h1.08v-.42Zm-2.64,0v.42h1.44v-.42Zm-.18-1.68q.63,0,.18.36v.42h1.44v-.78h1.02q.54,0,.18.36v.42h2.4v2.22h-2.4v.24h3.36l-.24,1.44-.12.48a.723.723,0,0,1-.3.3l-.3.12h-.84v3.96h-.78a.977.977,0,0,0,.36.18,9.737,9.737,0,0,0,2.1.54l-.42,1.32a10.931,10.931,0,0,1-3-1.14l-1.02-.72.42-.18h-2.34l.24.18c.06.06.12.12.12.18a.312.312,0,0,1-.12.24l-.24-.06a6.966,6.966,0,0,1-3.6,1.32l-.3-1.32a6.358,6.358,0,0,0,1.74-.24,2,2,0,0,0,.72-.3h-.84v-3.42a6.6,6.6,0,0,1-1.74.54l-.3-1.2.72-.12a8,8,0,0,0,1.92-.72,1.187,1.187,0,0,0,.6-.42h-1.2l-.06.36-1.2-.12.54-2.34h2.28v-.42h-2.82v-.9h2.82v-.78Zm-11.28,6.42v.84h3.6v-.84Zm-1.92.54c-.66,1.38-1.26,2.52-1.86,3.54a.268.268,0,0,1,0,.3c-.06.06-.24.06-.42-.12l-1.08-.9a11.008,11.008,0,0,0,1.5-2.1,14.676,14.676,0,0,0,.72-1.5Zm1.92-2.52v.78h3.6v-.78Zm-4.2-1.2a10.532,10.532,0,0,1,1.8,1.44l-.96.96a8.874,8.874,0,0,0-1.74-1.44Zm.54-2.58a9.947,9.947,0,0,1,1.86,1.38l-.9.96a11.935,11.935,0,0,0-1.86-1.5Zm5.88-.54c.42.06.48.18.24.36v2.76h1.26l-1.08-.54a11.165,11.165,0,0,0,1.32-2.28l1.14.54.18.12c.06.12.06.18,0,.24a.353.353,0,0,1-.3.12l-1.08,1.8h1.02v6.78l-.06.36a.812.812,0,0,1-.9.6h-1.08l-.18-1.32h.6c.12,0,.18,0,.24-.06l.06-.24v-.9h-3.6v2.58h-1.32v-7.8h.96a7.825,7.825,0,0,0-.9-1.92l1.14-.66a16.76,16.76,0,0,1,1.08,2.04l-1.08.54h1.26v-3.12Z"/>
  <path d="M557.38,315.01a3.22,3.22,0,0,0,.3,1.14l.24.42a18.309,18.309,0,0,0,1.8-1.56h-2.34m-2.16,0v3.78l2.16-.42a2.664,2.664,0,0,1-.48-.66,5.09,5.09,0,0,1-.96-2.7Zm0-2.58v1.2h3.36v-1.2Zm-4.74-2.46v7.08h1.08a.45.45,0,0,0,.3-.06.828.828,0,0,0,.24-.18v-.48a4.124,4.124,0,0,0-.3-1.44,7.089,7.089,0,0,0-.96-1.74l1.02-3.18Zm4.74-.12v1.14h3.36v-1.14Zm-1.5-.72v-.72h6.42v6.6l.78.6.24.24a.112.112,0,0,1,0,.18c-.06.06-.12.12-.18.12-.06.06-.18,0-.24-.06-.54.42-1.26.96-2.16,1.56a12.544,12.544,0,0,0,3.06,2.16l-1.02,1.26a9.822,9.822,0,0,1-3.12-2.58l.18,1.38-4.38.84a.977.977,0,0,1-.18.36.268.268,0,0,1-.3,0,1.434,1.434,0,0,1-.18-.42l-.42-1.44,1.5-.18v-9.6l-1.38,3.66a6.7,6.7,0,0,1,1.2,2.16,4.895,4.895,0,0,1,.06,1.68,1.775,1.775,0,0,1-.12.6c-.3.66-.66.96-1.2.96h-1.5l-.3-1.08v3.72h-1.5v-12.6h3.3l.18-.3Zm-16.08,5.94v.72h1.68v-.72Zm6.36-1.86v1.8h1.44v-1.8Zm-6.36-.06v.6h1.68v-.6Zm0-1.86v.6h1.68v-.6Zm6.36-1.2v1.74h1.44v-1.74Zm-3.48-1.98c.42.06.54.18.24.42v1.5h1.14v1.26h-1.14v4.5h1.32v1.32h-2.16c.54.48.96.96,1.38,1.38l-1.08,1.02-1.56-1.56,1.08-.84h-2.4l1.02.6-.66,1.14a13.048,13.048,0,0,1-1.8,2.1l-1.14-1.14a8.8,8.8,0,0,0,1.38-1.5,5.662,5.662,0,0,0,.72-1.2h-2.28v-1.32h1.62v-4.5h-1.26v-1.26h1.26v-1.86h1.26c.42.06.48.18.18.42v1.44h1.68v-1.92Zm1.92.6H547v11.1l-.06.42a.979.979,0,0,1-1.02.72h-1.5l-.18-1.62h.9a.353.353,0,0,0,.3-.12v-2.82H544v.18a3.629,3.629,0,0,1-.24,1.32,6.92,6.92,0,0,1-2.64,3.3l-1.08-1.26a6.7,6.7,0,0,0,1.5-1.32,3.832,3.832,0,0,0,.9-2.34Zm-17.94,7.02c.3-.48.54-1.02.84-1.62l1.14.72.12.18v.18a.828.828,0,0,1-.24.18l-.84,1.38c.42.42.84.84,1.26,1.32l-1.08,1.14-1.08-1.14-.72.78a10.009,10.009,0,0,1-2.52,1.92l-.9-1.32a12.432,12.432,0,0,0,3.12-2.46l-1.38-1.26.96-1.08C523.72,315.07,524.14,315.43,524.5,315.73Zm.6-7.56c.42.06.48.18.18.42v1.56h2.76v1.38h1.02v-3h1.32c.42.06.54.18.24.42v2.58h2.52v3.3a31.691,31.691,0,0,1-.24,5.04,1.155,1.155,0,0,1-1.26,1.08h-1.98l-.12-1.62h1.32c.36,0,.54-.24.6-.66.06-1.32.12-2.52.12-3.66v-2.04h-.96v.78a9.667,9.667,0,0,1-.24,2.34c-.42,2.22-1.92,3.9-4.44,5.04l-.72-1.5a7.937,7.937,0,0,0,1.74-.9c1.5-1.08,2.16-2.82,2.1-5.22v-.54H527.8v-1.38h-6.96v-1.44h2.94v-1.98Zm-.96,4.38a4.419,4.419,0,0,1,.3.36c.12.24-.06.36-.48.3a11.686,11.686,0,0,1-2.4,2.16l-1.08-1.14a11.774,11.774,0,0,0,1.26-.96,7.132,7.132,0,0,0,1.5-1.56Zm3.06,2.4a14.725,14.725,0,0,0-2.22-2.4l1.02-.9a16.067,16.067,0,0,1,2.28,2.22Zm-15.6,1.02v.84h4.32v-.84Zm0-2.22v.78h4.32v-.78Zm1.2-5.4c.24.06.36.12.42.24s.06.18-.06.24a.312.312,0,0,1-.24.12l-.24,1.08h6.66v1.44h-6.9l-.3.9h5.34v7.44l-.06.42a1.049,1.049,0,0,1-1.08.72h-1.62l-.18-1.56h1.08c.12,0,.18,0,.24-.06a.45.45,0,0,0,.06-.3v-.84H511.6v2.88h-1.5v-5.76a15.044,15.044,0,0,1-2.64,2.1l-.9-1.5a15.226,15.226,0,0,0,2.04-1.38,6.871,6.871,0,0,0,2.1-3.06h-3.66v-1.44h4.02a5.328,5.328,0,0,0,.24-1.92Zm-13.14,9.12v.3h3.24v-.3Zm0-1.44v.3h3.24v-.3Zm0-1.44v.36h3.24v-.36Zm4.8,4.26h-1.2a4.725,4.725,0,0,0,.96.48,9.748,9.748,0,0,0,1.14.24l-.48,1.44a4.746,4.746,0,0,1-1.38-.48,5.479,5.479,0,0,1-1.86-1.14l.6-.54h-2.16l.72.66a7.817,7.817,0,0,1-.9.6,8.846,8.846,0,0,1-2.52,1.08l-.6-1.32a9.951,9.951,0,0,0,2.4-1.02H498.1v-5.22h6.36Zm-2.7-10.8c.42.06.54.18.24.42v.66h3v1.08h-3v.48h2.34v.96H502v.42h3.36v1.08h-7.92v-1.08h3v-.42h-2.16v-.96h2.16v-.48h-2.76v-1.08h2.76v-1.08Zm-4.26,1.02c.12.18.18.3.12.36l-.12.12-.24-.06-1.14.3v1.5h1.14v1.44h-1.14v1.2a7.768,7.768,0,0,1,1.8,1.32l-.72,1.38-1.08-1.02v5.46h-1.5v-4.98a10.422,10.422,0,0,1-1.38,1.98l-.96-1.2a6.058,6.058,0,0,0,.78-.96,7.205,7.205,0,0,0,1.44-3.18h-1.74v-1.44h1.86v-1.14l-1.74.3-.42-1.44a13.467,13.467,0,0,0,4.44-1.02Zm-15.3,5.22v.72h5.76v-.72Zm0-2.16v.72h5.76v-.72Zm0-2.1v.66h5.76v-.66Zm7.26,6.84h-1.5v-.42h-.9v2.46l.06.3a.353.353,0,0,0,.3.12h1.86a.312.312,0,0,0,.24-.12,2.925,2.925,0,0,0,.18-.42l.18-.72,1.56.3-.18,1.08a1.8,1.8,0,0,1-.24.6c-.18.24-.3.42-.48.48a1.382,1.382,0,0,1-.54.18h-3.36a1.025,1.025,0,0,1-1.08-1.14v-3.12h-.96a5.656,5.656,0,0,1-.3,1.8c-.78,1.62-2.52,2.58-5.28,2.94l-.36-1.68a8.33,8.33,0,0,0,3.42-.9,2.152,2.152,0,0,0,1.02-2.16h-.9v.42h-1.5v-8.28h8.76Z"/>
  <path d="M94.78,270.13v.54h2.76v-.54Zm0,1.74v.54h2.76v-.54Zm0-4.86v.54h2.16v-.54Zm-3.6,0v.54h2.16v-.54Zm3.6-3.54v.78h5.34v1.32H94.78v.42h3.6v2.58h-3.6v.36h4.2v1.74h1.56v1.2H98.98v2.22H97.54v-.36H94.78v1.62a1.049,1.049,0,0,1-1.08.72H92.2l-.18-1.5h.96l.3-.12.06-.3v-.42H89.02v-1.32h4.32v-.54h-5.7v-1.2h5.7v-.54H89.02v-1.2h4.32v-.36H89.68v-2.58h3.66v-.42H88v-1.32h5.34v-1.26H94.6C95.02,263.05,95.08,263.17,94.78,263.47Zm-14.52,3.06H75.94v6.36h5.34v1.68H68.92v-1.68h5.22v-6.36h-4.2v-1.62H80.26Z" style="fill-rule: evenodd"/>
  <path d="M112.06,271.15v2.82h4.56v-2.82Zm2.28-4.26.84-1.14h-3.06l-.78,1.02,1.86,1.26Zm19.8,2.1v.24l-.3.12a16.7,16.7,0,0,1-.96,2.94l-.96,1.62-1.38-.96a18.586,18.586,0,0,0,1.98-4.62l1.26.42Zm-16.44-3.66c0,.12-.12.18-.42.18a17.893,17.893,0,0,1-3.84,4.26h4.68v6.06h-1.5v-.48h-4.56v.6H110.5v-4.14a15.992,15.992,0,0,1-2.88,1.26l-.54-1.62a19.573,19.573,0,0,0,3.48-1.44,4.97,4.97,0,0,0,1.44-1.08l-1.56-1.2a15.819,15.819,0,0,1-2.4,1.86l-.9-1.26a10,10,0,0,0,2.64-2.04,8.478,8.478,0,0,0,1.8-3l1.2.3.36.18c0,.12-.06.18-.24.24l-.12.3h3.24l.12-.18,1.32.96.18.12Zm8.28-1.44,4.98-.72.72,1.2c.06.24.06.36-.06.36h-.36l-1.44.18v1.56h1.44v.6l.9-1.2,1.08-2.88,1.14.54.36.18v.24a.312.312,0,0,1-.24.12l-.54,1.26h4.44v1.5h-2.64v2.1l1.38-.6,1.74,4.56-1.74.66a18.9,18.9,0,0,0-1.38-4.32v5.46l-.06.48a.937.937,0,0,1-1.02.72h-1.32l-.18-1.56h.72c.18,0,.24-.06.24-.12l.06-.24v-7.14h-.96l-1.56,1.98-.66-.96h-1.2v1.08l1.92,1.38-.84,1.32-1.08-1.02v5.4h-1.56v-4.68a7.849,7.849,0,0,1-1.68,2.1l-.78-1.5a8.216,8.216,0,0,0,2.4-4.08h-2.04v-1.38h2.1v-1.32l-1.92.18Z" style="fill-rule: evenodd"/>
  <path d="M128.08,292.69v1.8h2.04v-1.8Zm6.3-3.42a8.041,8.041,0,0,0,2.64-.9l.9,1.32.06.36-.18.12-.3-.06-3.72.54v1.92h4.74v1.38h-1.74v7.08h-1.56v-7.08h-1.44v.96a8.872,8.872,0,0,1-.3,2.34,7.334,7.334,0,0,1-2.64,3.84l-1.08-1.2,1.38-1.2a4.919,4.919,0,0,0,1.08-3.36v-6.54l1.38.54Zm-8.28,1.02v-1.56h5.88v1.56Zm.42,1.02h4.98v5.1h-1.38v-.48h-2.04v1.26a5.911,5.911,0,0,1-1.14,3.9l-1.2-1.08a4.382,4.382,0,0,0,.78-2.82Zm-14.58,1.86v-4.68h6.18v4.68Zm1.5-1.74v.54h3.12v-.54Zm0-1.68v.48h3.12v-.48Zm-6.72,1.74h1.68v-3.06h1.32c.42.06.54.18.24.36v2.7h1.38v1.44h-1.38v3.24l1.26-.48.24.72.78-.48.72-1.02h-1.98v-1.32h8.52v1.32h-5.04l-.24.48h5.04l-.48,4.38v.42c0,.48-.48.72-1.38.78h-1.38l-.18-1.5h1.14l.24-.06.12-.3.3-2.4h-.3l-.84,1.86a7.284,7.284,0,0,1-5.04,2.76l-.3-1.56q3.78-.45,4.68-3.06h-.6l-.18.48a4.5,4.5,0,0,1-1.56,1.68,4.328,4.328,0,0,1-2.1.66l-.42-1.2a7.653,7.653,0,0,0,1.98-.66,1.922,1.922,0,0,0,.78-.96h-.42l-.9.78-1.08.6-.48-.78-3.12,1.38c-.24.48-.42.48-.6,0l-.6-1.38,1.86-.6v-3.78h-1.68Zm-11.94,5.4v.54h2.76v-.54Zm0-1.74v.54h2.76v-.54Zm0-3.12v.54h2.16v-.54Zm-3.6,0v.54h2.16v-.54Zm2.16-4.02H94.6c.42.06.48.18.18.48v.78h5.34v1.26H94.78v.48h3.6v2.52h-3.6v.42h4.2v1.74h1.56v1.2H98.98v2.16H97.54v-.36H94.78v1.68a1.049,1.049,0,0,1-1.08.72H92.2l-.18-1.56h.96l.3-.06.06-.3v-.48H89.02v-1.26h4.32v-.54h-5.7v-1.2h5.7v-.54H89.02v-1.2h4.32v-.42H89.68v-2.52h3.66v-.48H88v-1.26h5.34Zm-23.4,3.54v-1.62H80.26v1.62H75.94v6.36h5.34v1.62H68.92v-1.62h5.22v-6.36Z" style="fill-rule: evenodd"/>
  <path d="M78.22,342.79v.54H79.3v-.54Zm1.08-1.26v-.54H78.22v.54Zm-3.54-.54v.54h1.02v-.54Zm0,1.8v.54h1.02v-.54Zm0,4.2H74.38v-7.26h6.36v6.6a1.049,1.049,0,0,1-1.08.72H78.64l-.12-1.38H79l.24-.12.06-.3v-.66H78.22v2.1H76.78v-2.1H75.76Zm.3-9.9v.84h1.32v-.84Zm-.24-2.94c.42.06.54.18.24.48v1.02h1.32v-1.5h1.26c.42.06.54.18.24.48v1.02h2.16v1.44H78.88v.84h2.64v1.38h-7.5v3.6l-.06.84a7.352,7.352,0,0,1-1.32,3.18l-.96-1.02v1.08H70.12v-6.18l-.6.78-1.02-1.26a5.791,5.791,0,0,0,1.08-1.68,13.912,13.912,0,0,0,1.2-4.44l1.38.24.18.06.18.18-.24.24-.72,3c.42.18.42.42.12.6v7.02l.48-.96a3.653,3.653,0,0,0,.36-1.68v-4.98H74.5v-.84H72.22v-1.44H74.5v-1.5Zm55.32,3.9h.78l1.02-.96h-1.8Zm6.42,1.44h-5.34l-1.08.84,4.44-.54.42,1.32c.12.36,0,.48-.42.3l-5.64.3-.12.42h6.12l-.66,3.12-.12.48-.48.96-.66.36h-.78l-1.92-.24v-1.62l1.74.36h.42l.18-.12.18-.42.3-1.44H129.4l-.66,1.92-1.56-.66,1.02-2.52a15.516,15.516,0,0,1-3,1.44l-.84-1.38,1.74-.48,2.46-1.26.12-.54.54.18,1.02-.78h-5.58v-1.44h4.92v-.96h-3.6v-1.38h3.6v-1.62h1.38c.42,0,.48.12.18.42v1.2h2.76v.36l.84-1.08,1.02.96c.3.36.18.54-.36.48l-1.62,1.62h3.78Z" style="fill-rule: evenodd"/>
  <path d="M496.72,432.43a1.62,1.62,0,0,1-.6,1.32,1.55,1.55,0,0,1-1.26.54,1.9,1.9,0,0,1-1.38-.54,1.764,1.764,0,0,1-.54-1.32,1.823,1.823,0,0,1,.6-1.38,1.868,1.868,0,0,1,1.32-.48,1.844,1.844,0,0,1,1.86,1.86m-.84,0a.956.956,0,0,0-.24-.72,1.264,1.264,0,0,0-.78-.3.956.956,0,0,0-.72.24,1.056,1.056,0,0,0-.36.78.994.994,0,0,0,.3.72.967.967,0,0,0,.78.36.994.994,0,0,0,.72-.3A1.141,1.141,0,0,0,495.88,432.43Zm-10.08-4.14a1.014,1.014,0,0,0-.6.18.86.86,0,0,0-.3.66.77.77,0,0,0,.24.6.748.748,0,0,0,.66.24.82.82,0,0,0,.66-.24.833.833,0,0,0,.3-.6.955.955,0,0,0-.3-.6A.82.82,0,0,0,485.8,428.29Zm1.86-5.1a.574.574,0,0,1,.42.12c.06.12,0,.24-.18.3v1.68l4.08-.24v1.38l-4.08.12v1.44a6.8,6.8,0,0,1,.24,2.04,4.4,4.4,0,0,1-1.2,3.12,7.809,7.809,0,0,1-1.38,1.08l-1.26-.84a10.245,10.245,0,0,0,1.68-1.32,2.366,2.366,0,0,0,.72-1.2,2.242,2.242,0,0,1-1.2.24,1.727,1.727,0,0,1-1.26-.54,1.7,1.7,0,0,1-.54-1.2,2,2,0,0,1,.54-1.5,2.2,2.2,0,0,1,1.02-.6,3.988,3.988,0,0,1,1.26-.06v-.54l-4.98.3-.18-1.32,5.1-.24v-2.22Zm-13.74,8.04a1.5,1.5,0,0,0-.78.18.753.753,0,0,0-.36.66c.06.54.42.72,1.14.66a1.206,1.206,0,0,0,.78-.24,1.545,1.545,0,0,0,.3-1.08A4.034,4.034,0,0,0,473.92,431.23Zm2.34-7.92a.363.363,0,0,1,.36.18c.06.06,0,.18-.18.24v1.32l3.78-.12v1.32l-3.78.12v1.32l3-.12v1.32l-3,.12v1.32a13.311,13.311,0,0,1,3.72,1.44l-.66,1.26a14.182,14.182,0,0,0-3.12-1.38,2.332,2.332,0,0,1-2.58,2.34,2.3,2.3,0,0,1-1.74-.66,1.719,1.719,0,0,1-.48-1.26,1.764,1.764,0,0,1,.54-1.32,2.676,2.676,0,0,1,1.98-.72,5.933,5.933,0,0,1,.9.06v-1.02l-3.48.06-.12-1.32,3.6-.06v-1.26l-4.32.12-.12-1.32,4.44-.12v-1.86Zm-8.22-.54c.78.42,1.38.84,1.86,1.14l-.6.78-1.8-1.2Zm-.54,1.2a8.919,8.919,0,0,1,1.86,1.2l-.6.72a12.674,12.674,0,0,0-1.86-1.26Zm-6.42.6c.54.12.54.24.12.42a19.562,19.562,0,0,0,0,7.92l-1.44.24a22.12,22.12,0,0,1,.12-8.88Zm5.52-.78c.18,0,.3.06.3.12l-.12.24v2.58c.54-.06,1.26-.18,2.22-.36l.12,1.26a22.621,22.621,0,0,1-2.34.36,16.951,16.951,0,0,1-.3,3.36,8.324,8.324,0,0,1-1.5,2.88l-1.14-.78a6.417,6.417,0,0,0,1.38-2.58,13.73,13.73,0,0,0,.24-2.82,17.734,17.734,0,0,1-3.3.12l-.06-1.44a20.824,20.824,0,0,0,3.36.06v-3Zm-13.92-.24c.3,0,.42.06.36.24l-.18.18v2.7h3.72v1.38h-3.72v3.78h4.86v1.44H447.16v-1.44h4.2v-8.28Zm-13.02.54a.507.507,0,0,1,.36.12c.06.06,0,.18-.18.3v6.48a1.675,1.675,0,0,0,.36,1.08,1.8,1.8,0,0,0,1.44.42,5.337,5.337,0,0,0,3.66-2.1l.96,1.08a6.38,6.38,0,0,1-4.44,2.4,3.523,3.523,0,0,1-2.4-.6,2.473,2.473,0,0,1-.96-2.04v-7.14Zm-7.74,4.44v1.26h2.28v-1.26Zm-3.66,0v1.26h2.28v-1.26Zm3.66-2.46v1.26h2.28v-1.26Zm-3.66,0v1.26h2.28v-1.26Zm3.48-3c.3,0,.42.06.36.24l-.18.18v1.38h3.72v6.54H434.2v-.42h-2.28v3.36h-1.38v-3.36h-2.28v.72h-1.38v-6.84h3.66v-1.8Zm-11.94,8.1v.24h2.76v-.24Zm0-1.26v.3h2.76v-.3Zm0-1.2v.3h2.76v-.3Zm4.08,3.66h-1.02l.84.36a8.181,8.181,0,0,0,1.02.24l-.42,1.26a4.776,4.776,0,0,1-1.2-.42,6.794,6.794,0,0,1-1.62-.96l.54-.48h-1.86l.6.54a4.378,4.378,0,0,1-.78.54,8.935,8.935,0,0,1-2.1.96l-.54-1.2a6.324,6.324,0,0,0,2.04-.84h-.9v-4.5h5.4Zm-2.28-9.3c.36.06.42.18.18.42v.54h2.58v.96h-2.58v.36h2.04v.84h-2.04v.36h2.94v.96h-6.84v-.96h2.58v-.36H418.6v-.84h1.86v-.36h-2.4v-.96h2.4v-.96Zm-3.66.9.12.36-.12.06a.454.454,0,0,1-.24-.06l-.9.24v1.32h.96v1.26h-.96v1.02a7.567,7.567,0,0,1,1.5,1.14l-.66,1.14a3.7,3.7,0,0,0-.84-.84v4.62h-1.32v-4.26a10.16,10.16,0,0,1-1.2,1.68l-.84-.96.72-.84a6.7,6.7,0,0,0,1.2-2.7h-1.5v-1.26h1.62v-.96l-1.5.24-.36-1.26a12.588,12.588,0,0,0,3.84-.84Zm-13.14,4.44v.66h4.92v-.66Zm0-1.8v.6h4.92v-.6Zm0-1.86v.66h4.92v-.66Zm6.24,5.88h-1.32v-.3H409v2.1l.06.24c0,.06.06.06.24.06h1.56l.24-.06.12-.36.18-.66,1.32.3-.18.96a.8.8,0,0,1-.18.48.945.945,0,0,1-.42.42.958.958,0,0,1-.48.18h-2.82c-.66-.06-.96-.36-.96-1.02v-2.64h-.78a3.705,3.705,0,0,1-.3,1.5q-.99,2.07-4.5,2.52l-.3-1.44a5.894,5.894,0,0,0,2.88-.78,1.828,1.828,0,0,0,.9-1.8h-.78v.3h-1.26v-7.08h7.5Zm-15.9-7.08c.3.06.36.18.3.3l-.18.12-.3.72H397v1.14h-1.02v1.14h1.38v1.14h-1.38v.9h1.08v1.14h-1.08v1.26l1.44-.3v1.14l-4.32.96v.12q-.09.18-.18.18c-.06,0-.12,0-.12-.06l-.18-.3-.24-1.2.72-.06v-3.48h1.02c.42.06.48.18.18.42v2.88l.42-.06v-3.54h-1.8v-1.14h1.8v-1.14h-.36a4.986,4.986,0,0,1-.72,1.02l-.84-.78.42-.6a12.1,12.1,0,0,0,1.08-2.16Zm-2.52.3c.3.24.36.42.3.48s-.12.06-.3,0a14.5,14.5,0,0,1-2.16,2.58l-.84-1.14a10.137,10.137,0,0,0,2.22-2.52Zm8.1.48v7.08l-.06.36a.812.812,0,0,1-.9.6h-.78l-.18-1.2h.42a.312.312,0,0,0,.24-.12v-5.58h-.66v8.82h-1.26v-9.96Zm-7.98,1.92.18.12a.186.186,0,0,1,.06.12c0,.18-.06.24-.18.24l-.72,1.2v6.42h-1.2v-4.92a10.706,10.706,0,0,1-.84.84l-.48-1.2a8.168,8.168,0,0,0,2.34-3.36Zm-9.66-2.46c.24.06.36.12.42.24q.09.09-.18.18l-.24,2.1a16.631,16.631,0,0,0,0,2.46c.06.3.06.42.12.42q.18,0,.36-.36l.84-1.14,1.02.84-.78.96a9.37,9.37,0,0,1-.78.78,1.25,1.25,0,0,1-.9.42,1.141,1.141,0,0,1-.78-.3,1.389,1.389,0,0,1-.42-.84,19.646,19.646,0,0,1,.18-5.82Zm4.68-.3a.574.574,0,0,1,.42.12l-.18.3a40.25,40.25,0,0,1,.12,5.16,4.808,4.808,0,0,1-.84,2.7,9.455,9.455,0,0,1-2.64,2.34l-1.08-1.02a7.748,7.748,0,0,0,2.16-1.5,4.3,4.3,0,0,0,1.08-3,37.585,37.585,0,0,0-.24-5.1Zm-11.22,5.34v.54h1.62v-.54Zm-2.58,0v.54h1.38v-.54Zm2.58-1.62v.54h1.62v-.54Zm-2.58,0v.54h1.38v-.54Zm2.28-2.28.54-.42h-1.74Zm-5.7-1.62a10.7,10.7,0,0,1,1.92,1.74l-1.02,1.02a8.3,8.3,0,0,0-1.8-1.74Zm8.82.66.12.18-.06.12a.22.22,0,0,1-.18.06l-1.86,1.08.48.24-.54.42h2.04v5.46l-.06.36a.812.812,0,0,1-.9.6h-1.02l-.12-1.26h.6a.312.312,0,0,0,.24-.12l.06-.24v-.36h-1.62v1.68h-1.2v-1.68h-1.38v1.8H372.7v-6.24h2.94l-1.74-.72.96-.84h-2.28v-1.14h5.64l.12-.18Zm.9,8.7-.18,1.32h-6.06a3.614,3.614,0,0,1-2.58-1.14l-1.8,1.32-.66-1.44,1.74-.78v-2.88h-1.5v-1.26h2.76v4.02a2.492,2.492,0,0,0,2.04.84Zm-20.52-1.68c.18.18.3.3.48.3.36,0,.66-.24.84-.72a24.169,24.169,0,0,0,1.2-5.16,3.089,3.089,0,0,0-2.34,1.5,4.091,4.091,0,0,0-.72,2.28A2.3,2.3,0,0,0,359.74,430.99Zm3.3-6.84a5.6,5.6,0,0,1,3.6,1.08,4.087,4.087,0,0,1,1.32,3.3,4.606,4.606,0,0,1-1.02,2.94,7.3,7.3,0,0,1-2.82,2.04l-1.08-1.2c2.34-.9,3.54-2.1,3.54-3.72a3.18,3.18,0,0,0-.84-2.34,3.61,3.61,0,0,0-2.64-.9q.72.18.72.36a.468.468,0,0,1-.24.24q-.18,1.08-.72,3.24a7.563,7.563,0,0,1-1.08,2.7,1.952,1.952,0,0,1-1.5.9,2.148,2.148,0,0,1-1.5-.66,4.023,4.023,0,0,1-1.02-3,4.8,4.8,0,0,1,1.56-3.48A4.885,4.885,0,0,1,363.04,424.15Zm-15.6,6.9v1.44H349v-1.44Zm2.88,2.94H349v-.42h-1.56v.66h-1.32v-4.32h4.2Zm-.48-5.64v1.2h-3.36v-1.2Zm0-1.62v1.26h-3.36v-1.26Zm.9-1.56v1.2h-5.22v-1.2Zm4.98,4.08H354.4v-.6h-2.1v3.54l.06.24c.06.06.12.06.24.06h2.28l.12-.12.06-1.14,1.44.24-.18,1.38a.86.86,0,0,1-.3.66.733.733,0,0,1-.54.24h-3.54c-.66-.06-.96-.36-.96-1.02v-5.28h3.42v-2.28h-3.48v-1.26h4.8Zm-5.88-5.76v1.26h-3.36v-1.26Zm-10.56.06c.3,0,.42.06.36.24l-.18.18v2.7h3.72v1.38h-3.72v3.78h4.86v1.44H333.76v-1.44h4.2v-8.28Z"/>
  <rect x="676.42" y="498.97" width="60" height="49.98" style="fill: #fff"/>
  <rect x="676.42" y="498.97" width="60" height="49.98" style="fill: none;stroke: #000;stroke-linecap: round;stroke-linejoin: round;stroke-width: 1.01999998092651px"/>
  <rect x="736.42" y="498.97" width="60" height="49.98" style="fill: #fff"/>
  <rect x="736.42" y="498.97" width="60" height="49.98" style="fill: none;stroke: #000;stroke-linecap: round;stroke-linejoin: round;stroke-width: 1.01999998092651px"/>
  <path d="M565.84,165.49v-1.02h12.12v1.02Zm-4.2,9.18a1.584,1.584,0,0,1-1.14.42,1.95,1.95,0,0,1-1.2-.42,1.634,1.634,0,0,1-.42-1.2,1.547,1.547,0,0,1,.42-1.2,2.043,2.043,0,0,1,1.2-.48,1.639,1.639,0,0,1,1.14.48,1.7,1.7,0,0,1,.54,1.2A1.511,1.511,0,0,1,561.64,174.67Z"/>
  <path d="M476.44,193.63v-.54h6.96v.54Zm-2.4,5.28a.77.77,0,0,1-.6.24.849.849,0,0,1-.96-.96.82.82,0,0,1,.24-.66.956.956,0,0,1,.72-.24.77.77,0,0,1,.6.24.964.964,0,0,1,.3.66A.994.994,0,0,1,474.04,198.91Z"/>
  <path d="M476.44,213.55v-.54h6.96v.54Zm-2.4,5.28a.77.77,0,0,1-.6.24.849.849,0,0,1-.96-.96.82.82,0,0,1,.24-.66.956.956,0,0,1,.72-.24.77.77,0,0,1,.6.24.964.964,0,0,1,.3.66A.994.994,0,0,1,474.04,218.83Z"/>
  <path d="M532.48,298.27v.66h2.28v-.66Zm-3.54,0v.66h2.04v-.66Zm3.54-1.98v.66h2.28v-.66Zm-3.54,0v.66h2.04v-.66Zm3.54-1.44h-1.5v-1.32a10.532,10.532,0,0,1-1.8,1.44h5.34a11.23,11.23,0,0,1-2.04-1.5Zm-1.5-4.92a15.852,15.852,0,0,1-1.92.06l.9,1.08-.6.24h1.62Zm3.3-.18-1.8.12v1.44h.72Zm2.28-.48c.12.18.12.3.06.36a.605.605,0,0,1-.54-.06l-1.38.12.84.42a.306.306,0,0,1,.24.3l-.06.12h-.24l-.6.78h3.06v1.44h-4.08l1.08.72a11.5,11.5,0,0,0,3.42,1.32l-.6,1.62-1.5-.6v4.92h-1.5v-.48h-5.82v.66h-1.5v-4.92a16.329,16.329,0,0,0-1.5.72l-.84-1.56a11.19,11.19,0,0,0,2.46-.9,12.218,12.218,0,0,0,2.34-1.5h-4.32v-1.44h2.76l-.66-.84.78-.48a17.512,17.512,0,0,1-1.92.06l-.3-1.32a43.888,43.888,0,0,0,9.54-.66Zm-32.16,8.1v1.68h1.56v-1.68Zm5.58-.66v2.28h3v-2.28Zm-2.58,4.02h-1.44v-.36H504.4v.6h-1.56v-4.92h4.56Zm-.24-6.54v1.26h-4.14v-1.26Zm0-1.92v1.32h-4.14v-1.32Zm.48-1.86v1.32H502.3v-1.32Zm-.48-2.1v1.32h-4.14v-1.32Zm7.44.72.12.18q.27.36.18.54c-.06.12-.24.12-.54-.06l-2.1.42v1.86h2.94v1.44h-2.94v1.86h2.22v5.52h-1.5v-.42h-3v.6h-1.56v-5.7h2.28v-1.86h-3.06v-1.44h3.06v-1.62a18.017,18.017,0,0,1-2.58.18l-.3-1.44,1.92-.06a17.261,17.261,0,0,0,4.2-.96Zm-28.2,8.1v.48h2.52v-.48Zm-3.78,0v.48h2.22v-.48Zm3.78-1.74v.42h2.52v-.42Zm-3.78,0v.42h2.22v-.42Zm7.8,3.54H486.4v.18l.06.24c0,.06.06.12.24.12h3.48c.24,0,.36-.24.42-.66l.06-.72,1.62.36-.12.96a1.647,1.647,0,0,1-.66,1.26.956.956,0,0,1-.72.24h-4.86a1.025,1.025,0,0,1-1.08-1.14v-.84h-2.22v.72h-1.56v-5.58h9.36Zm-.42-6.18v.96h-3.18v-.96Zm-5.4,0v.96h-3.06v-.96Zm5.4-1.38v1.02h-3.18v-1.02Zm-5.4,0v1.02h-3.06v-1.02Zm6.18-1.86h-4.32v.42h5.46v2.88h-1.56v-1.74h-3.9v2.88H484.9v-2.88h-3.78v1.92h-1.5v-3.06h5.28v-.42h-4.38v-1.32h10.26Z"/>
  <path d="M561.1,295.03h-7.98l-.24.72h6.54l-.84,3.9-.36.6a2.032,2.032,0,0,1-1.62.66h-1.86l-.18-1.74h1.98l.36-.06a.765.765,0,0,0,.3-.42l.3-1.5h-5.16l-.48,1.2-1.5-.48,1.14-2.88h-3.3v-1.5h12.9v1.5m-9.18-5.16v1.38h5.4v-1.38Zm6.96,3.12h-1.56v-.3h-5.4v.42h-1.5v-4.68h8.46Z"/>
  <text transform="translate(472.987 546.589)" style="font-size: 10.020000457763672px;font-family: MS-PMincho, MS PMincho">担当者：</text>
  <text transform="translate(472.988 535.549)" style="font-size: 10.020000457763672px;font-family: MS-PMincho, MS PMincho">代表取締役：</text>
  <text transform="translate(472.987 524.509)" style="font-size: 10.020000457763672px;font-family: MS-PMincho, MS PMincho;letter-spacing: 0.0010720745518206802em">お客様<tspan x="30.09" y="0" style="letter-spacing: 0.0020466877807485714em">フ</tspan><tspan x="38.564" y="0">リーダイ</tspan><tspan x="71.64" y="0" style="letter-spacing: 0.0019492264578557825em">ヤ</tspan><tspan x="80.936" y="0" style="letter-spacing: 0.0009746132289278912em">ル：</tspan></text>
  <text transform="translate(565.988 513.469)" style="font-size: 10px;font-family: MS-PMincho, MS PMincho;letter-spacing: 0.001953125em">FAX：</text>
  <text transform="translate(472.988 513.469)" style="font-size: 10px;font-family: MS-PMincho, MS PMincho;letter-spacing: -0.001953125em">T<tspan x="6.23" y="0" style="letter-spacing: 0.0009765625em">E</tspan><tspan x="12.217" y="0" style="letter-spacing: 0.001953125em">L：</tspan></text>
  <text transform="translate(64.06 118.99)" style="font-size: 28px;font-family: MS-PMincho, MS PMincho">%%printEstimateShanai1_1_%%</text>
  <text transform="translate(676.959 87.43)" style="font-size: 12px;font-family: MS-PMincho, MS PMincho">%%printEstimateShanai1_2_%%</text>
  <text id="_date_-右寄" data-name="$date$-右寄" text-anchor="end" transform="translate(753.765 110.43)" style="font-size: 12px;font-family: MS-PMincho, MS PMincho">%%printEstimateShanai1_3_%%</text>
  <text transform="translate(154 274.75)" style="font-size: 16px;font-family: MS-PMincho, MS PMincho">%%printEstimateShanai1_7_%%</text>
  <text transform="translate(154 299.711)" style="font-size: 16px;font-family: MS-PMincho, MS PMincho">%%printEstimateShanai1_8_%%</text>
  <text transform="translate(154 319.711)" style="font-size: 16px;font-family: MS-PMincho, MS PMincho">%%printEstimateShanai1_9_%%</text>
  <text id="_expirationDate_" data-name="$expirationDate$" transform="translate(570 318.693) scale(1.053 1)" style="font-size: 15.1876802444458px;font-family: MS-PMincho, MS PMincho">%%printEstimateShanai1_11_%%</text>
  <text transform="translate(570 299.17)" style="font-size: 16px;font-family: MS-PMincho, MS PMincho">%%printEstimateShanai1_10_%%</text>
  <text id="_totalPraice_-右寄" data-name="$totalPraice$-右寄" text-anchor="end" transform="translate(554.619 174.99)" style="font-size: 28px;font-family: MS-PMincho, MS PMincho">%%printEstimateShanai1_4_%%</text>
  <text id="_excludingTax_-右寄" data-name="$excludingTax$-右寄" text-anchor="end" transform="translate(470.6 199.15)" style="font-size: 16px;font-family: MS-PMincho, MS PMincho">%%printEstimateShanai1_5_%%</text>
  <text id="_consumptionTax_-右寄" data-name="$consumptionTax$-右寄" text-anchor="end" transform="translate(470.6 220.14)" style="font-size: 16px;font-family: MS-PMincho, MS PMincho">%%printEstimateShanai1_6_%%</text>
  <image id="_icon_" data-name="$icon$" width="1154" height="212" transform="translate(184.168 478.959) scale(0.24 0.24)" xlink:href="%%printEstimateShanai1_30_%%"/>
  <text id="_company_" data-name="$company$" transform="translate(472.987 464.929)" style="font-size: 14px;font-family: MS-PMincho, MS PMincho">%%printEstimateShanai1_31_%%</text>
  <text transform="translate(472.987 477.769)" style="font-size: 12px;font-family: MS-PMincho, MS PMincho">%%printEstimateShanai1_32_%%</text>
  <text id="_post_" data-name="$post$" transform="translate(472.987 491.389)" style="font-size: 10px;font-family: MS-PMincho, MS PMincho">%%printEstimateShanai1_33_%%</text>
  <text id="_address_" data-name="$address$" transform="translate(472.987 502.429)" style="font-size: 10px;font-family: MS-PMincho, MS PMincho">%%printEstimateShanai1_34_%%</text>
  <text id="_tel_" data-name="$tel$" transform="translate(496.456 513.469)" style="font-size: 10.020000457763672px;font-family: MS-PMincho, MS PMincho;letter-spacing: 0.0020466877807485714em">%%printEstimateShanai1_35_%%</text>
  <text transform="translate(591.073 513.469)" style="font-size: 10.020000457763672px;font-family: MS-PMincho, MS PMincho;letter-spacing: 0.0020466877807485714em">%%printEstimateShanai1_36_%%</text>
  <text transform="translate(569.987 524.509)" style="font-size: 10.020000457763672px;font-family: MS-PMincho, MS PMincho">%%printEstimateShanai1_37_%%</text>
  <text transform="translate(529.435 535.549)" style="font-size: 10.020000457763672px;font-family: MS-PMincho, MS PMincho">%%printEstimateShanai1_38_%%</text>
  <text transform="translate(508.753 546.589)" style="font-size: 10.020000457763672px;font-family: MS-PMincho, MS PMincho">%%printEstimateShanai1_39_%%</text>
  <text transform="translate(154 347.05)" style="font-size: 16px;font-family: MS-PMincho, MS PMincho">%%printEstimateShanai1_12_%%</text>
</svg>
