<svg xmlns="http://www.w3.org/2000/svg" width="50" height="50" viewBox="0 0 50 50"><defs><style>.a{fill:#09c;}.b{fill:#fff;}</style></defs><g transform="translate(-97 -804)"><rect class="a" width="50" height="50" transform="translate(97 804)"/><g transform="translate(105.022 767.081)"><path class="b" d="M104.813,367.926H104.8v5.331a1.032,1.032,0,0,0,1.032,1.032h17.992a1.032,1.032,0,0,0,1.032-1.032v-5.331h-20.04Z" transform="translate(-97.847 -298.584)"/><rect class="b" width="15.862" height="1.06" transform="translate(9.033 52.154)"/><path class="b" d="M136.219,156.731H136.2v1.1h15.862v-1.1H136.219Z" transform="translate(-127.17 -101.396)"/><path class="b" d="M28.64,58.733v-10.6H5.316v10.6H0v12.73H5.324V67.221H28.632v4.242h5.324V58.733ZM11.672,62.723A1.326,1.326,0,1,1,10.346,61.4,1.326,1.326,0,0,1,11.672,62.723Zm-4.244,0A1.326,1.326,0,1,1,6.1,61.4,1.326,1.326,0,0,1,7.428,62.723Zm.009-4.207V50.254H26.519v8.263H7.437Z" transform="translate(0 0)"/></g></g></svg>