<svg id="レイヤー_1" data-name="レイヤー 1" xmlns="http://www.w3.org/2000/svg" xmlns:xlink="http://www.w3.org/1999/xlink" width="842" height="595.22" viewBox="0 0 842 595.22">
  <style>text{font-family: IPA Mincho, IPAMincho, MS-PMincho, MS PMincho, IPA Gothic, IPAGothic;}</style>
  <rect x="16" y="15.61" width="810" height="564" style="fill: #fff"/>
  <line x1="550.119" y1="259.37" x2="640.043" y2="259.37" style="fill: none;stroke: #000;stroke-linecap: square;stroke-linejoin: round;stroke-width: 1.01999998092651px"/>
  <line x1="702.096" y1="259.37" x2="792.019" y2="259.37" style="fill: none;stroke: #000;stroke-linecap: square;stroke-linejoin: round;stroke-width: 1.01999998092651px"/>
  <path d="M304.539,49.45H59.559q-20.07,0-20.04,20.04V549.43q0,19.98,20.04,19.98h729.96q19.98,0,19.98-19.98V69.49a29,29,0,0,0-1.08-8.34q-3.6-11.7-18.9-11.7H545.559" style="fill: none;stroke: #000;stroke-linecap: round;stroke-linejoin: round;stroke-width: 1.01999998092651px"/>
  <line x1="645.999" y1="178.69" x2="195.999" y2="178.69" style="fill: none;stroke: #000;stroke-linecap: round;stroke-linejoin: round;stroke-width: 1.01999998092651px"/>
  <line x1="150.999" y1="420.61" x2="791.019" y2="420.61" style="fill: none;stroke: #000;stroke-linecap: round;stroke-linejoin: round;stroke-width: 1.01999998092651px"/>
  <line x1="150.999" y1="303.61" x2="461.019" y2="303.61" style="fill: none;stroke: #000;stroke-linecap: round;stroke-linejoin: round;stroke-width: 1.01999998092651px"/>
  <line x1="150.999" y1="323.47" x2="461.019" y2="323.47" style="fill: none;stroke: #000;stroke-linecap: round;stroke-linejoin: round;stroke-width: 1.01999998092651px"/>
  <line x1="150.999" y1="278.59" x2="461.019" y2="278.59" style="fill: none;stroke: #000;stroke-linecap: round;stroke-linejoin: round;stroke-width: 1.01999998092651px"/>
  <g transform="translate(341, 65)">
  <text transform="translate(0, 1)" font-size="35" fill="#000" font-weight="bold">御</text>
  <text transform="translate(44, 0)" font-size="35" fill="#000" font-weight="bold">請</text>
  <text transform="translate(88, 0)" font-size="35" fill="#000" font-weight="bold">求</text>
  <text transform="translate(132, 0)" font-size="35" fill="#000" font-weight="bold">書</text>
  </g>
  <rect x="679.84" y="509.47" width="60" height="49.98" style="fill: #fff"/>
  <rect x="679.84" y="509.47" width="60" height="49.98" style="fill: none;stroke: #000;stroke-linecap: round;stroke-linejoin: round;stroke-width: 1.01999998092651px"/>
  <rect x="739.84" y="509.47" width="60" height="49.98" style="fill: #fff"/>
  <rect x="739.84" y="509.47" width="60" height="49.98" style="fill: none;stroke: #000;stroke-linecap: round;stroke-linejoin: round;stroke-width: 1.01999998092651px"/>
  <line x1="656.019" y1="92.89" x2="795.999" y2="92.89" style="fill: none;stroke: #000;stroke-linecap: round;stroke-linejoin: round;stroke-width: 1.01999998092651px"/>
  <line x1="56.079" y1="123.97" x2="450.999" y2="123.97" style="fill: none;stroke: #000;stroke-linecap: round;stroke-linejoin: round;stroke-width: 1.01999998092651px"/>
  <g transform="translate(16, 16)">
    <text transform="translate(641, 72)" font-size="12" fill="#000" font-weight="bold"><tspan>N</tspan><tspan y="-0.5">o.</tspan></text>
    <g transform="translate(641, 95)">
      <text font-size="11" fill="#000" font-weight="bold">日</text>
      <text transform="translate(17, 0)" font-size="11" fill="#000" font-weight="bold">付</text>
    </g>
    <g transform="translate(184, 159)">
      <text transform="translate(0, 0)" font-size="12" fill="#000" font-weight="bold">御</text>
      <text transform="translate(22, 0)" font-size="12" fill="#000" font-weight="bold">請</text>
      <text transform="translate(44, 0)" font-size="12" fill="#000" font-weight="bold">求</text>
      <text transform="translate(66, 0)" font-size="12" fill="#000" font-weight="bold">金</text>
      <text transform="translate(88, 0)" font-size="12" fill="#000" font-weight="bold">額</text>
    </g>
    <g transform="translate(269, 181)">
      <text transform="translate(0, 0)" font-size="12" fill="#000" font-weight="bold">税</text>
      <text transform="translate(12, 0)" font-size="12" fill="#000" font-weight="bold">抜</text>
      <text transform="translate(24, 0)" font-size="12" fill="#000" font-weight="bold">請</text>
      <text transform="translate(36, 0)" font-size="12" fill="#000" font-weight="bold">求</text>
      <text transform="translate(48, 0)" font-size="12" fill="#000" font-weight="bold">金</text>
      <text transform="translate(60, 0)" font-size="12" fill="#000" font-weight="bold">額</text>
    </g>
    <g transform="translate(269, 200)">
      <text transform="translate(0, 0)" font-size="12" fill="#000" font-weight="bold">消</text>
      <text transform="translate(12, 0)" font-size="12" fill="#000" font-weight="bold">費</text>
      <text transform="translate(24, 0)" font-size="12" fill="#000" font-weight="bold">税</text>
      <text transform="translate(36, 0)" font-size="12" fill="#000" font-weight="bold">額</text>
    </g>
    <g transform="translate(569, 160)">
      <text transform="translate(0, 0)" font-size="9" fill="#000" font-weight="bold">(</text>
      <text transform="translate(4, 0)" font-size="9" fill="#000" font-weight="bold">税</text>
      <text transform="translate(13, 0)" font-size="9" fill="#000" font-weight="bold">込</text>
      <text transform="translate(22, 0)" font-size="9" fill="#000" font-weight="bold">)</text>
    </g>
    <g transform="translate(51, 259)">
      <text transform="translate(0, 0)" font-size="15" fill="#000" font-weight="bold">工</text>
      <text transform="translate(19, 0)" font-size="15" fill="#000" font-weight="bold">事</text>
      <text transform="translate(38, 0)" font-size="15" fill="#000" font-weight="bold">名</text>
      <text transform="translate(57, 0)" font-size="15" fill="#000" font-weight="bold">称</text>
    </g>
    <g transform="translate(51, 284)">
      <text transform="translate(0, 0)" font-size="15" fill="#000" font-weight="bold">工</text>
      <text transform="translate(19, 0)" font-size="15" fill="#000" font-weight="bold">事</text>
      <text transform="translate(38, 0)" font-size="15" fill="#000" font-weight="bold">場</text>
      <text transform="translate(57, 0)" font-size="15" fill="#000" font-weight="bold">所</text>
    </g>
    <g transform="translate(51, 331)">
      <text transform="translate(0, 0)" font-size="15" fill="#000" font-weight="bold">備</text>
      <text transform="translate(57, 0)" font-size="15" fill="#000" font-weight="bold">考</text>
    </g>
    <g transform="translate(544.5, 158)">
      <circle r="1.6"/>
      <line transform="translate(5, -8.5)" x1="0" y1="0" x2="12" y2="0" stroke="black"/>
    </g>
    <g transform="translate(457.5, 182.5)">
      <circle r="1"/>
      <line transform="translate(3, -5)" x1="0" y1="0" x2="7" y2="0" stroke="black"/>
    </g>
    <g transform="translate(457.5, 202.5)">
      <circle r="1"/>
      <line transform="translate(3, -5)" x1="0" y1="0" x2="7" y2="0" stroke="black"/>
    </g>
  </g>
  <g transform="translate(653 264)">
    <text transform="translate(0, 0)" font-size="13">振</text>
    <text transform="translate(12.5, 0)" font-size="13">込</text>
    <text transform="translate(25, 0)" font-size="13">先</text>
  </g>
  <g transform="translate(328, 433)">
    <text transform="translate(0, 0)" font-size="12" fill="#000" font-weight="bold">上</text>
    <text transform="translate(11.4, 0)" font-size="12" fill="#000" font-weight="bold">記</text>
    <text transform="translate(22.8, 0)" font-size="12" fill="#000" font-weight="bold">の</text>
    <text transform="translate(34.2, 0)" font-size="12" fill="#000" font-weight="bold">通</text>
    <text transform="translate(45.6, 0)" font-size="12" fill="#000" font-weight="bold">り</text>
    <text transform="translate(57, 0)" font-size="12" fill="#000" font-weight="bold">御</text>
    <text transform="translate(68.4, 0)" font-size="12" fill="#000" font-weight="bold">請</text>
    <text transform="translate(79.8, 0)" font-size="12" fill="#000" font-weight="bold">求</text>
    <text transform="translate(91.2, 0)" font-size="12" fill="#000" font-weight="bold">申</text>
    <text transform="translate(102.6, 0)" font-size="12" fill="#000" font-weight="bold">し</text>
    <text transform="translate(114, 0)" font-size="12" fill="#000" font-weight="bold">上</text>
    <text transform="translate(125.4, 0)" font-size="12" fill="#000" font-weight="bold">げ</text>
    <text transform="translate(136.8, 0)" font-size="12" fill="#000" font-weight="bold">ま</text>
    <text transform="translate(148.2, 0)" font-size="12" fill="#000" font-weight="bold">す</text>
    <text transform="translate(159.6, 0)" font-size="12" fill="#000" font-weight="bold">。</text>
  </g>
  <g transform="translate(12, 22)">
    <text transform="translate(457 532)" font-size="10">担当者：</text>
    <text transform="translate(457 521)" font-size="10">代表取締役：</text>
    <g transform="translate(487 510)">
      <text transform="translate(-30 0)" font-size="10">お客様</text>
      <text transform="translate(0, 0)" font-size="10">フ</text>
      <text transform="translate(8.6, 0)" font-size="10">リ</text>
      <text transform="translate(17.2, 0)" font-size="10">ー</text>
      <text transform="translate(26, 0)" font-size="10">ダ</text>
      <text transform="translate(35, 0)" font-size="10">イ</text>
      <text transform="translate(43, 0)" font-size="10">ヤ</text>
      <text transform="translate(51.6, 0)" font-size="10">ル</text>
      <text transform="translate(60.2, 0)" font-size="10">：</text>
    </g>
    <text transform="translate(550 499)" font-size="10">FAX：</text>
    <g transform="translate(457 499)">
      <text transform="translate(0, 0)" font-size="10">T</text>
      <text transform="translate(6, 0)" font-size="10">E</text>
      <text transform="translate(12, 0)" font-size="10">L</text>
      <text transform="translate(19.5, 0)" font-size="10">: </text>
    </g>
  </g>
  <g id="変数">
    <text transform="translate(64.06 118.99)" style="font-size: 28px">%%printBill1_1_%%</text>
    <text transform="translate(676.959 87.43)" style="font-size: 12px">%%printBill1_2_%%</text>
    <text id="_date_-右寄せ" data-name="date-右寄せ" text-anchor="end" transform="translate(752.92 110.43)" style="font-size: 12px">%%printBill1_3_%%</text>
    <text id="_totalpraice_-右寄せ" data-name="totalpraice-右寄せ" text-anchor="end" transform="translate(556.04 173.44)" style="font-size: 28px">%%printBill1_4_%%</text>
    <text id="_excludingTax_-右寄せ" data-name="excludingTax-右寄せ" text-anchor="end" transform="translate(471.82 200.07)" style="font-size: 16px">%%printBill1_5_%%</text>
    <text id="_consumptionTax_-右寄せ" data-name="consumptionTax-右寄せ" text-anchor="end" transform="translate(471.82 218.59)" style="font-size: 16px">%%printBill1_6_%%</text>
    <text transform="translate(154 274.75)" style="font-size: 16px">%%printBill1_7_%%</text>
    <text transform="translate(154 299.711)" style="font-size: 16px">%%printBill1_8_%%</text>
    <text transform="translate(154 345.711)" style="font-size: 16px">%%printBill1_9_%%</text>
    <g id="bank1" class="repeat_i" style="display: none;">
      <text transform="translate(560.309 276.289)" style="font-size: 9px;fill: #222">%%printBill1_10_%{i}_%%</text>
      <text transform="translate(624.592 276.289)" style="font-size: 9px;fill: #222">%%printBill1_11_%{i}_%%</text>
      <text transform="translate(692.565 276.289)" style="font-size: 9px;fill: #222">%%printBill1_12_%{i}_%%</text>
      <text transform="translate(736.904 276.289)" style="font-size: 9px;fill: #222">%%printBill1_13_%{i}_%%</text>
    </g>
    <image id="_icon_" data-name="$icon$" width="1154" height="212" transform="translate(184 479.11) scale(0.24 0.24)" xlink:href="%%printBill1_30_%%"/>
    <text id="_company_" transform="translate(468.82 472.39)" style="font-size: 14px">%%printBill1_31_%%</text>
    <text transform="translate(468.82 485.23)" style="font-size: 12px">%%printBill1_32_%%</text>
    <text id="_post_" transform="translate(468.82 498.85)" style="font-size: 10px">%%printBill1_33_%%</text>
    <text id="_address_" transform="translate(468.82 509.89)" style="font-size: 10px">%%printBill1_34_%%</text>
    <text transform="translate(586.906 520.93)" style="font-size: 10.020000457763672px;letter-spacing: 0.0020466877807485714em">%%printBill1_35_%%</text>
    <text id="_tel_" transform="translate(492.289 520.93)" style="font-size: 10.020000457763672px;letter-spacing: 0.0020466877807485714em">%%printBill1_36_%%</text>
    <text transform="translate(565.82 531.97)" style="font-size: 10.020000457763672px">%%printBill1_37_%%</text>
    <text transform="translate(525.268 543.01)" style="font-size: 10.020000457763672px">%%printBill1_38_%%</text>
    <text transform="translate(504.586 554.05)" style="font-size: 10.020000457763672px">%%printBill1_39_%%</text>
  </g>
</svg>
