<svg xmlns="http://www.w3.org/2000/svg" xmlns:xlink="http://www.w3.org/1999/xlink" width="87" height="101.68" viewBox="0 0 87 101.68"><defs><style>.a,.b{fill:#09c;}.b{stroke:#fff;}.b,.c{stroke-linejoin:round;stroke-width:3px;}.c{fill:none;}.c,.e{stroke:#09c;}.d,.e{fill:#fff;}.e{stroke-miterlimit:10;stroke-width:2px;}.f{filter:url(#a);}</style><filter id="a" x="0" y="0" width="87" height="101.68" filterUnits="userSpaceOnUse"><feOffset dy="3" input="SourceAlpha"/><feGaussianBlur stdDeviation="3" result="b"/><feFlood flood-opacity="0.161"/><feComposite operator="in" in2="b"/><feComposite in="SourceGraphic"/></filter></defs><g transform="translate(-350.594 -123.992)"><g transform="translate(176.232 31.239)"><ellipse class="a" cx="10.5" cy="4.5" rx="10.5" ry="4.5" transform="translate(207.362 178.933)"/><g class="f" transform="matrix(1, 0, 0, 1, 174.36, 92.75)"><path class="b" d="M250.862,100.253h-66v66h27.175l5.872,14.68,5.872-14.68h27.082Z" transform="translate(-174.36 -92.75)"/></g><path class="c" d="M248.383,163.72h-26.64l-3.834,12.292-4.268-12.292h-26.3V102.16h61.043Z"/></g><g transform="translate(370.755 144)"><path class="d" d="M213.016,12.022v-6.2a.924.924,0,0,0-.92-.922l-4.61.017a.916.916,0,0,0-.909.92v1.65L200.407,3.1a1.94,1.94,0,0,0-1.151-.361,1.979,1.979,0,0,0-1.171.361L180.454,15.655l0,4.737,2.955.017V17.93l15.842-11.3,15.68,11.217.013,2.562,3.1-.017V15.655Z" transform="translate(-180.454 -2.74)"/><path class="d" d="M213.563,14.86,198.476,4.239a1.311,1.311,0,0,0-.776-.227,1.2,1.2,0,0,0-.754.227L181.83,14.972,181.8,33.005a.963.963,0,0,0,.953.946h29.87a.962.962,0,0,0,.961-.946ZM184.25,31.5l.015-15.272L197.7,6.7l13.419,9.435.009,15.367Z" transform="translate(-178.895 -1.264)"/><rect class="d" width="7.676" height="13.178" transform="translate(9.54 17.653)"/><rect class="d" width="7.659" height="7.671" transform="translate(20.721 17.653)"/><path class="e" d="M203.834,12.532a11.4,11.4,0,1,0,11.4,11.4,11.4,11.4,0,0,0-11.4-11.4Z" transform="translate(-166.552 8.508)"/><path class="a" d="M206.884,16.634a1.561,1.561,0,0,0-2.216,0l-4.955,4.882-2.223-2.227a1.572,1.572,0,0,0-2.221,2.227l3.331,3.331a1.583,1.583,0,0,0,2.225,0l6.059-5.994A1.559,1.559,0,0,0,206.884,16.634Z" transform="translate(-163.799 12.731)"/></g></g></svg>