<svg xmlns="http://www.w3.org/2000/svg" xmlns:xlink="http://www.w3.org/1999/xlink" width="87" height="101.68" viewBox="0 0 87 101.68"><defs><style>.a,.c{fill:#d24444;}.b,.d,.e{fill:#fff;}.b{stroke:#fff;}.b,.c{stroke-linejoin:round;stroke-width:3px;}.c,.e{stroke:#d24444;}.e{stroke-miterlimit:10;stroke-width:2px;}.f{filter:url(#a);}</style><filter id="a" x="0" y="0" width="87" height="101.68" filterUnits="userSpaceOnUse"><feOffset dy="3" input="SourceAlpha"/><feGaussianBlur stdDeviation="3" result="b"/><feFlood flood-opacity="0.161"/><feComposite operator="in" in2="b"/><feComposite in="SourceGraphic"/></filter></defs><g transform="translate(-190.403 -123.992)"><g transform="translate(16.042 31.239)"><ellipse class="a" cx="10.5" cy="4.5" rx="10.5" ry="4.5" transform="translate(207.362 178.933)"/><g class="f" transform="matrix(1, 0, 0, 1, 174.36, 92.75)"><path class="b" d="M250.862,100.253h-66v66h27.175l5.872,14.68,5.872-14.68h27.082Z" transform="translate(-174.36 -92.75)"/></g><path class="c" d="M248.383,163.72h-26.64l-3.834,12.292-4.268-12.292h-26.3V102.16h61.043Z"/></g><g transform="translate(-1.359 3.961)"><g transform="translate(218.359 140.039)"><path class="d" d="M-359.522,158.1h-19.816a.863.863,0,0,0-.862.862v35.327a.863.863,0,0,0,.862.862h27.055a.863.863,0,0,0,.862-.862V166.2Zm-.258,2.666,5.863,5.863h-5.863Zm6.291,32.316h-24.643V160.167H-361.5v6.508a1.685,1.685,0,0,0,.492,1.187,1.676,1.676,0,0,0,1.187.491h6.335Z" transform="translate(380.2 -158.099)"/><rect class="d" width="15.165" height="1.723" transform="translate(6.377 13.441)"/><rect class="d" width="15.078" height="1.723" transform="translate(6.377 19.473)"/><rect class="d" width="8.098" height="1.724" transform="translate(6.377 25.504)"/></g><g transform="translate(233.075 159.511)"><path class="e" d="M-362.194,168.221a11.41,11.41,0,0,0-11.14,13.847,11.337,11.337,0,0,0,8.688,8.688A11.408,11.408,0,0,0-350.8,179.617a11.4,11.4,0,0,0-11.394-11.4Z" transform="translate(373.59 -168.221)"/><path class="a" d="M-362.921,172.377l-1.424-1.424a.633.633,0,0,0-.9,0l-.923.923,2.322,2.32.921-.923A.633.633,0,0,0-362.921,172.377Z" transform="translate(380.581 -165.824)"/><path class="a" d="M-370.252,175.812l-.791,3.112,3.111-.791Z" transform="translate(375.987 -161.076)"/><path class="a" d="M-370.385,179.264l2.32,2.32,7.7-7.7-2.32-2.322Zm8.6-5.748-6.708,6.708-.527-.529,6.708-6.708Z" transform="translate(376.637 -165.043)"/></g></g></g></svg>