<svg xmlns="http://www.w3.org/2000/svg" xmlns:xlink="http://www.w3.org/1999/xlink" width="87" height="101.68" viewBox="0 0 87 101.68"><defs><style>.a{fill:#0a7b24;}.b{fill:#fff;stroke:#fff;}.b,.c{stroke-linejoin:round;stroke-width:3px;}.c{fill:none;stroke:#0a7b24;}.d{filter:url(#a);}</style><filter id="a" x="0" y="0" width="87" height="101.68" filterUnits="userSpaceOnUse"><feOffset dy="3" input="SourceAlpha"/><feGaussianBlur stdDeviation="3" result="b"/><feFlood flood-opacity="0.161"/><feComposite operator="in" in2="b"/><feComposite in="SourceGraphic"/></filter></defs><g transform="translate(-273.256 -18.992)"><g transform="translate(98.894 -73.761)"><ellipse class="a" cx="10.5" cy="4.5" rx="10.5" ry="4.5" transform="translate(207.362 178.933)"/><g class="d" transform="matrix(1, 0, 0, 1, 174.36, 92.75)"><path class="b" d="M250.862,100.253h-66v66h27.175l5.872,14.68,5.872-14.68h27.082Z" transform="translate(-174.36 -92.75)"/></g><path class="c" d="M248.383,163.72h-26.64l-3.834,12.292-4.268-12.292h-26.3V102.16h61.043Z"/></g><g transform="translate(298.588 41.881)"><path class="a" d="M119.208,7.01h-9.986L100.138,37.9H96.047v3.633h36.335V37.9h-4.091ZM121.3,27H107.133l1.6-5.452h10.96Zm-4.808-16.352,1.6,5.45h-7.757l1.6-5.45ZM103.927,37.9l1.6-5.45H122.9l1.6,5.45Z" transform="translate(-96.047 -7.01)"/></g></g></svg>