<svg xmlns="http://www.w3.org/2000/svg" width="28" height="28" viewBox="0 0 28 28"><defs><style>.a{fill:none;}.b,.c{fill:#fff;}.d,.e{stroke:none;}.e{fill:#1451a1;}</style></defs><g transform="translate(-328 -8.501)"><rect class="a" width="28" height="28" transform="translate(328 8.501)"/><path class="b" d="M20.776,18.213l-4.1-4.1a.987.987,0,0,0-.7-.288H15.3A8.553,8.553,0,1,0,13.823,15.3v.671a.987.987,0,0,0,.288.7l4.1,4.1a.983.983,0,0,0,1.395,0l1.164-1.164A.992.992,0,0,0,20.776,18.213ZM8.557,13.823a5.266,5.266,0,1,1,5.266-5.266A5.263,5.263,0,0,1,8.557,13.823Z" transform="translate(331.929 11.369)"/><g class="c" transform="translate(333.5 -10.623)"><path class="d" d="M 6.418782711029053 44.98171997070312 L 5.562942981719971 44.98171997070312 C 4.539632797241211 44.98171997070312 3.70710277557373 44.14920043945312 3.70710277557373 43.12588882446289 L 3.70710277557373 40.27462005615234 L 0.8558328747749329 40.27462005615234 C -0.167477160692215 40.27462005615234 -0.9999971389770508 39.44208908081055 -0.9999971389770508 38.41878128051758 L -0.9999971389770508 37.56293869018555 C -0.9999971389770508 36.53963088989258 -0.167477160692215 35.70711135864258 0.8558328747749329 35.70711135864258 L 3.70710277557373 35.70711135864258 L 3.70710277557373 32.85583877563477 C 3.70710277557373 31.83252906799316 4.539632797241211 31 5.562942981719971 31 L 6.418782711029053 31 C 7.442092895507812 31 8.274622917175293 31.83252906799316 8.274622917175293 32.85583877563477 L 8.274622917175293 35.70711135864258 L 11.12589263916016 35.70711135864258 C 12.14920330047607 35.70711135864258 12.98172283172607 36.53963088989258 12.98172283172607 37.56293869018555 L 12.98172283172607 38.41878128051758 C 12.98172283172607 39.44208908081055 12.14920330047607 40.27462005615234 11.12589263916016 40.27462005615234 L 8.274622917175293 40.27462005615234 L 8.274622917175293 43.12588882446289 C 8.274622917175293 44.14920043945312 7.442092895507812 44.98171997070312 6.418782711029053 44.98171997070312 Z"/><path class="e" d="M 5.562942981719971 32 C 5.090363025665283 32 4.70710277557373 32.38325119018555 4.70710277557373 32.85583877563477 L 4.70710277557373 36.70711135864258 L 0.8558330535888672 36.70711135864258 C 0.3832530975341797 36.70711135864258 2.86102294921875e-06 37.09035873413086 2.86102294921875e-06 37.56293869018555 L 2.86102294921875e-06 38.41878128051758 C 2.86102294921875e-06 38.8913688659668 0.3832530975341797 39.27462005615234 0.8558330535888672 39.27462005615234 L 4.70710277557373 39.27462005615234 L 4.70710277557373 43.12588882446289 C 4.70710277557373 43.59848022460938 5.090363025665283 43.98171997070312 5.562942981719971 43.98171997070312 L 6.418782711029053 43.98171997070312 C 6.89136266708374 43.98171997070312 7.274622917175293 43.59848022460938 7.274622917175293 43.12588882446289 L 7.274622917175293 39.27462005615234 L 11.12588310241699 39.27462005615234 C 11.59847259521484 39.27462005615234 11.98172283172607 38.8913688659668 11.98172283172607 38.41878128051758 L 11.98172283172607 37.56293869018555 C 11.98172283172607 37.09035873413086 11.59847259521484 36.70711135864258 11.12588310241699 36.70711135864258 L 7.274622917175293 36.70711135864258 L 7.274622917175293 32.85583877563477 C 7.274622917175293 32.38325119018555 6.89136266708374 32 6.418782711029053 32 L 5.562942981719971 32 M 5.562942981719971 30 L 6.418782711029053 30 C 7.993502616882324 30 9.274622917175293 31.28112030029297 9.274622917175293 32.85583877563477 L 9.274622917175293 34.70711135864258 L 11.12588310241699 34.70711135864258 C 12.70060253143311 34.70711135864258 13.98172283172607 35.98823165893555 13.98172283172607 37.56293869018555 L 13.98172283172607 38.41878128051758 C 13.98172283172607 39.99349975585938 12.70060253143311 41.27462005615234 11.12588310241699 41.27462005615234 L 9.274622917175293 41.27462005615234 L 9.274622917175293 43.12588882446289 C 9.274622917175293 44.70059967041016 7.993502616882324 45.98171997070312 6.418782711029053 45.98171997070312 L 5.562942981719971 45.98171997070312 C 3.988223075866699 45.98171997070312 2.70710277557373 44.70059967041016 2.70710277557373 43.12588882446289 L 2.70710277557373 41.27462005615234 L 0.8558330535888672 41.27462005615234 C -0.718876838684082 41.27462005615234 -1.999997138977051 39.99349975585938 -1.999997138977051 38.41878128051758 L -1.999997138977051 37.56293869018555 C -1.999997138977051 35.98823165893555 -0.718876838684082 34.70711135864258 0.8558330535888672 34.70711135864258 L 2.70710277557373 34.70711135864258 L 2.70710277557373 32.85583877563477 C 2.70710277557373 31.28112030029297 3.988223075866699 30 5.562942981719971 30 Z"/></g></g></svg>