<svg xmlns="http://www.w3.org/2000/svg" width="12.5" height="20" viewBox="0 0 12.5 20"><defs><style>.a{fill:#1451a1;}</style></defs><path class="a" d="M8.148,3.749A1.875,1.875,0,1,0,6.273,1.875,1.875,1.875,0,0,0,8.148,3.749Zm3.691,5.823-.91-.461L10.55,7.964A4.258,4.258,0,0,0,6.558,5a8.588,8.588,0,0,0-3.644.984,3.726,3.726,0,0,0-1.941,1.8l-.262.531a1.254,1.254,0,0,0,.555,1.676,1.233,1.233,0,0,0,1.66-.559L3.188,8.9a1.241,1.241,0,0,1,.644-.6l1.047-.422-.594,2.371a2.508,2.508,0,0,0,.582,2.3L7.207,15.1a2.521,2.521,0,0,1,.582,1.082L8.5,19.048a1.25,1.25,0,0,0,2.425-.605l-.867-3.476a2.5,2.5,0,0,0-.582-1.082L7.7,11.944,8.374,9.26l.215.644A2.491,2.491,0,0,0,9.827,11.35l.91.461a1.233,1.233,0,0,0,1.66-.559,1.264,1.264,0,0,0-.559-1.679Zm-8.94,5.5a2.424,2.424,0,0,1-.555.84L.391,17.865a1.25,1.25,0,1,0,1.765,1.769l2.32-2.32a2.539,2.539,0,0,0,.555-.84l.527-1.32c-2.16-2.355-1.511-1.633-1.851-2.1Z" transform="translate(-0.025)"/></svg>